<svg width="128" height="128" viewBox="0 0 128 128" fill="none" xmlns="http://www.w3.org/2000/svg">
<rect width="128" height="128" fill="white"/>
<path d="M43.3203 106.211C38.3047 106.211 35.7969 104.898 35.7969 102.273V34.8438H15.9688C14.6562 34.8438 13.6953 34.3516 13.0859 33.3672C12.5234 32.3828 12.2422 30.7891 12.2422 28.5859V24.7891C12.2422 22.5859 12.5234 20.9922 13.0859 20.0078C13.6953 19.0234 14.6562 18.5312 15.9688 18.5312H75.1016C76.4141 18.5312 77.3516 19.0234 77.9141 20.0078C78.5234 20.9922 78.8281 22.5859 78.8281 24.7891V28.5859C78.8281 30.7891 78.5234 32.3828 77.9141 33.3672C77.3516 34.3516 76.4141 34.8438 75.1016 34.8438H55.2031V102.273C55.2031 104.898 52.6953 106.211 47.6797 106.211H43.3203Z" fill="#B0FCB3"/>
<path d="M35.7969 34.8438H36.7969V33.8438H35.7969V34.8438ZM13.0859 33.3672L12.2177 33.8633L12.2264 33.8786L12.2357 33.8935L13.0859 33.3672ZM13.0859 20.0078L12.2357 19.4815L12.2264 19.4964L12.2177 19.5117L13.0859 20.0078ZM77.9141 20.0078L77.0458 20.504L77.0545 20.5192L77.0638 20.5342L77.9141 20.0078ZM77.9141 33.3672L77.0638 32.8408L77.0545 32.8558L77.0458 32.871L77.9141 33.3672ZM55.2031 34.8438V33.8438H54.2031V34.8438H55.2031ZM43.3203 105.211C40.8672 105.211 39.1807 104.884 38.1414 104.341C37.6365 104.076 37.312 103.775 37.1105 103.459C36.9117 103.147 36.7969 102.764 36.7969 102.273H34.7969C34.7969 103.096 34.9955 103.861 35.4236 104.533C35.8491 105.201 36.465 105.721 37.214 106.113C38.6826 106.881 40.7578 107.211 43.3203 107.211V105.211ZM36.7969 102.273V34.8438H34.7969V102.273H36.7969ZM35.7969 33.8438H15.9688V35.8438H35.7969V33.8438ZM15.9688 33.8438C14.9477 33.8438 14.3361 33.4869 13.9362 32.8408L12.2357 33.8935C13.0545 35.2162 14.3648 35.8438 15.9688 35.8438V33.8438ZM13.9542 32.871C13.5268 32.1231 13.2422 30.7507 13.2422 28.5859H11.2422C11.2422 30.8274 11.5201 32.6425 12.2177 33.8633L13.9542 32.871ZM13.2422 28.5859V24.7891H11.2422V28.5859H13.2422ZM13.2422 24.7891C13.2422 22.6243 13.5268 21.2519 13.9542 20.504L12.2177 19.5117C11.5201 20.7325 11.2422 22.5476 11.2422 24.7891H13.2422ZM13.9362 20.5342C14.3361 19.8881 14.9477 19.5312 15.9688 19.5312V17.5312C14.3648 17.5312 13.0545 18.1588 12.2357 19.4815L13.9362 20.5342ZM15.9688 19.5312H75.1016V17.5312H15.9688V19.5312ZM75.1016 19.5312C76.1229 19.5312 76.6926 19.8858 77.0458 20.504L78.7823 19.5117C78.0105 18.1611 76.7052 17.5312 75.1016 17.5312V19.5312ZM77.0638 20.5342C77.521 21.2727 77.8281 22.6307 77.8281 24.7891H79.8281C79.8281 22.5411 79.5259 20.7117 78.7643 19.4815L77.0638 20.5342ZM77.8281 24.7891V28.5859H79.8281V24.7891H77.8281ZM77.8281 28.5859C77.8281 30.7443 77.521 32.1023 77.0638 32.8408L78.7643 33.8935C79.5259 32.6633 79.8281 30.8339 79.8281 28.5859H77.8281ZM77.0458 32.871C76.6926 33.4892 76.1229 33.8438 75.1016 33.8438V35.8438C76.7052 35.8438 78.0105 35.2139 78.7823 33.8633L77.0458 32.871ZM75.1016 33.8438H55.2031V35.8438H75.1016V33.8438ZM54.2031 34.8438V102.273H56.2031V34.8438H54.2031ZM54.2031 102.273C54.2031 102.764 54.0883 103.147 53.8895 103.459C53.688 103.775 53.3635 104.076 52.8586 104.341C51.8193 104.884 50.1328 105.211 47.6797 105.211V107.211C50.2422 107.211 52.3174 106.881 53.786 106.113C54.535 105.721 55.1509 105.201 55.5764 104.533C56.0045 103.861 56.2031 103.096 56.2031 102.273H54.2031ZM47.6797 105.211H43.3203V107.211H47.6797V105.211Z" fill="black"/>
<path d="M30.7335 36.844C30.7287 36.2659 30.858 35.8428 31.1215 35.5747C31.3849 35.3067 31.8056 35.17 32.3837 35.1646L58.2342 34.9262C58.8123 34.9209 59.2274 35.0499 59.4796 35.3132C59.7474 35.5763 59.8837 35.997 59.8885 36.5751L59.9566 44.8248C59.9845 48.1997 59.3488 50.69 58.0495 52.2958C56.7658 53.9015 54.9756 54.7149 52.6788 54.7361C51.3039 54.7488 50.0348 54.3308 48.8715 53.4821C47.7082 52.6334 46.8556 51.5631 46.3136 50.2712L46.15 50.3195C45.9402 51.4153 45.503 52.3881 44.8381 53.238C44.1733 54.1036 43.3585 54.7752 42.3937 55.2528C41.429 55.7461 40.4154 55.9977 39.3529 56.0075C36.6187 56.0327 34.5179 55.1848 33.0505 53.4639C31.5831 51.743 30.8351 49.1482 30.8064 45.6796L30.7335 36.844ZM48.3503 44.299C48.3604 45.5177 48.6572 46.4603 49.2409 47.1268C49.8403 47.8088 50.5931 48.1457 51.4993 48.1373C53.5617 48.1183 54.5825 46.8432 54.5616 44.312L54.5374 41.3824L48.3267 41.4397L48.3503 44.299ZM36.2671 45.6292C36.2771 46.8323 36.5739 47.7671 37.1575 48.4337C37.7568 49.1 38.5955 49.4282 39.6735 49.4183C40.736 49.4085 41.5374 49.0105 42.0778 48.2242C42.6184 47.4536 42.8826 46.3417 42.8706 44.8886L42.8426 41.4903L36.2335 41.5513L36.2671 45.6292Z" fill="#640AD8"/>
<path d="M59.4796 35.3132L58.7571 36.0052L58.7676 36.0162L58.7784 36.0268L59.4796 35.3132ZM58.0495 52.2958L57.2723 51.6672L57.2687 51.6718L58.0495 52.2958ZM46.3136 50.2712L47.2358 49.8836L46.8897 49.0583L46.031 49.3122L46.3136 50.2712ZM46.15 50.3195L45.8673 49.3606L45.2824 49.5335L45.1678 50.1325L46.15 50.3195ZM44.8381 53.238L44.0507 52.6223L44.0452 52.6294L44.8381 53.238ZM42.3937 55.2528L41.9507 54.3567L41.9391 54.3626L42.3937 55.2528ZM49.2409 47.1268L48.4883 47.7861L48.4895 47.7874L49.2409 47.1268ZM54.5374 41.3824L55.5373 41.3732L55.5291 40.3733L54.5291 40.3825L54.5374 41.3824ZM48.3267 41.4397L48.3185 40.4398L47.3185 40.449L47.3268 41.4489L48.3267 41.4397ZM37.1575 48.4337L36.4049 49.0929L36.4137 49.1027L37.1575 48.4337ZM42.0778 48.2242L41.2593 47.6505L41.2539 47.6583L42.0778 48.2242ZM42.8426 41.4903L43.8425 41.4811L43.8343 40.4811L42.8343 40.4903L42.8426 41.4903ZM36.2335 41.5513L36.2252 40.5513L35.2253 40.5605L35.2335 41.5605L36.2335 41.5513ZM31.7334 36.8348C31.7317 36.6181 31.7558 36.474 31.7832 36.3846C31.8091 36.2997 31.8339 36.2757 31.8344 36.2753L30.4085 34.8742C29.8799 35.4121 29.7277 36.1497 29.7335 36.8532L31.7334 36.8348ZM31.8344 36.2753C31.8348 36.2748 31.8583 36.2496 31.9427 36.2222C32.0317 36.1933 32.1754 36.1666 32.392 36.1646L32.3755 34.1647C31.672 34.1711 30.9372 34.3362 30.4085 34.8742L31.8344 36.2753ZM32.392 36.1646L58.2425 35.9262L58.2259 33.9262L32.3755 34.1647L32.392 36.1646ZM58.2425 35.9262C58.7021 35.9219 58.7822 36.0315 58.7571 36.0052L60.2021 34.6211C59.6726 34.0683 58.9225 33.9198 58.2259 33.9262L58.2425 35.9262ZM58.7784 36.0268C58.7788 36.0272 58.804 36.0507 58.8314 36.1351C58.8602 36.224 58.8867 36.3677 58.8885 36.5843L60.8885 36.5659C60.8826 35.8623 60.7183 35.1277 60.1809 34.5996L58.7784 36.0268ZM58.8885 36.5843L58.9567 44.834L60.9566 44.8156L60.8885 36.5659L58.8885 36.5843ZM58.9567 44.834C58.9837 48.1136 58.3581 50.3253 57.2723 51.6673L58.8266 52.9244C60.3394 51.0547 60.9852 48.2858 60.9566 44.8156L58.9567 44.834ZM57.2687 51.6718C56.1967 53.0127 54.7066 53.7173 52.6706 53.7361L52.6871 55.736C55.2446 55.7125 57.335 54.7903 58.8303 52.9198L57.2687 51.6718ZM52.6706 53.7361C51.5212 53.7467 50.46 53.4026 49.4613 52.674L48.2816 54.2902C49.6096 55.259 51.0866 55.7508 52.6871 55.736L52.6706 53.7361ZM49.4613 52.674C48.4408 51.9294 47.7053 51.0028 47.2358 49.8836L45.3914 50.6588C46.0058 52.1234 46.9756 53.3374 48.2816 54.2902L49.4613 52.674ZM46.031 49.3122L45.8673 49.3606L46.4326 51.2785L46.5963 51.2301L46.031 49.3122ZM45.1678 50.1325C44.9869 51.0774 44.6141 51.9021 44.0507 52.6223L45.6255 53.8537C46.3918 52.8741 46.8936 51.7531 47.1321 50.5066L45.1678 50.1325ZM44.0452 52.6294C43.4723 53.3754 42.7766 53.9479 41.9507 54.3567L42.8367 56.1489C43.9405 55.6025 44.8743 54.8318 45.6309 53.8467L44.0452 52.6294ZM41.9391 54.3626C41.1099 54.7866 40.2488 54.9992 39.3447 55.0075L39.3612 57.0074C40.582 56.9962 41.7481 56.7057 42.8483 56.1431L41.9391 54.3626ZM39.3447 55.0075C36.8384 55.0306 35.0472 54.2636 33.8117 52.8147L32.2893 54.1132C33.9886 56.1061 36.3989 57.0348 39.3612 57.0074L39.3447 55.0075ZM33.8117 52.8147C32.5594 51.346 31.8341 49.0238 31.8064 45.6704L29.8065 45.6888C29.8361 49.2727 30.6068 52.14 32.2893 54.1132L33.8117 52.8147ZM31.8064 45.6704L31.7334 36.8348L29.7335 36.8532L29.8065 45.6888L31.8064 45.6704ZM47.3504 44.3082C47.3617 45.6766 47.6966 46.8819 48.4883 47.7861L49.9935 46.4676C49.6179 46.0387 49.3591 45.3589 49.3503 44.2898L47.3504 44.3082ZM48.4895 47.7874C49.2801 48.687 50.3099 49.1483 51.5076 49.1373L51.4911 47.1373C50.8762 47.143 50.4004 46.9307 49.9923 46.4663L48.4895 47.7874ZM51.5076 49.1373C52.7532 49.1258 53.8458 48.7235 54.5921 47.7912C55.3068 46.8984 55.5729 45.6785 55.5615 44.3028L53.5616 44.3213C53.5712 45.4767 53.3373 46.1599 53.0313 46.5422C52.7568 46.885 52.3078 47.1298 51.4911 47.1373L51.5076 49.1373ZM55.5615 44.3028L55.5373 41.3732L53.5374 41.3917L53.5616 44.3213L55.5615 44.3028ZM54.5291 40.3825L48.3185 40.4398L48.335 42.4397L54.5456 42.3824L54.5291 40.3825ZM47.3268 41.4489L47.3504 44.3082L49.3503 44.2898L49.3267 41.4305L47.3268 41.4489ZM35.2672 45.6385C35.2784 46.995 35.6151 48.1908 36.4049 49.0929L37.9101 47.7744C37.5327 47.3434 37.2758 46.6697 37.2671 45.62L35.2672 45.6385ZM36.4137 49.1027C37.2432 50.0251 38.3804 50.4303 39.6818 50.4183L39.6653 48.4183C38.8105 48.4262 38.2704 48.175 37.9014 47.7646L36.4137 49.1027ZM39.6818 50.4183C41.0272 50.4059 42.1532 49.8793 42.9018 48.7901L41.2539 47.6583C40.9217 48.1417 40.4448 48.4111 39.6653 48.4183L39.6818 50.4183ZM42.8963 48.7979C43.6057 47.7865 43.8834 46.4349 43.8706 44.8794L41.8707 44.8979C41.8818 46.2485 41.631 47.1206 41.2593 47.6505L42.8963 48.7979ZM43.8706 44.8794L43.8425 41.4811L41.8426 41.4995L41.8707 44.8979L43.8706 44.8794ZM42.8343 40.4903L36.2252 40.5513L36.2417 42.5512L42.8508 42.4903L42.8343 40.4903ZM35.2335 41.5605L35.2672 45.6385L37.2671 45.62L37.2334 41.542L35.2335 41.5605Z" fill="black"/>
<path d="M44.1442 67.6827C47.6513 70.7928 49.4829 74.0436 49.639 77.4351C49.7834 80.8162 48.2573 84.5198 45.0609 88.5458C38.9108 96.2919 32.3638 97.0859 25.4198 90.9278C24.4729 90.0881 23.5569 89.109 22.6719 87.9905C21.7752 86.8617 21.1171 85.8088 20.6974 84.8319C20.268 83.8672 20.2234 83.1707 20.5634 82.7424C20.8063 82.4365 21.2438 82.1364 21.876 81.842C22.4984 81.5598 23.118 81.3691 23.7349 81.2696C24.3517 81.1702 24.7828 81.2293 25.0283 81.447C25.0985 81.5092 25.2194 81.7207 25.3911 82.0815C25.7813 82.8446 26.2348 83.5908 26.7514 84.3201C27.2584 85.0616 27.9853 85.8522 28.9322 86.692C30.7676 88.3196 32.6153 88.9155 34.4753 88.4797C36.314 88.0458 38.2097 86.599 40.1625 84.1393C42.1154 81.6797 43.1431 79.4318 43.2456 77.3957C43.3482 75.3596 42.511 73.5537 40.734 71.9779C39.8339 71.1796 38.9583 70.5387 38.1072 70.055L34.8281 74.185L37.5812 76.6265C37.9085 76.9167 38.0461 77.2577 37.9941 77.6495C37.9303 78.0309 37.6702 78.5091 37.2135 79.0843L36.3828 80.1306C35.9359 80.6935 35.5403 81.0412 35.196 81.1738C34.84 81.296 34.4983 81.2119 34.171 80.9217L27.8407 75.3079C27.3964 74.9139 27.1575 74.5248 27.124 74.1405C27.0807 73.7685 27.2388 73.3561 27.5983 72.9033L34.8122 63.8173C35.5894 62.8383 36.9119 62.8538 38.7796 63.8636C40.6375 64.8857 42.4258 66.1587 44.1442 67.6827Z" fill="#640AD8"/>
<path d="M49.639 77.4351L50.6108 77.3986L50.6107 77.395L49.639 77.4351ZM22.6719 87.9905L23.4163 87.3371L23.4151 87.3355L22.6719 87.9905ZM20.6974 84.8319L21.5829 84.4155L21.5773 84.4028L20.6974 84.8319ZM21.876 81.842L21.4848 80.8982L21.4761 80.9023L21.876 81.842ZM25.3911 82.0815L24.5226 82.5352L24.5291 82.5489L24.5359 82.5623L25.3911 82.0815ZM26.7514 84.3201L27.5386 83.7248L27.5337 83.7176L27.5287 83.7106L26.7514 84.3201ZM34.4753 88.4797L34.6948 89.4819L34.6962 89.4815L34.4753 88.4797ZM38.1072 70.055L38.5622 69.1523L37.8639 68.7555L37.359 69.3915L38.1072 70.055ZM34.8281 74.185L34.0799 73.5215L33.4581 74.3047L34.2063 74.9682L34.8281 74.185ZM37.9941 77.6495L38.9522 77.837L38.9552 77.8193L38.9575 77.8014L37.9941 77.6495ZM35.196 81.1738L35.5048 82.1502L35.5211 82.1446L35.5371 82.1384L35.196 81.1738ZM27.124 74.1405L28.0927 74.0559L28.0913 74.0404L28.0895 74.025L27.124 74.1405ZM38.7796 63.8636L39.2229 62.9544L39.2167 62.951L38.7796 63.8636ZM43.5224 68.4659C46.9095 71.4696 48.5292 74.4747 48.6673 77.4752L50.6107 77.395C50.4366 73.6126 48.3932 70.1161 44.766 66.8995L43.5224 68.4659ZM48.6671 77.4716C48.7959 80.4872 47.4374 83.9466 44.3127 87.8823L45.809 89.2093C49.0772 85.093 50.7708 81.1453 50.6108 77.3986L48.6671 77.4716ZM44.3127 87.8823C41.324 91.6466 38.3537 93.5751 35.418 93.9311C32.4981 94.2852 29.3857 93.1102 26.0416 90.1446L24.798 91.711C28.3979 94.9035 32.031 96.4105 35.6582 95.9706C39.2695 95.5326 42.6477 93.1911 45.809 89.2093L44.3127 87.8823ZM26.0416 90.1446C25.1438 89.3485 24.2683 88.4139 23.4163 87.3371L21.9275 88.6439C22.8455 89.804 23.8019 90.8276 24.798 91.711L26.0416 90.1446ZM23.4151 87.3355C22.5562 86.2543 21.9548 85.2813 21.5828 84.4155L19.812 85.2483C20.2794 86.3363 20.9943 87.469 21.9288 88.6454L23.4151 87.3355ZM21.5773 84.4028C21.3901 83.9822 21.3235 83.6981 21.3125 83.5264C21.3027 83.3741 21.3378 83.373 21.3116 83.4059L19.8152 82.0789C19.0731 83.0137 19.3727 84.2615 19.8175 85.261L21.5773 84.4028ZM21.3116 83.4059C21.4111 83.2806 21.6849 83.0569 22.2758 82.7817L21.4761 80.9023C20.8028 81.2159 20.2015 81.5925 19.8152 82.0789L21.3116 83.4059ZM22.2671 82.7857C22.8209 82.5347 23.3616 82.3696 23.8907 82.2843L23.5791 80.2549C22.8744 80.3685 22.1759 80.585 21.4849 80.8983L22.2671 82.7857ZM23.8907 82.2843C24.1449 82.2433 24.3095 82.2442 24.4044 82.2572C24.4991 82.2702 24.471 82.2874 24.4065 82.2302L25.6501 80.6638C25.0542 80.1354 24.2354 80.1491 23.5791 80.2549L23.8907 82.2843ZM24.4065 82.2302C24.3662 82.1944 24.3401 82.1642 24.3287 82.1505C24.3161 82.1354 24.3095 82.1258 24.3091 82.1253C24.309 82.1252 24.319 82.1398 24.3399 82.1764C24.3817 82.2494 24.442 82.3658 24.5226 82.5352L26.2597 81.6279C26.1686 81.4365 26.0825 81.2667 26.0034 81.1282C25.9477 81.0309 25.826 80.8198 25.6501 80.6638L24.4065 82.2302ZM24.5359 82.5623C24.9502 83.3724 25.43 84.1615 25.9742 84.9297L27.5287 83.7106C27.0395 83.0201 26.6125 82.3169 26.2463 81.6008L24.5359 82.5623ZM25.9643 84.9154C26.5342 85.7491 27.3254 86.6016 28.3104 87.4752L29.554 85.9088C28.6452 85.1029 27.9825 84.3742 27.5386 83.7248L25.9643 84.9154ZM28.3104 87.4752C30.3149 89.2528 32.4652 90.0042 34.6948 89.4819L34.2559 87.4776C32.7654 87.8268 31.2203 87.3864 29.554 85.9088L28.3104 87.4752ZM34.6962 89.4815C36.8344 88.9769 38.8997 87.3358 40.9107 84.8028L39.4144 83.4758C37.5197 85.8622 35.7935 87.1147 34.2544 87.4779L34.6962 89.4815ZM40.9107 84.8028C42.9252 82.2656 44.0987 79.8115 44.2171 77.4598L42.2742 77.3316C42.1875 79.0522 41.3056 81.0938 39.4144 83.4758L40.9107 84.8028ZM44.2171 77.4598C44.3392 75.0351 43.3172 72.9341 41.3558 71.1947L40.1122 72.7611C41.7048 74.1733 42.3571 75.6842 42.2742 77.3316L44.2171 77.4598ZM41.3558 71.1947C40.4147 70.3601 39.4836 69.676 38.5622 69.1523L37.6521 70.9576C38.4329 71.4013 39.2531 71.9991 40.1122 72.7611L41.3558 71.1947ZM37.359 69.3915L34.0799 73.5215L35.5763 74.8485L38.8553 70.7185L37.359 69.3915ZM34.2063 74.9682L36.9594 77.4096L38.203 75.8433L35.4499 73.4018L34.2063 74.9682ZM36.9594 77.4096C37.0297 77.472 37.0389 77.5032 37.0354 77.4945C37.034 77.4909 37.0326 77.4856 37.032 77.4812C37.0316 77.4773 37.0327 77.4818 37.0307 77.4976L38.9575 77.8014C39.0633 77.0058 38.7483 76.3269 38.203 75.8433L36.9594 77.4096ZM37.036 77.462C37.0182 77.5686 36.8981 77.8757 36.4653 78.4208L37.9617 79.7478C38.4422 79.1426 38.8425 78.4932 38.9522 77.837L37.036 77.462ZM36.4653 78.4208L35.6346 79.4671L37.131 80.7941L37.9617 79.7478L36.4653 78.4208ZM35.6346 79.4671C35.2144 79.9963 34.9533 80.1712 34.8549 80.2091L35.5371 82.1384C36.1273 81.9112 36.6574 81.3906 37.131 80.7941L35.6346 79.4671ZM34.8871 80.1974C34.8728 80.2023 34.8684 80.2019 34.8721 80.2017C34.8763 80.2015 34.8815 80.202 34.8851 80.2029C34.8938 80.205 34.8631 80.2009 34.7928 80.1385L33.5492 81.7048C34.0945 82.1885 34.7818 82.3984 35.5048 82.1502L34.8871 80.1974ZM34.7928 80.1385L28.4625 74.5247L27.2189 76.091L33.5492 81.7048L34.7928 80.1385ZM28.4625 74.5247C28.2928 74.3742 28.1957 74.2536 28.1433 74.1683C28.118 74.127 28.1053 74.0976 28.0991 74.08C28.0961 74.0712 28.0945 74.0651 28.0937 74.0615C28.0929 74.0579 28.0927 74.0562 28.0927 74.0559L26.1553 74.2252C26.2231 75.0023 26.6876 75.6199 27.2189 76.091L28.4625 74.5247ZM28.0895 74.025C28.0939 74.062 28.0606 73.9268 28.3464 73.5668L26.8501 72.2398C26.417 72.7854 26.0675 73.475 26.1584 74.2561L28.0895 74.025ZM28.3464 73.5668L35.5603 64.4808L34.064 63.1538L26.8501 72.2398L28.3464 73.5668ZM35.5603 64.4808C35.7461 64.2468 35.985 64.1164 36.3854 64.121C36.8324 64.1262 37.4733 64.3063 38.3424 64.7762L39.2167 62.951C38.2181 62.4111 37.2639 62.0785 36.3885 62.0683C35.4664 62.0575 34.6555 62.4088 34.064 63.1538L35.5603 64.4808ZM38.3362 64.7728C40.1263 65.7575 41.8551 66.9872 43.5224 68.4659L44.766 66.8995C42.9964 65.3302 41.1488 64.0139 39.2229 62.9544L38.3362 64.7728Z" fill="black"/>
<path d="M86.147 69.1562C86.1518 69.7343 86.0224 70.1574 85.759 70.4255C85.4956 70.6936 85.0748 70.8303 84.4967 70.8356L58.2479 71.0777C57.7948 71.0819 57.4572 70.8818 57.2351 70.4776C56.9973 70.0736 56.8749 69.4418 56.8678 68.5825L56.8562 67.1763C56.8491 66.317 56.9611 65.6831 57.1921 65.2747C57.4075 64.8664 57.7417 64.6602 58.1948 64.656L80.647 64.449L80.5704 55.168C80.5668 54.7305 80.7282 54.4165 81.0548 54.226C81.3812 54.0199 81.9038 53.9135 82.6225 53.9069L83.935 53.8948C84.6693 53.888 85.2014 53.9846 85.5312 54.1847C85.8608 54.3692 86.0275 54.6802 86.0311 55.1177L86.147 69.1562Z" fill="#640AD8"/>
<path d="M57.2351 70.4776L58.1116 69.9954L58.1045 69.9826L58.0971 69.9699L57.2351 70.4776ZM57.1921 65.2747L58.0624 65.7664L58.0696 65.7536L58.0764 65.7406L57.1921 65.2747ZM80.647 64.449L80.6553 65.4489L81.6552 65.4397L81.647 64.4397L80.647 64.449ZM81.0548 54.226L81.5581 55.0897L81.5733 55.0808L81.5881 55.0714L81.0548 54.226ZM85.5312 54.1847L85.0119 55.0398L85.0269 55.0489L85.0422 55.0575L85.5312 54.1847ZM85.147 69.1655C85.1488 69.3821 85.1246 69.5262 85.0973 69.6157C85.0713 69.7005 85.0466 69.7245 85.0461 69.7249L86.4719 71.1261C87.0006 70.5881 87.1528 69.8505 87.147 69.147L85.147 69.1655ZM85.0461 69.7249C85.0457 69.7254 85.0222 69.7506 84.9377 69.778C84.8488 69.8069 84.7051 69.8336 84.4885 69.8356L84.505 71.8356C85.2085 71.8291 85.9433 71.664 86.4719 71.1261L85.0461 69.7249ZM84.4885 69.8356L58.2396 70.0777L58.2561 72.0777L84.505 71.8356L84.4885 69.8356ZM58.2396 70.0777C58.2011 70.0781 58.1797 70.074 58.171 70.0718C58.1631 70.0699 58.1626 70.0688 58.1652 70.0703C58.1676 70.0718 58.165 70.071 58.1572 70.0626C58.1488 70.0535 58.1324 70.0334 58.1116 69.9954L56.3585 70.9598C56.5404 71.2908 56.7969 71.5853 57.1445 71.7913C57.4931 71.9978 57.8758 72.0812 58.2561 72.0777L58.2396 70.0777ZM58.0971 69.9699C57.9951 69.7966 57.8745 69.3814 57.8678 68.5733L55.8679 68.5917C55.8754 69.5023 55.9996 70.3505 56.373 70.9853L58.0971 69.9699ZM57.8678 68.5733L57.8562 67.1671L55.8563 67.1855L55.8679 68.5917L57.8678 68.5733ZM57.8562 67.1671C57.8495 66.359 57.9633 65.9416 58.0624 65.7664L56.3218 64.783C55.9589 65.4246 55.8487 66.2749 55.8563 67.1855L57.8562 67.1671ZM58.0764 65.7406C58.0967 65.7023 58.1127 65.6819 58.121 65.6727C58.1286 65.6641 58.1312 65.6633 58.1288 65.6648C58.1263 65.6663 58.1268 65.6652 58.1346 65.6631C58.1432 65.6608 58.1646 65.6564 58.2031 65.656L58.1866 63.6561C57.8062 63.6596 57.425 63.75 57.0799 63.9629C56.7357 64.1752 56.4841 64.4744 56.3077 64.8087L58.0764 65.7406ZM58.2031 65.656L80.6553 65.4489L80.6387 63.449L58.1866 63.6561L58.2031 65.656ZM81.647 64.4397L81.5703 55.1588L79.5704 55.1772L79.647 64.4582L81.647 64.4397ZM81.5703 55.1588C81.5695 55.0639 81.587 55.0435 81.578 55.0611C81.5737 55.0694 81.567 55.079 81.5592 55.087C81.5519 55.0946 81.5494 55.0947 81.5581 55.0897L80.5515 53.3624C79.8605 53.7655 79.5644 54.4486 79.5704 55.1772L81.5703 55.1588ZM81.5881 55.0714C81.6722 55.0183 81.9618 54.913 82.6308 54.9068L82.6143 52.9069C81.8458 52.914 81.0903 53.0214 80.5214 53.3806L81.5881 55.0714ZM82.6308 54.9068L83.9432 54.8947L83.9267 52.8948L82.6143 52.9069L82.6308 54.9068ZM83.9432 54.8947C84.6328 54.8884 84.9292 54.9897 85.0119 55.0398L86.0505 53.3296C85.4736 52.9796 84.7059 52.8876 83.9267 52.8948L83.9432 54.8947ZM85.0422 55.0575C85.0509 55.0624 85.0485 55.0623 85.041 55.0549C85.0332 55.047 85.0263 55.0375 85.0219 55.0293C85.0125 55.0119 85.0303 55.0319 85.0311 55.1269L87.031 55.1084C87.025 54.3798 86.7177 53.7023 86.0201 53.3119L85.0422 55.0575ZM85.0311 55.1269L85.147 69.1655L87.147 69.147L87.031 55.1084L85.0311 55.1269Z" fill="black"/>
<path d="M82.8854 83.3125C77.3229 83.3125 73.0833 81.625 70.1667 78.25C67.25 74.875 65.7917 69.9375 65.7917 63.4375C65.7917 56.9583 67.2396 52.0625 70.1354 48.75C73.0521 45.4167 77.3021 43.75 82.8854 43.75C88.4896 43.75 92.75 45.4167 95.6667 48.75C98.5833 52.0625 100.042 56.9583 100.042 63.4375C100.042 69.9375 98.5833 74.875 95.6667 78.25C92.75 81.625 88.4896 83.3125 82.8854 83.3125ZM82.8854 79.0938C86.8021 79.0938 89.8021 77.7604 91.8854 75.0938C93.9688 72.4062 95.0104 68.5208 95.0104 63.4375C95.0104 58.3542 93.9688 54.5104 91.8854 51.9062C89.8229 49.2812 86.8229 47.9688 82.8854 47.9688C78.9688 47.9688 75.9792 49.2812 73.9167 51.9062C71.8542 54.5104 70.8229 58.3542 70.8229 63.4375C70.8229 68.5417 71.8542 72.4271 73.9167 75.0938C75.9792 77.7604 78.9688 79.0938 82.8854 79.0938Z" fill="#B0FCB3"/>
<path d="M70.1354 48.75L69.3828 48.0915L69.3826 48.0918L70.1354 48.75ZM95.6667 48.75L94.9141 49.4085L94.9161 49.4108L95.6667 48.75ZM91.8854 75.0938L92.6735 75.7094L92.6758 75.7064L91.8854 75.0938ZM91.8854 51.9062L91.0991 52.5241L91.1046 52.5309L91.8854 51.9062ZM73.9167 51.9062L74.7006 52.5271L74.703 52.5241L73.9167 51.9062ZM82.8854 82.3125C77.5357 82.3125 73.6045 80.6987 70.9233 77.5961L69.4101 78.9039C72.5622 82.5513 77.1101 84.3125 82.8854 84.3125V82.3125ZM70.9233 77.5961C68.2219 74.4703 66.7917 69.8048 66.7917 63.4375H64.7917C64.7917 70.0702 66.2781 75.2797 69.4101 78.9039L70.9233 77.5961ZM66.7917 63.4375C66.7917 57.0887 68.2125 52.469 70.8883 49.4082L69.3826 48.0918C66.2667 51.656 64.7917 56.8279 64.7917 63.4375H66.7917ZM70.888 49.4085C73.5673 46.3464 77.5096 44.75 82.8854 44.75V42.75C77.0946 42.75 72.5369 44.4869 69.3828 48.0915L70.888 49.4085ZM82.8854 44.75C88.2835 44.75 92.2355 46.3472 94.9141 49.4085L96.4193 48.0915C93.2645 44.4861 88.6957 42.75 82.8854 42.75V44.75ZM94.9161 49.4108C97.6112 52.4716 99.0417 57.0902 99.0417 63.4375H101.042C101.042 56.8264 99.5555 51.6534 96.4172 48.0892L94.9161 49.4108ZM99.0417 63.4375C99.0417 69.8048 97.6114 74.4703 94.9101 77.5961L96.4233 78.9039C99.5552 75.2797 101.042 70.0702 101.042 63.4375H99.0417ZM94.9101 77.5961C92.2303 80.697 88.2795 82.3125 82.8854 82.3125V84.3125C88.6997 84.3125 93.2697 82.553 96.4233 78.9039L94.9101 77.5961ZM82.8854 80.0938C87.0552 80.0938 90.3693 78.6587 92.6734 75.7094L91.0974 74.4781C89.2349 76.8621 86.5489 78.0938 82.8854 78.0938V80.0938ZM92.6758 75.7064C94.9477 72.7756 96.0104 68.6378 96.0104 63.4375H94.0104C94.0104 68.4039 92.9898 72.0369 91.0951 74.4811L92.6758 75.7064ZM96.0104 63.4375C96.0104 58.2404 94.949 54.1349 92.6663 51.2816L91.1046 52.5309C92.9886 54.8859 94.0104 58.4679 94.0104 63.4375H96.0104ZM92.6717 51.2884C90.3845 48.3774 87.0681 46.9688 82.8854 46.9688V48.9688C86.5778 48.9688 89.2613 50.1851 91.0991 52.5241L92.6717 51.2884ZM82.8854 46.9688C78.7216 46.9688 75.4165 48.3788 73.1304 51.2884L74.703 52.5241C76.5419 50.1837 79.2159 48.9688 82.8854 48.9688V46.9688ZM73.1328 51.2854C70.8732 54.1383 69.8229 58.2422 69.8229 63.4375H71.8229C71.8229 58.4661 72.8351 54.8825 74.7006 52.5271L73.1328 51.2854ZM69.8229 63.4375C69.8229 68.6549 70.8738 72.794 73.1257 75.7055L74.7077 74.482C72.8346 72.0602 71.8229 68.4284 71.8229 63.4375H69.8229ZM73.1257 75.7055C75.4096 78.6586 78.7158 80.0938 82.8854 80.0938V78.0938C79.2217 78.0938 76.5487 76.8623 74.7077 74.482L73.1257 75.7055Z" fill="black"/>
</svg>
