<svg width="1920" height="1080" viewBox="0 0 1920 1080" fill="none" xmlns="http://www.w3.org/2000/svg">
<rect x="0.5" y="0.5" width="1919" height="1079" fill="#0ABDA0"/>
<path d="M102.286 633.024L109.726 630.816V660H113.806V625.92L102.286 628.8V633.024ZM129.17 658.08C129.17 658.784 129.426 659.408 129.938 659.952C130.482 660.464 131.106 660.72 131.81 660.72C132.546 660.72 133.17 660.464 133.682 659.952C134.194 659.408 134.45 658.784 134.45 658.08C134.45 657.344 134.194 656.72 133.682 656.208C133.17 655.696 132.546 655.44 131.81 655.44C131.106 655.44 130.482 655.696 129.938 656.208C129.426 656.72 129.17 657.344 129.17 658.08ZM181.4 630.24V660H185.48V626.4H158.84V660H162.92V630.24H181.4ZM195.553 626.4V660H199.633V626.4H195.553ZM197.809 630.24H204.673C206.849 630.24 208.609 630.768 209.953 631.824C211.329 632.848 212.017 634.4 212.017 636.48C212.017 638.528 211.329 640.08 209.953 641.136C208.609 642.192 206.849 642.72 204.673 642.72H197.809V646.56H204.673C206.849 646.56 208.785 646.16 210.481 645.36C212.209 644.528 213.569 643.36 214.561 641.856C215.585 640.32 216.097 638.528 216.097 636.48C216.097 634.4 215.585 632.608 214.561 631.104C213.569 629.6 212.209 628.448 210.481 627.648C208.785 626.816 206.849 626.4 204.673 626.4H197.809V630.24ZM253.529 630.96L253.769 624.72L224.489 655.44L224.249 661.68L253.529 630.96ZM228.329 626.4H224.249V661.68L228.329 656.4V626.4ZM253.769 624.72L249.689 630V660H253.769V624.72ZM266.124 660H283.068V656.16H266.124V660ZM266.124 630.24H283.068V626.4H266.124V630.24ZM266.124 643.68H282.108V639.84H266.124V643.68ZM263.868 626.4V660H267.948V626.4H263.868ZM297.315 637.296L308.259 656.88L319.203 637.296L321.699 660H325.779L321.699 624.72L308.259 649.056L294.819 624.72L290.739 660H294.819L297.315 637.296ZM363.621 626.4V660H367.701V626.4H363.621ZM378.453 643.2C378.453 645.152 377.973 646.8 377.013 648.144C376.053 649.456 374.725 650.448 373.029 651.12C371.333 651.76 369.381 652.08 367.173 652.08H364.149C361.941 652.08 359.989 651.76 358.293 651.12C356.597 650.448 355.269 649.456 354.309 648.144C353.349 646.8 352.869 645.152 352.869 643.2C352.869 641.216 353.349 639.568 354.309 638.256C355.269 636.944 356.597 635.968 358.293 635.328C359.989 634.656 361.941 634.32 364.149 634.32H367.173C369.381 634.32 371.333 634.656 373.029 635.328C374.725 635.968 376.053 636.944 377.013 638.256C377.973 639.568 378.453 641.216 378.453 643.2ZM382.533 643.2C382.533 640.48 381.861 638.16 380.517 636.24C379.205 634.32 377.381 632.848 375.045 631.824C372.741 630.768 370.117 630.24 367.173 630.24H364.149C361.205 630.24 358.565 630.768 356.229 631.824C353.925 632.848 352.101 634.32 350.757 636.24C349.445 638.16 348.789 640.48 348.789 643.2C348.789 645.888 349.445 648.208 350.757 650.16C352.101 652.08 353.925 653.568 356.229 654.624C358.565 655.648 361.205 656.16 364.149 656.16H367.173C370.117 656.16 372.741 655.648 375.045 654.624C377.381 653.568 379.205 652.08 380.517 650.16C381.861 648.208 382.533 645.888 382.533 643.2ZM419.982 630.96L420.222 624.72L390.942 655.44L390.702 661.68L419.982 630.96ZM394.782 626.4H390.702V661.68L394.782 656.4V626.4ZM420.222 624.72L416.142 630V660H420.222V624.72ZM440.065 643.44C441.921 643.44 443.601 643.216 445.105 642.768C446.641 642.32 447.953 641.712 449.041 640.944C450.129 640.144 450.961 639.232 451.537 638.208C452.145 637.152 452.449 636.032 452.449 634.848C452.449 633.248 452.017 631.776 451.153 630.432C450.289 629.088 449.057 628 447.457 627.168C445.857 626.336 443.937 625.92 441.697 625.92C439.553 625.92 437.649 626.304 435.985 627.072C434.353 627.808 433.073 628.832 432.145 630.144C431.249 631.456 430.801 632.992 430.801 634.752H434.689C434.689 633.76 434.993 632.88 435.601 632.112C436.209 631.344 437.041 630.736 438.097 630.288C439.185 629.84 440.401 629.616 441.745 629.616C443.185 629.616 444.385 629.84 445.345 630.288C446.337 630.736 447.073 631.376 447.553 632.208C448.033 633.008 448.273 633.936 448.273 634.992C448.273 636.048 447.953 637.024 447.313 637.92C446.673 638.784 445.745 639.488 444.529 640.032C443.313 640.544 441.825 640.8 440.065 640.8V643.44ZM441.505 660.48C444.001 660.48 446.129 660.096 447.889 659.328C449.681 658.56 451.041 657.472 451.969 656.064C452.929 654.656 453.409 653.008 453.409 651.12C453.409 648.88 452.817 647.088 451.633 645.744C450.449 644.368 448.849 643.36 446.833 642.72C444.817 642.08 442.561 641.76 440.065 641.76V644.4C441.825 644.4 443.393 644.64 444.769 645.12C446.145 645.568 447.233 646.256 448.033 647.184C448.833 648.112 449.233 649.264 449.233 650.64C449.233 652.464 448.609 653.92 447.361 655.008C446.113 656.096 444.161 656.64 441.505 656.64C439.745 656.64 438.289 656.4 437.137 655.92C436.017 655.44 435.153 654.784 434.545 653.952C433.969 653.12 433.617 652.176 433.489 651.12H429.361C429.361 652.432 429.617 653.664 430.129 654.816C430.673 655.936 431.457 656.928 432.481 657.792C433.505 658.624 434.769 659.28 436.273 659.76C437.777 660.24 439.521 660.48 441.505 660.48ZM491.111 630.96L491.351 624.72L462.071 655.44L461.831 661.68L491.111 630.96ZM465.911 626.4H461.831V661.68L465.911 656.4V626.4ZM491.351 624.72L487.271 630V660H491.351V624.72ZM511.529 646.56H521.945V642.96H511.529V646.56ZM519.209 626.4V660H523.289V626.4H519.209ZM505.289 626.4H501.449V635.136C501.449 637.28 501.817 639.216 502.553 640.944C503.321 642.672 504.457 644.048 505.961 645.072C507.465 646.064 509.321 646.56 511.529 646.56V642.96C510.153 642.96 509.001 642.608 508.073 641.904C507.145 641.2 506.441 640.256 505.961 639.072C505.513 637.888 505.289 636.576 505.289 635.136V626.4ZM535.637 660H552.581V656.16H535.637V660ZM535.637 630.24H552.581V626.4H535.637V630.24ZM535.637 643.68H551.621V639.84H535.637V643.68ZM533.381 626.4V660H537.461V626.4H533.381ZM564.571 643.2C564.571 640.576 565.147 638.288 566.299 636.336C567.483 634.352 569.019 632.8 570.907 631.68C572.795 630.56 574.843 630 577.051 630C578.651 630 580.107 630.208 581.419 630.624C582.763 631.04 583.979 631.632 585.067 632.4C586.155 633.136 587.083 634 587.851 634.992V629.616C586.443 628.368 584.907 627.44 583.243 626.832C581.579 626.224 579.515 625.92 577.051 625.92C574.715 625.92 572.523 626.352 570.475 627.216C568.459 628.048 566.683 629.248 565.147 630.816C563.611 632.352 562.411 634.176 561.547 636.288C560.683 638.4 560.251 640.704 560.251 643.2C560.251 645.696 560.683 648 561.547 650.112C562.411 652.224 563.611 654.064 565.147 655.632C566.683 657.168 568.459 658.368 570.475 659.232C572.523 660.064 574.715 660.48 577.051 660.48C579.515 660.48 581.579 660.176 583.243 659.568C584.907 658.96 586.443 658.032 587.851 656.784V651.408C587.083 652.4 586.155 653.28 585.067 654.048C583.979 654.784 582.763 655.36 581.419 655.776C580.107 656.192 578.651 656.4 577.051 656.4C574.843 656.4 572.795 655.84 570.907 654.72C569.019 653.6 567.483 652.048 566.299 650.064C565.147 648.08 564.571 645.792 564.571 643.2ZM597.431 626.4V660H601.511V626.4H597.431ZM614.711 626.4L600.263 642.24L615.431 660H620.471L605.207 642.144L619.751 626.4H614.711ZM656.251 630.96L656.491 624.72L627.211 655.44L626.971 661.68L656.251 630.96ZM631.051 626.4H626.971V661.68L631.051 656.4V626.4ZM656.491 624.72L652.411 630V660H656.491V624.72ZM683.39 626.4L676.238 638.832L669.23 626.4H664.43L674.174 642.384L663.23 660H668.03L676.19 645.936L684.11 660H688.91L678.254 642.384L688.19 626.4H683.39ZM736.31 626.4H713.51V647.52C713.51 648.8 713.414 649.984 713.222 651.072C713.03 652.16 712.742 653.12 712.358 653.952C711.974 654.752 711.51 655.376 710.966 655.824C710.422 656.272 709.782 656.496 709.046 656.496V660C710.87 660 712.39 659.472 713.606 658.416C714.854 657.36 715.782 655.952 716.39 654.192C717.03 652.432 717.35 650.528 717.35 648.48V630.24H732.23V660H736.31V626.4ZM775.679 630.96L775.919 624.72L746.639 655.44L746.399 661.68L775.679 630.96ZM750.479 626.4H746.399V661.68L750.479 656.4V626.4ZM775.919 624.72L771.839 630V660H775.919V624.72ZM790.098 656.16V626.4H786.018V660H813.138V665.28H816.738V656.16H812.658V626.4H808.578V656.16H790.098ZM844.894 642.24H850.318C852.334 642.24 854.078 641.952 855.55 641.376C857.054 640.8 858.222 639.952 859.054 638.832C859.886 637.712 860.302 636.368 860.302 634.8C860.302 632.88 859.886 631.312 859.054 630.096C858.222 628.848 857.054 627.92 855.55 627.312C854.078 626.704 852.334 626.4 850.318 626.4H841.678V660H850.798C852.974 660 854.91 659.648 856.606 658.944C858.334 658.208 859.694 657.12 860.686 655.68C861.71 654.208 862.222 652.368 862.222 650.16C862.222 648.624 861.934 647.296 861.358 646.176C860.782 645.056 859.966 644.144 858.91 643.44C857.886 642.704 856.686 642.16 855.31 641.808C853.934 641.456 852.43 641.28 850.798 641.28H844.894V643.536H850.798C851.886 643.536 852.878 643.68 853.774 643.968C854.67 644.224 855.438 644.624 856.078 645.168C856.75 645.712 857.262 646.384 857.614 647.184C857.966 647.984 858.142 648.896 858.142 649.92C858.142 651.296 857.822 652.464 857.182 653.424C856.574 654.384 855.71 655.12 854.59 655.632C853.502 656.144 852.238 656.4 850.798 656.4H845.758V630H850.318C852.014 630 853.422 630.448 854.542 631.344C855.662 632.208 856.222 633.44 856.222 635.04C856.222 636.096 855.966 636.992 855.454 637.728C854.942 638.464 854.238 639.024 853.342 639.408C852.446 639.792 851.438 639.984 850.318 639.984H844.894V642.24ZM890.034 643.2C890.034 640.576 890.61 638.288 891.762 636.336C892.946 634.352 894.482 632.8 896.37 631.68C898.258 630.56 900.306 630 902.514 630C904.114 630 905.57 630.208 906.882 630.624C908.226 631.04 909.442 631.632 910.53 632.4C911.618 633.136 912.546 634 913.314 634.992V629.616C911.906 628.368 910.37 627.44 908.706 626.832C907.042 626.224 904.978 625.92 902.514 625.92C900.178 625.92 897.986 626.352 895.938 627.216C893.922 628.048 892.146 629.248 890.61 630.816C889.074 632.352 887.874 634.176 887.01 636.288C886.146 638.4 885.714 640.704 885.714 643.2C885.714 645.696 886.146 648 887.01 650.112C887.874 652.224 889.074 654.064 890.61 655.632C892.146 657.168 893.922 658.368 895.938 659.232C897.986 660.064 900.178 660.48 902.514 660.48C904.978 660.48 907.042 660.176 908.706 659.568C910.37 658.96 911.906 658.032 913.314 656.784V651.408C912.546 652.4 911.618 653.28 910.53 654.048C909.442 654.784 908.226 655.36 906.882 655.776C905.57 656.192 904.114 656.4 902.514 656.4C900.306 656.4 898.258 655.84 896.37 654.72C894.482 653.6 892.946 652.048 891.762 650.064C890.61 648.08 890.034 645.792 890.034 643.2ZM925.293 643.2C925.293 640.672 925.837 638.416 926.925 636.432C928.045 634.448 929.565 632.88 931.485 631.728C933.405 630.576 935.581 630 938.013 630C940.477 630 942.653 630.576 944.541 631.728C946.461 632.88 947.965 634.448 949.053 636.432C950.173 638.416 950.733 640.672 950.733 643.2C950.733 645.728 950.173 647.984 949.053 649.968C947.965 651.952 946.461 653.52 944.541 654.672C942.653 655.824 940.477 656.4 938.013 656.4C935.581 656.4 933.405 655.824 931.485 654.672C929.565 653.52 928.045 651.952 926.925 649.968C925.837 647.984 925.293 645.728 925.293 643.2ZM920.973 643.2C920.973 645.632 921.389 647.904 922.221 650.016C923.085 652.128 924.285 653.968 925.821 655.536C927.357 657.072 929.165 658.288 931.245 659.184C933.325 660.048 935.581 660.48 938.013 660.48C940.477 660.48 942.733 660.048 944.781 659.184C946.861 658.288 948.669 657.072 950.205 655.536C951.741 653.968 952.925 652.128 953.757 650.016C954.621 647.904 955.053 645.632 955.053 643.2C955.053 640.736 954.621 638.464 953.757 636.384C952.925 634.272 951.741 632.448 950.205 630.912C948.669 629.344 946.861 628.128 944.781 627.264C942.733 626.368 940.477 625.92 938.013 625.92C935.581 625.92 933.325 626.368 931.245 627.264C929.165 628.128 927.357 629.344 925.821 630.912C924.285 632.448 923.085 634.272 922.221 636.384C921.389 638.464 920.973 640.736 920.973 643.2ZM958.402 630.24H967.042V660H971.122V630.24H979.762V626.4H958.402V630.24ZM986.474 626.4V660H990.554V626.4H986.474ZM988.73 630.24H995.594C997.77 630.24 999.53 630.768 1000.87 631.824C1002.25 632.848 1002.94 634.4 1002.94 636.48C1002.94 638.528 1002.25 640.08 1000.87 641.136C999.53 642.192 997.77 642.72 995.594 642.72H988.73V646.56H995.594C997.77 646.56 999.706 646.16 1001.4 645.36C1003.13 644.528 1004.49 643.36 1005.48 641.856C1006.51 640.32 1007.02 638.528 1007.02 636.48C1007.02 634.4 1006.51 632.608 1005.48 631.104C1004.49 629.6 1003.13 628.448 1001.4 627.648C999.706 626.816 997.77 626.4 995.594 626.4H988.73V630.24ZM1037 626.4H1032.44L1022.26 648.768L1024.81 648.96L1014.92 626.4H1009.88L1020.97 650.064L1016.65 660H1021.21L1037 626.4ZM1053.6 633.984L1062.96 658.56H1067.28L1053.6 624.72L1039.92 658.56H1044.24L1053.6 633.984ZM1067.04 660V665.28H1070.64V656.16H1036.56V665.28H1040.16V660H1067.04ZM1081.29 643.68H1104.33V639.84H1081.29V643.68ZM1101.59 626.4V660H1105.67V626.4H1101.59ZM1079.03 626.4V660H1083.11V626.4H1079.03ZM1145.03 630.96L1145.27 624.72L1115.99 655.44L1115.75 661.68L1145.03 630.96ZM1119.83 626.4H1115.75V661.68L1119.83 656.4V626.4ZM1145.27 624.72L1141.19 630V660H1145.27V624.72ZM1155.37 626.4V660H1159.45V626.4H1155.37ZM1172.65 626.4L1158.2 642.24L1173.37 660H1178.41L1163.14 642.144L1177.69 626.4H1172.65ZM1214.19 630.96L1214.43 624.72L1185.15 655.44L1184.91 661.68L1214.19 630.96ZM1188.99 626.4H1184.91V661.68L1188.99 656.4V626.4ZM1214.43 624.72L1210.35 630V660H1214.43V624.72ZM98.0138 708H121.726V704.16H106.366L117.118 693.264C118.43 691.92 119.486 690.48 120.286 688.944C121.118 687.408 121.534 685.776 121.534 684.048C121.534 682.928 121.342 681.776 120.958 680.592C120.574 679.376 119.966 678.272 119.134 677.28C118.334 676.256 117.278 675.44 115.966 674.832C114.686 674.192 113.118 673.872 111.262 673.872C108.958 673.872 106.958 674.384 105.262 675.408C103.566 676.4 102.254 677.808 101.326 679.632C100.398 681.424 99.9338 683.52 99.9338 685.92H103.966C103.966 684.224 104.27 682.768 104.878 681.552C105.518 680.304 106.382 679.36 107.47 678.72C108.558 678.048 109.822 677.712 111.262 677.712C112.286 677.712 113.182 677.888 113.95 678.24C114.718 678.592 115.358 679.056 115.87 679.632C116.382 680.208 116.766 680.848 117.022 681.552C117.278 682.256 117.406 682.976 117.406 683.712C117.406 684.608 117.262 685.472 116.974 686.304C116.686 687.104 116.27 687.904 115.726 688.704C115.214 689.472 114.59 690.256 113.854 691.056L98.0138 708ZM129.17 706.08C129.17 706.784 129.426 707.408 129.938 707.952C130.482 708.464 131.106 708.72 131.81 708.72C132.546 708.72 133.17 708.464 133.682 707.952C134.194 707.408 134.45 706.784 134.45 706.08C134.45 705.344 134.194 704.72 133.682 704.208C133.17 703.696 132.546 703.44 131.81 703.44C131.106 703.44 130.482 703.696 129.938 704.208C129.426 704.72 129.17 705.344 129.17 706.08ZM158.84 674.4V708H162.92V674.4H158.84ZM176.12 674.4L161.672 690.24L176.84 708H181.88L166.616 690.144L181.16 674.4H176.12ZM191.597 697.92H209.357L207.917 694.08H193.037L191.597 697.92ZM200.381 681.984L206.141 695.52L206.525 696.48L211.421 708H215.981L200.381 672.72L184.781 708H189.341L194.333 696.192L194.717 695.328L200.381 681.984ZM239.041 681.984L248.401 706.56H252.721L239.041 672.72L225.361 706.56H229.681L239.041 681.984ZM252.481 708V713.28H256.081V704.16H222.001V713.28H225.601V708H252.481ZM264.477 674.4V708H268.557V674.4H264.477ZM266.733 678.24H273.597C275.773 678.24 277.533 678.768 278.877 679.824C280.253 680.848 280.941 682.4 280.941 684.48C280.941 686.528 280.253 688.08 278.877 689.136C277.533 690.192 275.773 690.72 273.597 690.72H266.733V694.56H273.597C275.773 694.56 277.709 694.16 279.405 693.36C281.133 692.528 282.493 691.36 283.485 689.856C284.509 688.32 285.021 686.528 285.021 684.48C285.021 682.4 284.509 680.608 283.485 679.104C282.493 677.6 281.133 676.448 279.405 675.648C277.709 674.816 275.773 674.4 273.597 674.4H266.733V678.24ZM295.574 691.2C295.574 688.672 296.118 686.416 297.206 684.432C298.326 682.448 299.846 680.88 301.766 679.728C303.686 678.576 305.862 678 308.294 678C310.758 678 312.934 678.576 314.822 679.728C316.742 680.88 318.246 682.448 319.334 684.432C320.454 686.416 321.014 688.672 321.014 691.2C321.014 693.728 320.454 695.984 319.334 697.968C318.246 699.952 316.742 701.52 314.822 702.672C312.934 703.824 310.758 704.4 308.294 704.4C305.862 704.4 303.686 703.824 301.766 702.672C299.846 701.52 298.326 699.952 297.206 697.968C296.118 695.984 295.574 693.728 295.574 691.2ZM291.254 691.2C291.254 693.632 291.67 695.904 292.502 698.016C293.366 700.128 294.566 701.968 296.102 703.536C297.638 705.072 299.446 706.288 301.526 707.184C303.606 708.048 305.862 708.48 308.294 708.48C310.758 708.48 313.014 708.048 315.062 707.184C317.142 706.288 318.95 705.072 320.486 703.536C322.022 701.968 323.206 700.128 324.038 698.016C324.902 695.904 325.334 693.632 325.334 691.2C325.334 688.736 324.902 686.464 324.038 684.384C323.206 682.272 322.022 680.448 320.486 678.912C318.95 677.344 317.142 676.128 315.062 675.264C313.014 674.368 310.758 673.92 308.294 673.92C305.862 673.92 303.606 674.368 301.526 675.264C299.446 676.128 297.638 677.344 296.102 678.912C294.566 680.448 293.366 682.272 292.502 684.384C291.67 686.464 291.254 688.736 291.254 691.2ZM336.712 690.24H342.136C344.152 690.24 345.896 689.952 347.368 689.376C348.872 688.8 350.04 687.952 350.872 686.832C351.704 685.712 352.12 684.368 352.12 682.8C352.12 680.88 351.704 679.312 350.872 678.096C350.04 676.848 348.872 675.92 347.368 675.312C345.896 674.704 344.152 674.4 342.136 674.4H333.496V708H342.616C344.792 708 346.728 707.648 348.424 706.944C350.152 706.208 351.512 705.12 352.504 703.68C353.528 702.208 354.04 700.368 354.04 698.16C354.04 696.624 353.752 695.296 353.176 694.176C352.6 693.056 351.784 692.144 350.728 691.44C349.704 690.704 348.504 690.16 347.128 689.808C345.752 689.456 344.248 689.28 342.616 689.28H336.712V691.536H342.616C343.704 691.536 344.696 691.68 345.592 691.968C346.488 692.224 347.256 692.624 347.896 693.168C348.568 693.712 349.08 694.384 349.432 695.184C349.784 695.984 349.96 696.896 349.96 697.92C349.96 699.296 349.64 700.464 349 701.424C348.392 702.384 347.528 703.12 346.408 703.632C345.32 704.144 344.056 704.4 342.616 704.4H337.576V678H342.136C343.832 678 345.24 678.448 346.36 679.344C347.48 680.208 348.04 681.44 348.04 683.04C348.04 684.096 347.784 684.992 347.272 685.728C346.76 686.464 346.056 687.024 345.16 687.408C344.264 687.792 343.256 687.984 342.136 687.984H336.712V690.24ZM387.622 674.4V708H391.702V674.4H387.622ZM362.662 674.4V708H366.742V674.4H362.662ZM364.918 691.68H371.782C373.222 691.68 374.486 691.92 375.574 692.4C376.694 692.848 377.558 693.536 378.166 694.464C378.806 695.392 379.126 696.544 379.126 697.92C379.126 699.296 378.806 700.448 378.166 701.376C377.558 702.304 376.694 703.008 375.574 703.488C374.486 703.936 373.222 704.16 371.782 704.16H364.918V708H371.782C373.958 708 375.894 707.6 377.59 706.8C379.318 705.968 380.678 704.8 381.67 703.296C382.694 701.76 383.206 699.968 383.206 697.92C383.206 695.84 382.694 694.048 381.67 692.544C380.678 691.04 379.318 689.888 377.59 689.088C375.894 688.256 373.958 687.84 371.782 687.84H364.918V691.68ZM404.021 708H420.965V704.16H404.021V708ZM404.021 678.24H420.965V674.4H404.021V678.24ZM404.021 691.68H420.005V687.84H404.021V691.68ZM401.765 674.4V708H405.845V674.4H401.765ZM449.746 691.2C449.746 688.672 450.29 686.416 451.378 684.432C452.498 682.448 454.018 680.88 455.938 679.728C457.858 678.576 460.034 678 462.466 678C464.93 678 467.106 678.576 468.994 679.728C470.914 680.88 472.418 682.448 473.506 684.432C474.626 686.416 475.186 688.672 475.186 691.2C475.186 693.728 474.626 695.984 473.506 697.968C472.418 699.952 470.914 701.52 468.994 702.672C467.106 703.824 464.93 704.4 462.466 704.4C460.034 704.4 457.858 703.824 455.938 702.672C454.018 701.52 452.498 699.952 451.378 697.968C450.29 695.984 449.746 693.728 449.746 691.2ZM445.426 691.2C445.426 693.632 445.842 695.904 446.674 698.016C447.538 700.128 448.738 701.968 450.274 703.536C451.81 705.072 453.618 706.288 455.698 707.184C457.778 708.048 460.034 708.48 462.466 708.48C464.93 708.48 467.186 708.048 469.234 707.184C471.314 706.288 473.122 705.072 474.658 703.536C476.194 701.968 477.378 700.128 478.21 698.016C479.074 695.904 479.506 693.632 479.506 691.2C479.506 688.736 479.074 686.464 478.21 684.384C477.378 682.272 476.194 680.448 474.658 678.912C473.122 677.344 471.314 676.128 469.234 675.264C467.186 674.368 464.93 673.92 462.466 673.92C460.034 673.92 457.778 674.368 455.698 675.264C453.618 676.128 451.81 677.344 450.274 678.912C448.738 680.448 447.538 682.272 446.674 684.384C445.842 686.464 445.426 688.736 445.426 691.2ZM510.228 678.24V708H514.308V674.4H487.668V708H491.748V678.24H510.228ZM526.637 708H543.581V704.16H526.637V708ZM526.637 678.24H543.581V674.4H526.637V678.24ZM526.637 691.68H542.621V687.84H526.637V691.68ZM524.381 674.4V708H528.461V674.4H524.381ZM553.171 674.4V708H557.251V674.4H553.171ZM555.427 678.24H562.291C564.467 678.24 566.227 678.768 567.571 679.824C568.947 680.848 569.635 682.4 569.635 684.48C569.635 686.528 568.947 688.08 567.571 689.136C566.227 690.192 564.467 690.72 562.291 690.72H555.427V694.56H562.291C564.467 694.56 566.403 694.16 568.099 693.36C569.827 692.528 571.187 691.36 572.179 689.856C573.203 688.32 573.715 686.528 573.715 684.48C573.715 682.4 573.203 680.608 572.179 679.104C571.187 677.6 569.827 676.448 568.099 675.648C566.403 674.816 564.467 674.4 562.291 674.4H555.427V678.24ZM581.709 697.92H599.469L598.029 694.08H583.149L581.709 697.92ZM590.493 681.984L596.253 695.52L596.637 696.48L601.533 708H606.093L590.493 672.72L574.893 708H579.453L584.445 696.192L584.829 695.328L590.493 681.984ZM616.661 704.16V674.4H612.581V708H639.701V713.28H643.301V704.16H639.221V674.4H635.141V704.16H616.661ZM680.729 678.96L680.969 672.72L651.689 703.44L651.449 709.68L680.729 678.96ZM655.529 674.4H651.449V709.68L655.529 704.4V674.4ZM680.969 672.72L676.889 678V708H680.969V672.72ZM720.348 678.96L720.588 672.72L691.308 703.44L691.068 709.68L720.348 678.96ZM695.148 674.4H691.068V709.68L695.148 704.4V674.4ZM720.588 672.72L716.508 678V708H720.588V672.72ZM109.726 739.44C111.902 739.44 113.806 739.056 115.438 738.288C117.07 737.52 118.35 736.48 119.278 735.168C120.206 733.856 120.67 732.416 120.67 730.848C120.67 729.248 120.286 727.776 119.518 726.432C118.782 725.088 117.71 724 116.302 723.168C114.926 722.336 113.278 721.92 111.358 721.92C109.534 721.92 107.902 722.304 106.462 723.072C105.054 723.808 103.934 724.832 103.102 726.144C102.302 727.456 101.902 728.992 101.902 730.752H105.79C105.79 729.28 106.334 728.064 107.422 727.104C108.51 726.112 109.838 725.616 111.406 725.616C112.526 725.616 113.454 725.84 114.19 726.288C114.958 726.736 115.534 727.376 115.918 728.208C116.302 729.008 116.494 729.936 116.494 730.992C116.494 731.792 116.334 732.544 116.014 733.248C115.726 733.952 115.294 734.576 114.718 735.12C114.142 735.632 113.438 736.048 112.606 736.368C111.774 736.656 110.814 736.8 109.726 736.8V739.44ZM111.166 756.48C113.182 756.48 114.974 756.096 116.542 755.328C118.11 754.56 119.342 753.472 120.238 752.064C121.166 750.656 121.63 749.008 121.63 747.12C121.63 745.456 121.31 744.032 120.67 742.848C120.062 741.664 119.198 740.704 118.078 739.968C116.99 739.2 115.726 738.64 114.286 738.288C112.878 737.936 111.358 737.76 109.726 737.76V740.4C110.814 740.4 111.822 740.528 112.75 740.784C113.678 741.04 114.494 741.44 115.198 741.984C115.902 742.496 116.446 743.152 116.83 743.952C117.246 744.72 117.454 745.616 117.454 746.64C117.454 747.856 117.198 748.912 116.686 749.808C116.174 750.704 115.438 751.408 114.478 751.92C113.55 752.4 112.446 752.64 111.166 752.64C109.886 752.64 108.75 752.4 107.758 751.92C106.766 751.44 105.982 750.784 105.406 749.952C104.862 749.12 104.59 748.176 104.59 747.12H100.462C100.462 748.432 100.718 749.664 101.23 750.816C101.742 751.936 102.462 752.928 103.39 753.792C104.318 754.624 105.438 755.28 106.75 755.76C108.062 756.24 109.534 756.48 111.166 756.48ZM129.17 754.08C129.17 754.784 129.426 755.408 129.938 755.952C130.482 756.464 131.106 756.72 131.81 756.72C132.546 756.72 133.17 756.464 133.682 755.952C134.194 755.408 134.45 754.784 134.45 754.08C134.45 753.344 134.194 752.72 133.682 752.208C133.17 751.696 132.546 751.44 131.81 751.44C131.106 751.44 130.482 751.696 129.938 752.208C129.426 752.72 129.17 753.344 129.17 754.08ZM168.584 739.44C170.44 739.44 172.12 739.216 173.624 738.768C175.16 738.32 176.472 737.712 177.56 736.944C178.648 736.144 179.48 735.232 180.056 734.208C180.664 733.152 180.968 732.032 180.968 730.848C180.968 729.248 180.536 727.776 179.672 726.432C178.808 725.088 177.576 724 175.976 723.168C174.376 722.336 172.456 721.92 170.216 721.92C168.072 721.92 166.168 722.304 164.504 723.072C162.872 723.808 161.592 724.832 160.664 726.144C159.768 727.456 159.32 728.992 159.32 730.752H163.208C163.208 729.76 163.512 728.88 164.12 728.112C164.728 727.344 165.56 726.736 166.616 726.288C167.704 725.84 168.92 725.616 170.264 725.616C171.704 725.616 172.904 725.84 173.864 726.288C174.856 726.736 175.592 727.376 176.072 728.208C176.552 729.008 176.792 729.936 176.792 730.992C176.792 732.048 176.472 733.024 175.832 733.92C175.192 734.784 174.264 735.488 173.048 736.032C171.832 736.544 170.344 736.8 168.584 736.8V739.44ZM170.024 756.48C172.52 756.48 174.648 756.096 176.408 755.328C178.2 754.56 179.56 753.472 180.488 752.064C181.448 750.656 181.928 749.008 181.928 747.12C181.928 744.88 181.336 743.088 180.152 741.744C178.968 740.368 177.368 739.36 175.352 738.72C173.336 738.08 171.08 737.76 168.584 737.76V740.4C170.344 740.4 171.912 740.64 173.288 741.12C174.664 741.568 175.752 742.256 176.552 743.184C177.352 744.112 177.752 745.264 177.752 746.64C177.752 748.464 177.128 749.92 175.88 751.008C174.632 752.096 172.68 752.64 170.024 752.64C168.264 752.64 166.808 752.4 165.656 751.92C164.536 751.44 163.672 750.784 163.064 749.952C162.488 749.12 162.136 748.176 162.008 747.12H157.88C157.88 748.432 158.136 749.664 158.648 750.816C159.192 751.936 159.976 752.928 161 753.792C162.024 754.624 163.288 755.28 164.792 755.76C166.296 756.24 168.04 756.48 170.024 756.48ZM192.862 745.92H210.622L209.182 742.08H194.302L192.862 745.92ZM201.646 729.984L207.406 743.52L207.79 744.48L212.686 756H217.246L201.646 720.72L186.046 756H190.606L195.598 744.192L195.982 743.328L201.646 729.984ZM226.95 738.24H232.374C234.39 738.24 236.134 737.952 237.606 737.376C239.11 736.8 240.278 735.952 241.11 734.832C241.942 733.712 242.358 732.368 242.358 730.8C242.358 728.88 241.942 727.312 241.11 726.096C240.278 724.848 239.11 723.92 237.606 723.312C236.134 722.704 234.39 722.4 232.374 722.4H223.734V756H232.854C235.03 756 236.966 755.648 238.662 754.944C240.39 754.208 241.75 753.12 242.742 751.68C243.766 750.208 244.278 748.368 244.278 746.16C244.278 744.624 243.99 743.296 243.414 742.176C242.838 741.056 242.022 740.144 240.966 739.44C239.942 738.704 238.742 738.16 237.366 737.808C235.99 737.456 234.486 737.28 232.854 737.28H226.95V739.536H232.854C233.942 739.536 234.934 739.68 235.83 739.968C236.726 740.224 237.494 740.624 238.134 741.168C238.806 741.712 239.318 742.384 239.67 743.184C240.022 743.984 240.198 744.896 240.198 745.92C240.198 747.296 239.878 748.464 239.238 749.424C238.63 750.384 237.766 751.12 236.646 751.632C235.558 752.144 234.294 752.4 232.854 752.4H227.814V726H232.374C234.07 726 235.478 726.448 236.598 727.344C237.718 728.208 238.278 729.44 238.278 731.04C238.278 732.096 238.022 732.992 237.51 733.728C236.998 734.464 236.294 735.024 235.398 735.408C234.502 735.792 233.494 735.984 232.374 735.984H226.95V738.24ZM255.155 756H272.099V752.16H255.155V756ZM255.155 726.24H272.099V722.4H255.155V726.24ZM255.155 739.68H271.139V735.84H255.155V739.68ZM252.899 722.4V756H256.979V722.4H252.899ZM281.69 722.4V756H285.77V722.4H281.69ZM283.946 726.24H290.81C292.986 726.24 294.746 726.768 296.09 727.824C297.466 728.848 298.154 730.4 298.154 732.48C298.154 734.528 297.466 736.08 296.09 737.136C294.746 738.192 292.986 738.72 290.81 738.72H283.946V742.56H290.81C292.986 742.56 294.922 742.16 296.618 741.36C298.346 740.528 299.706 739.36 300.698 737.856C301.722 736.32 302.234 734.528 302.234 732.48C302.234 730.4 301.722 728.608 300.698 727.104C299.706 725.6 298.346 724.448 296.618 723.648C294.922 722.816 292.986 722.4 290.81 722.4H283.946V726.24ZM345.907 752.16H332.227V722.4H328.147V752.16H314.467V722.4H310.387V756H349.987V722.4H345.907V752.16ZM362.34 756H379.284V752.16H362.34V756ZM362.34 726.24H379.284V722.4H362.34V726.24ZM362.34 739.68H378.324V735.84H362.34V739.68ZM360.084 722.4V756H364.164V722.4H360.084ZM391.13 739.68H414.17V735.84H391.13V739.68ZM411.434 722.4V756H415.514V722.4H411.434ZM388.874 722.4V756H392.954V722.4H388.874ZM454.867 726.96L455.107 720.72L425.827 751.44L425.587 757.68L454.867 726.96ZM429.667 722.4H425.587V757.68L429.667 752.4V722.4ZM455.107 720.72L451.027 726V756H455.107V720.72ZM467.462 756H484.406V752.16H467.462V756ZM467.462 726.24H484.406V722.4H467.462V726.24ZM467.462 739.68H483.446V735.84H467.462V739.68ZM465.206 722.4V756H469.286V722.4H465.206ZM510.787 722.4V756H514.867V722.4H510.787ZM513.043 726.24H519.907C522.083 726.24 523.843 726.768 525.187 727.824C526.563 728.848 527.251 730.4 527.251 732.48C527.251 734.528 526.563 736.08 525.187 737.136C523.843 738.192 522.083 738.72 519.907 738.72H513.043V742.56H519.907C522.083 742.56 524.019 742.16 525.715 741.36C527.443 740.528 528.803 739.36 529.795 737.856C530.819 736.32 531.331 734.528 531.331 732.48C531.331 730.4 530.819 728.608 529.795 727.104C528.803 725.6 527.443 724.448 525.715 723.648C524.019 722.816 522.083 722.4 519.907 722.4H513.043V726.24ZM539.325 745.92H557.085L555.645 742.08H540.765L539.325 745.92ZM548.109 729.984L553.869 743.52L554.253 744.48L559.149 756H563.709L548.109 720.72L532.509 756H537.069L542.061 744.192L542.445 743.328L548.109 729.984ZM572.452 739.68H579.316C580.756 739.68 582.02 739.92 583.108 740.4C584.228 740.848 585.092 741.536 585.7 742.464C586.34 743.392 586.66 744.544 586.66 745.92C586.66 747.296 586.34 748.448 585.7 749.376C585.092 750.304 584.228 751.008 583.108 751.488C582.02 751.936 580.756 752.16 579.316 752.16H572.452V756H579.316C581.492 756 583.428 755.6 585.124 754.8C586.852 753.968 588.212 752.8 589.204 751.296C590.228 749.76 590.74 747.968 590.74 745.92C590.74 743.84 590.228 742.048 589.204 740.544C588.212 739.04 586.852 737.888 585.124 737.088C583.428 736.256 581.492 735.84 579.316 735.84H572.452V739.68ZM570.196 722.4V756H574.276V726.24H588.196V722.4H570.196ZM601.293 739.2C601.293 736.672 601.837 734.416 602.925 732.432C604.045 730.448 605.565 728.88 607.485 727.728C609.405 726.576 611.581 726 614.013 726C616.477 726 618.653 726.576 620.541 727.728C622.461 728.88 623.965 730.448 625.053 732.432C626.173 734.416 626.733 736.672 626.733 739.2C626.733 741.728 626.173 743.984 625.053 745.968C623.965 747.952 622.461 749.52 620.541 750.672C618.653 751.824 616.477 752.4 614.013 752.4C611.581 752.4 609.405 751.824 607.485 750.672C605.565 749.52 604.045 747.952 602.925 745.968C601.837 743.984 601.293 741.728 601.293 739.2ZM596.973 739.2C596.973 741.632 597.389 743.904 598.221 746.016C599.085 748.128 600.285 749.968 601.821 751.536C603.357 753.072 605.165 754.288 607.245 755.184C609.325 756.048 611.581 756.48 614.013 756.48C616.477 756.48 618.733 756.048 620.781 755.184C622.861 754.288 624.669 753.072 626.205 751.536C627.741 749.968 628.925 748.128 629.757 746.016C630.621 743.904 631.053 741.632 631.053 739.2C631.053 736.736 630.621 734.464 629.757 732.384C628.925 730.272 627.741 728.448 626.205 726.912C624.669 725.344 622.861 724.128 620.781 723.264C618.733 722.368 616.477 721.92 614.013 721.92C611.581 721.92 609.325 722.368 607.245 723.264C605.165 724.128 603.357 725.344 601.821 726.912C600.285 728.448 599.085 730.272 598.221 732.384C597.389 734.464 596.973 736.736 596.973 739.2ZM634.402 726.24H643.042V756H647.122V726.24H655.762V722.4H634.402V726.24ZM687.434 722.4V756H691.514V722.4H687.434ZM662.474 722.4V756H666.554V722.4H662.474ZM664.73 739.68H671.594C673.034 739.68 674.298 739.92 675.386 740.4C676.506 740.848 677.37 741.536 677.978 742.464C678.618 743.392 678.938 744.544 678.938 745.92C678.938 747.296 678.618 748.448 677.978 749.376C677.37 750.304 676.506 751.008 675.386 751.488C674.298 751.936 673.034 752.16 671.594 752.16H664.73V756H671.594C673.77 756 675.706 755.6 677.402 754.8C679.13 753.968 680.49 752.8 681.482 751.296C682.506 749.76 683.018 747.968 683.018 745.92C683.018 743.84 682.506 742.048 681.482 740.544C680.49 739.04 679.13 737.888 677.402 737.088C675.706 736.256 673.77 735.84 671.594 735.84H664.73V739.68ZM720.768 739.2C720.768 736.576 721.344 734.288 722.496 732.336C723.68 730.352 725.216 728.8 727.104 727.68C728.992 726.56 731.04 726 733.248 726C734.848 726 736.304 726.208 737.616 726.624C738.96 727.04 740.176 727.632 741.264 728.4C742.352 729.136 743.28 730 744.048 730.992V725.616C742.64 724.368 741.104 723.44 739.44 722.832C737.776 722.224 735.712 721.92 733.248 721.92C730.912 721.92 728.72 722.352 726.672 723.216C724.656 724.048 722.88 725.248 721.344 726.816C719.808 728.352 718.608 730.176 717.744 732.288C716.88 734.4 716.448 736.704 716.448 739.2C716.448 741.696 716.88 744 717.744 746.112C718.608 748.224 719.808 750.064 721.344 751.632C722.88 753.168 724.656 754.368 726.672 755.232C728.72 756.064 730.912 756.48 733.248 756.48C735.712 756.48 737.776 756.176 739.44 755.568C741.104 754.96 742.64 754.032 744.048 752.784V747.408C743.28 748.4 742.352 749.28 741.264 750.048C740.176 750.784 738.96 751.36 737.616 751.776C736.304 752.192 734.848 752.4 733.248 752.4C731.04 752.4 728.992 751.84 727.104 750.72C725.216 749.6 723.68 748.048 722.496 746.064C721.344 744.08 720.768 741.792 720.768 739.2ZM756.027 739.2C756.027 736.672 756.571 734.416 757.659 732.432C758.779 730.448 760.299 728.88 762.219 727.728C764.139 726.576 766.315 726 768.747 726C771.211 726 773.387 726.576 775.275 727.728C777.195 728.88 778.699 730.448 779.787 732.432C780.907 734.416 781.467 736.672 781.467 739.2C781.467 741.728 780.907 743.984 779.787 745.968C778.699 747.952 777.195 749.52 775.275 750.672C773.387 751.824 771.211 752.4 768.747 752.4C766.315 752.4 764.139 751.824 762.219 750.672C760.299 749.52 758.779 747.952 757.659 745.968C756.571 743.984 756.027 741.728 756.027 739.2ZM751.707 739.2C751.707 741.632 752.123 743.904 752.955 746.016C753.819 748.128 755.019 749.968 756.555 751.536C758.091 753.072 759.899 754.288 761.979 755.184C764.059 756.048 766.315 756.48 768.747 756.48C771.211 756.48 773.467 756.048 775.515 755.184C777.595 754.288 779.403 753.072 780.939 751.536C782.475 749.968 783.659 748.128 784.491 746.016C785.355 743.904 785.787 741.632 785.787 739.2C785.787 736.736 785.355 734.464 784.491 732.384C783.659 730.272 782.475 728.448 780.939 726.912C779.403 725.344 777.595 724.128 775.515 723.264C773.467 722.368 771.211 721.92 768.747 721.92C766.315 721.92 764.059 722.368 761.979 723.264C759.899 724.128 758.091 725.344 756.555 726.912C755.019 728.448 753.819 730.272 752.955 732.384C752.123 734.464 751.707 736.736 751.707 739.2ZM789.136 726.24H797.776V756H801.856V726.24H810.496V722.4H789.136V726.24ZM817.209 722.4V756H821.289V722.4H817.209ZM819.465 726.24H826.329C828.505 726.24 830.265 726.768 831.609 727.824C832.985 728.848 833.673 730.4 833.673 732.48C833.673 734.528 832.985 736.08 831.609 737.136C830.265 738.192 828.505 738.72 826.329 738.72H819.465V742.56H826.329C828.505 742.56 830.441 742.16 832.137 741.36C833.865 740.528 835.225 739.36 836.217 737.856C837.241 736.32 837.753 734.528 837.753 732.48C837.753 730.4 837.241 728.608 836.217 727.104C835.225 725.6 833.865 724.448 832.137 723.648C830.441 722.816 828.505 722.4 826.329 722.4H819.465V726.24ZM867.732 722.4H863.172L852.996 744.768L855.54 744.96L845.652 722.4H840.612L851.7 746.064L847.38 756H851.94L867.732 722.4ZM884.332 729.984L893.692 754.56H898.012L884.332 720.72L870.652 754.56H874.972L884.332 729.984ZM897.772 756V761.28H901.372V752.16H867.292V761.28H870.892V756H897.772ZM912.024 739.68H935.064V735.84H912.024V739.68ZM932.328 722.4V756H936.408V722.4H932.328ZM909.768 722.4V756H913.848V722.4H909.768ZM975.761 726.96L976.001 720.72L946.721 751.44L946.481 757.68L975.761 726.96ZM950.561 722.4H946.481V757.68L950.561 752.4V722.4ZM976.001 720.72L971.921 726V756H976.001V720.72ZM986.099 722.4V756H990.179V722.4H986.099ZM1003.38 722.4L988.931 738.24L1004.1 756H1009.14L993.875 738.144L1008.42 722.4H1003.38ZM1018.86 745.92H1036.62L1035.18 742.08H1020.3L1018.86 745.92ZM1027.64 729.984L1033.4 743.52L1033.78 744.48L1038.68 756H1043.24L1027.64 720.72L1012.04 756H1016.6L1021.59 744.192L1021.98 743.328L1027.64 729.984ZM1068.77 739.68H1091.81V735.84H1068.77V739.68ZM1089.08 722.4V756H1093.16V722.4H1089.08ZM1066.52 722.4V756H1070.6V722.4H1066.52ZM1106.45 745.92H1124.21L1122.77 742.08H1107.89L1106.45 745.92ZM1115.23 729.984L1120.99 743.52L1121.37 744.48L1126.27 756H1130.83L1115.23 720.72L1099.63 756H1104.19L1109.18 744.192L1109.57 743.328L1115.23 729.984ZM1176.67 726.24V756H1180.75V722.4H1154.11V756H1158.19V726.24H1176.67ZM1190.82 722.4V756H1194.9V722.4H1190.82ZM1193.08 726.24H1199.94C1202.12 726.24 1203.88 726.768 1205.22 727.824C1206.6 728.848 1207.29 730.4 1207.29 732.48C1207.29 734.528 1206.6 736.08 1205.22 737.136C1203.88 738.192 1202.12 738.72 1199.94 738.72H1193.08V742.56H1199.94C1202.12 742.56 1204.05 742.16 1205.75 741.36C1207.48 740.528 1208.84 739.36 1209.83 737.856C1210.85 736.32 1211.37 734.528 1211.37 732.48C1211.37 730.4 1210.85 728.608 1209.83 727.104C1208.84 725.6 1207.48 724.448 1205.75 723.648C1204.05 722.816 1202.12 722.4 1199.94 722.4H1193.08V726.24ZM1221.77 756H1238.72V752.16H1221.77V756ZM1221.77 726.24H1238.72V722.4H1221.77V726.24ZM1221.77 739.68H1237.76V735.84H1221.77V739.68ZM1219.52 722.4V756H1223.6V722.4H1219.52ZM1263.43 729.984L1272.79 754.56H1277.11L1263.43 720.72L1249.75 754.56H1254.07L1263.43 729.984ZM1276.87 756V761.28H1280.47V752.16H1246.39V761.28H1249.99V756H1276.87ZM1311.43 726.24V756H1315.51V722.4H1288.87V756H1292.95V726.24H1311.43ZM1325.58 722.4V756H1329.66V722.4H1325.58ZM1327.83 726.24H1334.7C1336.87 726.24 1338.63 726.768 1339.98 727.824C1341.35 728.848 1342.04 730.4 1342.04 732.48C1342.04 734.528 1341.35 736.08 1339.98 737.136C1338.63 738.192 1336.87 738.72 1334.7 738.72H1327.83V742.56H1334.7C1336.87 742.56 1338.81 742.16 1340.51 741.36C1342.23 740.528 1343.59 739.36 1344.59 737.856C1345.61 736.32 1346.12 734.528 1346.12 732.48C1346.12 730.4 1345.61 728.608 1344.59 727.104C1343.59 725.6 1342.23 724.448 1340.51 723.648C1338.81 722.816 1336.87 722.4 1334.7 722.4H1327.83V726.24ZM1383.55 726.96L1383.79 720.72L1354.51 751.44L1354.27 757.68L1383.55 726.96ZM1358.35 722.4H1354.27V757.68L1358.35 752.4V722.4ZM1383.79 720.72L1379.71 726V756H1383.79V720.72ZM1407.09 739.44H1402.53L1390.53 756H1395.57L1407.09 739.44ZM1413.09 722.4H1409.01V756H1413.09V722.4ZM1410.84 726V722.4H1403.97C1401.83 722.4 1399.89 722.816 1398.17 723.648C1396.44 724.448 1395.06 725.6 1394.04 727.104C1393.05 728.608 1392.55 730.4 1392.55 732.48C1392.55 734.528 1393.05 736.32 1394.04 737.856C1395.06 739.36 1396.44 740.528 1398.17 741.36C1399.89 742.16 1401.83 742.56 1403.97 742.56H1410.84V738.96H1403.97C1402.53 738.96 1401.25 738.704 1400.13 738.192C1399.05 737.68 1398.18 736.944 1397.54 735.984C1396.93 735.024 1396.63 733.856 1396.63 732.48C1396.63 731.104 1396.93 729.936 1397.54 728.976C1398.18 728.016 1399.05 727.28 1400.13 726.768C1401.25 726.256 1402.53 726 1403.97 726H1410.84ZM1419.79 726.24H1428.43V756H1432.51V726.24H1441.15V722.4H1419.79V726.24ZM1477.15 726.96L1477.39 720.72L1448.11 751.44L1447.87 757.68L1477.15 726.96ZM1451.95 722.4H1447.87V757.68L1451.95 752.4V722.4ZM1477.39 720.72L1473.31 726V756H1477.39V720.72ZM1516.76 726.96L1517 720.72L1487.72 751.44L1487.48 757.68L1516.76 726.96ZM1491.56 722.4H1487.48V757.68L1491.56 752.4V722.4ZM1517 720.72L1512.92 726V756H1517V720.72Z" fill="#C0DDE1"/>
<path d="M1584.99 549.92C1587.46 549.92 1589.7 549.621 1591.71 549.024C1593.76 548.427 1595.5 547.616 1596.96 546.592C1598.41 545.525 1599.52 544.309 1600.28 542.944C1601.09 541.536 1601.5 540.043 1601.5 538.464C1601.5 536.331 1600.92 534.368 1599.77 532.576C1598.62 530.784 1596.98 529.333 1594.84 528.224C1592.71 527.115 1590.15 526.56 1587.16 526.56C1584.3 526.56 1581.77 527.072 1579.55 528.096C1577.37 529.077 1575.66 530.443 1574.43 532.192C1573.23 533.941 1572.64 535.989 1572.64 538.336H1577.82C1577.82 537.013 1578.22 535.84 1579.04 534.816C1579.85 533.792 1580.96 532.981 1582.36 532.384C1583.81 531.787 1585.44 531.488 1587.23 531.488C1589.15 531.488 1590.75 531.787 1592.03 532.384C1593.35 532.981 1594.33 533.835 1594.97 534.944C1595.61 536.011 1595.93 537.248 1595.93 538.656C1595.93 540.064 1595.5 541.365 1594.65 542.56C1593.8 543.712 1592.56 544.651 1590.94 545.376C1589.32 546.059 1587.33 546.4 1584.99 546.4V549.92ZM1586.91 572.64C1590.24 572.64 1593.07 572.128 1595.42 571.104C1597.81 570.08 1599.62 568.629 1600.86 566.752C1602.14 564.875 1602.78 562.677 1602.78 560.16C1602.78 557.173 1601.99 554.784 1600.41 552.992C1598.83 551.157 1596.7 549.813 1594.01 548.96C1591.32 548.107 1588.32 547.68 1584.99 547.68V551.2C1587.33 551.2 1589.42 551.52 1591.26 552.16C1593.09 552.757 1594.54 553.675 1595.61 554.912C1596.68 556.149 1597.21 557.685 1597.21 559.52C1597.21 561.952 1596.38 563.893 1594.72 565.344C1593.05 566.795 1590.45 567.52 1586.91 567.52C1584.56 567.52 1582.62 567.2 1581.08 566.56C1579.59 565.92 1578.44 565.045 1577.63 563.936C1576.86 562.827 1576.39 561.568 1576.22 560.16H1570.72C1570.72 561.909 1571.06 563.552 1571.74 565.088C1572.46 566.581 1573.51 567.904 1574.88 569.056C1576.24 570.165 1577.93 571.04 1579.93 571.68C1581.94 572.32 1584.26 572.64 1586.91 572.64ZM1617.36 558.56H1641.04L1639.12 553.44H1619.28L1617.36 558.56ZM1629.07 537.312L1636.75 555.36L1637.26 556.64L1643.79 572H1649.87L1629.07 524.96L1608.27 572H1614.35L1621.01 556.256L1621.52 555.104L1629.07 537.312ZM1680.62 537.312L1693.1 570.08H1698.86L1680.62 524.96L1662.38 570.08H1668.14L1680.62 537.312ZM1698.54 572V579.04H1703.34V566.88H1657.9V579.04H1662.7V572H1698.54ZM1720.76 558.56H1744.44L1742.52 553.44H1722.68L1720.76 558.56ZM1732.47 537.312L1740.15 555.36L1740.66 556.64L1747.19 572H1753.27L1732.47 524.96L1711.67 572H1717.75L1724.41 556.256L1724.92 555.104L1732.47 537.312ZM1775.36 554.08H1789.25V549.28H1775.36V554.08ZM1785.6 527.2V572H1791.04V527.2H1785.6ZM1767.04 527.2H1761.92V538.848C1761.92 541.707 1762.41 544.288 1763.39 546.592C1764.42 548.896 1765.93 550.731 1767.94 552.096C1769.94 553.419 1772.42 554.08 1775.36 554.08V549.28C1773.53 549.28 1771.99 548.811 1770.75 547.872C1769.51 546.933 1768.58 545.675 1767.94 544.096C1767.34 542.517 1767.04 540.768 1767.04 538.848V527.2ZM1843.54 533.28L1843.86 524.96L1804.82 565.92L1804.5 574.24L1843.54 533.28ZM1809.94 527.2H1804.5V574.24L1809.94 567.2V527.2ZM1843.86 524.96L1838.42 532V572H1843.86V524.96Z" fill="#EBF2EA"/>
<path d="M1793.3 121.5C1793.3 119.467 1793.5 117.6 1793.9 115.9C1794.3 114.167 1794.89 112.683 1795.65 111.45C1796.42 110.183 1797.34 109.217 1798.4 108.55C1799.5 107.85 1800.72 107.5 1802.05 107.5C1803.42 107.5 1804.64 107.85 1805.7 108.55C1806.77 109.217 1807.69 110.183 1808.45 111.45C1809.22 112.683 1809.8 114.167 1810.2 115.9C1810.6 117.6 1810.8 119.467 1810.8 121.5C1810.8 123.533 1810.6 125.417 1810.2 127.15C1809.8 128.85 1809.22 130.333 1808.45 131.6C1807.69 132.833 1806.77 133.8 1805.7 134.5C1804.64 135.167 1803.42 135.5 1802.05 135.5C1800.72 135.5 1799.5 135.167 1798.4 134.5C1797.34 133.8 1796.42 132.833 1795.65 131.6C1794.89 130.333 1794.3 128.85 1793.9 127.15C1793.5 125.417 1793.3 123.533 1793.3 121.5ZM1789.05 121.5C1789.05 125 1789.6 128.1 1790.7 130.8C1791.8 133.5 1793.32 135.633 1795.25 137.2C1797.22 138.733 1799.49 139.5 1802.05 139.5C1804.62 139.5 1806.87 138.733 1808.8 137.2C1810.77 135.633 1812.3 133.5 1813.4 130.8C1814.5 128.1 1815.05 125 1815.05 121.5C1815.05 118 1814.5 114.9 1813.4 112.2C1812.3 109.5 1810.77 107.383 1808.8 105.85C1806.87 104.283 1804.62 103.5 1802.05 103.5C1799.49 103.5 1797.22 104.283 1795.25 105.85C1793.32 107.383 1791.8 109.5 1790.7 112.2C1789.6 114.9 1789.05 118 1789.05 121.5ZM1820.53 139H1845.23V135H1829.28L1840.43 123.65C1841.8 122.25 1842.92 120.667 1843.78 118.9C1844.65 117.133 1845.08 115.35 1845.08 113.55C1845.08 112.483 1844.87 111.367 1844.43 110.2C1844 109.033 1843.33 107.95 1842.43 106.95C1841.53 105.917 1840.38 105.083 1838.98 104.45C1837.58 103.783 1835.92 103.45 1833.98 103.45C1831.58 103.45 1829.52 103.983 1827.78 105.05C1826.08 106.083 1824.78 107.55 1823.88 109.45C1822.98 111.317 1822.53 113.5 1822.53 116H1826.78C1826.78 114.233 1827.07 112.717 1827.63 111.45C1828.2 110.15 1829.02 109.167 1830.08 108.5C1831.18 107.8 1832.48 107.45 1833.98 107.45C1835.05 107.45 1836 107.633 1836.83 108C1837.67 108.367 1838.37 108.85 1838.93 109.45C1839.53 110.05 1839.98 110.717 1840.28 111.45C1840.58 112.183 1840.73 112.933 1840.73 113.7C1840.73 114.633 1840.58 115.533 1840.28 116.4C1840.02 117.233 1839.6 118.067 1839.03 118.9C1838.5 119.7 1837.85 120.517 1837.08 121.35L1820.53 139Z" fill="#D4DCA9"/>
<path d="M93.56 145.88V106.2H88.12V151H124.28V158.04H129.08V145.88H123.64V106.2H118.2V145.88H93.56ZM142.953 151H165.545V145.88H142.953V151ZM142.953 111.32H165.545V106.2H142.953V111.32ZM142.953 129.24H164.265V124.12H142.953V129.24ZM139.945 106.2V151H145.385V106.2H139.945ZM210.205 106.2H179.805V134.36C179.805 136.067 179.677 137.645 179.421 139.096C179.165 140.547 178.781 141.827 178.269 142.936C177.757 144.003 177.138 144.835 176.413 145.432C175.687 146.029 174.834 146.328 173.853 146.328V151C176.285 151 178.311 150.296 179.933 148.888C181.597 147.48 182.834 145.603 183.645 143.256C184.498 140.909 184.925 138.371 184.925 135.64V111.32H204.765V151H210.205V106.2ZM223.658 106.2V151H229.098V106.2H223.658ZM226.666 129.24H235.818C237.738 129.24 239.423 129.56 240.874 130.2C242.367 130.797 243.519 131.715 244.33 132.952C245.183 134.189 245.61 135.725 245.61 137.56C245.61 139.395 245.183 140.931 244.33 142.168C243.519 143.405 242.367 144.344 240.874 144.984C239.423 145.581 237.738 145.88 235.818 145.88H226.666V151H235.818C238.719 151 241.3 150.467 243.562 149.4C245.866 148.291 247.679 146.733 249.002 144.728C250.367 142.68 251.05 140.291 251.05 137.56C251.05 134.787 250.367 132.397 249.002 130.392C247.679 128.387 245.866 126.851 243.562 125.784C241.3 124.675 238.719 124.12 235.818 124.12H226.666V129.24Z" fill="#EBF2EA"/>
<path d="M89.24 299.2C89.24 296.576 89.816 294.288 90.968 292.336C92.152 290.352 93.688 288.8 95.576 287.68C97.464 286.56 99.512 286 101.72 286C103.32 286 104.776 286.208 106.088 286.624C107.432 287.04 108.648 287.632 109.736 288.4C110.824 289.136 111.752 290 112.52 290.992V285.616C111.112 284.368 109.576 283.44 107.912 282.832C106.248 282.224 104.184 281.92 101.72 281.92C99.384 281.92 97.192 282.352 95.144 283.216C93.128 284.048 91.352 285.248 89.816 286.816C88.28 288.352 87.08 290.176 86.216 292.288C85.352 294.4 84.92 296.704 84.92 299.2C84.92 301.696 85.352 304 86.216 306.112C87.08 308.224 88.28 310.064 89.816 311.632C91.352 313.168 93.128 314.368 95.144 315.232C97.192 316.064 99.384 316.48 101.72 316.48C104.184 316.48 106.248 316.176 107.912 315.568C109.576 314.96 111.112 314.032 112.52 312.784V307.408C111.752 308.4 110.824 309.28 109.736 310.048C108.648 310.784 107.432 311.36 106.088 311.776C104.776 312.192 103.32 312.4 101.72 312.4C99.512 312.4 97.464 311.84 95.576 310.72C93.688 309.6 92.152 308.048 90.968 306.064C89.816 304.08 89.24 301.792 89.24 299.2ZM124.499 299.2C124.499 296.672 125.043 294.416 126.131 292.432C127.251 290.448 128.771 288.88 130.691 287.728C132.611 286.576 134.787 286 137.219 286C139.683 286 141.859 286.576 143.747 287.728C145.667 288.88 147.171 290.448 148.259 292.432C149.379 294.416 149.939 296.672 149.939 299.2C149.939 301.728 149.379 303.984 148.259 305.968C147.171 307.952 145.667 309.52 143.747 310.672C141.859 311.824 139.683 312.4 137.219 312.4C134.787 312.4 132.611 311.824 130.691 310.672C128.771 309.52 127.251 307.952 126.131 305.968C125.043 303.984 124.499 301.728 124.499 299.2ZM120.179 299.2C120.179 301.632 120.595 303.904 121.427 306.016C122.291 308.128 123.491 309.968 125.027 311.536C126.563 313.072 128.371 314.288 130.451 315.184C132.531 316.048 134.787 316.48 137.219 316.48C139.683 316.48 141.939 316.048 143.987 315.184C146.067 314.288 147.875 313.072 149.411 311.536C150.947 309.968 152.131 308.128 152.963 306.016C153.827 303.904 154.259 301.632 154.259 299.2C154.259 296.736 153.827 294.464 152.963 292.384C152.131 290.272 150.947 288.448 149.411 286.912C147.875 285.344 146.067 284.128 143.987 283.264C141.939 282.368 139.683 281.92 137.219 281.92C134.787 281.92 132.531 282.368 130.451 283.264C128.371 284.128 126.563 285.344 125.027 286.912C123.491 288.448 122.291 290.272 121.427 292.384C120.595 294.464 120.179 296.736 120.179 299.2ZM162.421 282.4V316H166.501V282.4H162.421ZM179.701 282.4L165.253 298.24L180.421 316H185.461L170.197 298.144L184.741 282.4H179.701ZM191.962 282.4V316H196.042V282.4H191.962ZM194.218 286.24H201.082C203.258 286.24 205.018 286.768 206.362 287.824C207.738 288.848 208.426 290.4 208.426 292.48C208.426 294.528 207.738 296.08 206.362 297.136C205.018 298.192 203.258 298.72 201.082 298.72H194.218V302.56H201.082C203.258 302.56 205.194 302.16 206.89 301.36C208.618 300.528 209.978 299.36 210.97 297.856C211.994 296.32 212.506 294.528 212.506 292.48C212.506 290.4 211.994 288.608 210.97 287.104C209.978 285.6 208.618 284.448 206.89 283.648C205.194 282.816 203.258 282.4 201.082 282.4H194.218V286.24ZM220.5 305.92H238.26L236.82 302.08H221.94L220.5 305.92ZM229.284 289.984L235.044 303.52L235.428 304.48L240.324 316H244.884L229.284 280.72L213.684 316H218.244L223.236 304.192L223.62 303.328L229.284 289.984ZM286.891 312.16H273.211V282.4H269.131V312.16H255.451V282.4H251.371V316H291.451V321.28H295.051V312.16H290.971V282.4H286.891V312.16ZM305.48 316H322.424V312.16H305.48V316ZM305.48 286.24H322.424V282.4H305.48V286.24ZM305.48 299.68H321.464V295.84H305.48V299.68ZM303.224 282.4V316H307.304V282.4H303.224ZM334.271 299.68H357.311V295.84H334.271V299.68ZM354.575 282.4V316H358.655V282.4H354.575ZM332.015 282.4V316H336.095V282.4H332.015ZM398.008 286.96L398.248 280.72L368.968 311.44L368.728 317.68L398.008 286.96ZM372.808 282.4H368.728V317.68L372.808 312.4V282.4ZM398.248 280.72L394.168 286V316H398.248V280.72ZM410.602 316H427.546V312.16H410.602V316ZM410.602 286.24H427.546V282.4H410.602V286.24ZM410.602 299.68H426.586V295.84H410.602V299.68ZM408.346 282.4V316H412.426V282.4H408.346ZM456.327 299.2C456.327 296.672 456.871 294.416 457.959 292.432C459.079 290.448 460.599 288.88 462.519 287.728C464.439 286.576 466.615 286 469.047 286C471.511 286 473.687 286.576 475.575 287.728C477.495 288.88 478.999 290.448 480.087 292.432C481.207 294.416 481.767 296.672 481.767 299.2C481.767 301.728 481.207 303.984 480.087 305.968C478.999 307.952 477.495 309.52 475.575 310.672C473.687 311.824 471.511 312.4 469.047 312.4C466.615 312.4 464.439 311.824 462.519 310.672C460.599 309.52 459.079 307.952 457.959 305.968C456.871 303.984 456.327 301.728 456.327 299.2ZM452.007 299.2C452.007 301.632 452.423 303.904 453.255 306.016C454.119 308.128 455.319 309.968 456.855 311.536C458.391 313.072 460.199 314.288 462.279 315.184C464.359 316.048 466.615 316.48 469.047 316.48C471.511 316.48 473.767 316.048 475.815 315.184C477.895 314.288 479.703 313.072 481.239 311.536C482.775 309.968 483.959 308.128 484.791 306.016C485.655 303.904 486.087 301.632 486.087 299.2C486.087 296.736 485.655 294.464 484.791 292.384C483.959 290.272 482.775 288.448 481.239 286.912C479.703 285.344 477.895 284.128 475.815 283.264C473.767 282.368 471.511 281.92 469.047 281.92C466.615 281.92 464.359 282.368 462.279 283.264C460.199 284.128 458.391 285.344 456.855 286.912C455.319 288.448 454.119 290.272 453.255 292.384C452.423 294.464 452.007 296.736 452.007 299.2ZM516.809 286.24V316H520.889V282.4H494.249V316H498.329V286.24H516.809ZM533.218 316H550.162V312.16H533.218V316ZM533.218 286.24H550.162V282.4H533.218V286.24ZM533.218 299.68H549.202V295.84H533.218V299.68ZM530.962 282.4V316H535.042V282.4H530.962ZM559.753 282.4V316H563.833V282.4H559.753ZM562.009 286.24H568.873C571.049 286.24 572.809 286.768 574.153 287.824C575.529 288.848 576.217 290.4 576.217 292.48C576.217 294.528 575.529 296.08 574.153 297.136C572.809 298.192 571.049 298.72 568.873 298.72H562.009V302.56H568.873C571.049 302.56 572.985 302.16 574.681 301.36C576.409 300.528 577.769 299.36 578.761 297.856C579.785 296.32 580.297 294.528 580.297 292.48C580.297 290.4 579.785 288.608 578.761 287.104C577.769 285.6 576.409 284.448 574.681 283.648C572.985 282.816 571.049 282.4 568.873 282.4H562.009V286.24ZM588.29 305.92H606.05L604.61 302.08H589.73L588.29 305.92ZM597.074 289.984L602.834 303.52L603.218 304.48L608.114 316H612.674L597.074 280.72L581.474 316H586.034L591.026 304.192L591.41 303.328L597.074 289.984ZM623.242 312.16V282.4H619.162V316H646.282V321.28H649.882V312.16H645.802V282.4H641.722V312.16H623.242ZM687.311 286.96L687.551 280.72L658.271 311.44L658.031 317.68L687.311 286.96ZM662.111 282.4H658.031V317.68L662.111 312.4V282.4ZM687.551 280.72L683.471 286V316H687.551V280.72ZM700.049 299.2C700.049 296.672 700.593 294.416 701.681 292.432C702.801 290.448 704.321 288.88 706.241 287.728C708.161 286.576 710.337 286 712.769 286C715.233 286 717.409 286.576 719.297 287.728C721.217 288.88 722.721 290.448 723.809 292.432C724.929 294.416 725.489 296.672 725.489 299.2C725.489 301.728 724.929 303.984 723.809 305.968C722.721 307.952 721.217 309.52 719.297 310.672C717.409 311.824 715.233 312.4 712.769 312.4C710.337 312.4 708.161 311.824 706.241 310.672C704.321 309.52 702.801 307.952 701.681 305.968C700.593 303.984 700.049 301.728 700.049 299.2ZM695.729 299.2C695.729 301.632 696.145 303.904 696.977 306.016C697.841 308.128 699.041 309.968 700.577 311.536C702.113 313.072 703.921 314.288 706.001 315.184C708.081 316.048 710.337 316.48 712.769 316.48C715.233 316.48 717.489 316.048 719.537 315.184C721.617 314.288 723.425 313.072 724.961 311.536C726.497 309.968 727.681 308.128 728.513 306.016C729.377 303.904 729.809 301.632 729.809 299.2C729.809 296.736 729.377 294.464 728.513 292.384C727.681 290.272 726.497 288.448 724.961 286.912C723.425 285.344 721.617 284.128 719.537 283.264C717.489 282.368 715.233 281.92 712.769 281.92C710.337 281.92 708.081 282.368 706.001 283.264C703.921 284.128 702.113 285.344 700.577 286.912C699.041 288.448 697.841 290.272 696.977 292.384C696.145 294.464 695.729 296.736 695.729 299.2ZM740.227 299.68H763.267V295.84H740.227V299.68ZM760.531 282.4V316H764.611V282.4H760.531ZM737.971 282.4V316H742.051V282.4H737.971ZM776.94 299.68H799.98V295.84H776.94V299.68ZM797.244 282.4V316H801.324V282.4H797.244ZM774.684 282.4V316H778.764V282.4H774.684ZM836.356 282.4V316H840.436V282.4H836.356ZM811.396 282.4V316H815.476V282.4H811.396ZM813.652 299.68H820.516C821.956 299.68 823.22 299.92 824.308 300.4C825.428 300.848 826.292 301.536 826.9 302.464C827.54 303.392 827.86 304.544 827.86 305.92C827.86 307.296 827.54 308.448 826.9 309.376C826.292 310.304 825.428 311.008 824.308 311.488C823.22 311.936 821.956 312.16 820.516 312.16H813.652V316H820.516C822.692 316 824.628 315.6 826.324 314.8C828.052 313.968 829.412 312.8 830.404 311.296C831.428 309.76 831.94 307.968 831.94 305.92C831.94 303.84 831.428 302.048 830.404 300.544C829.412 299.04 828.052 297.888 826.324 297.088C824.628 296.256 822.692 295.84 820.516 295.84H813.652V299.68ZM867.299 282.4L860.147 294.832L853.139 282.4H848.339L858.083 298.384L847.139 316H851.939L860.099 301.936L868.019 316H872.819L862.163 298.384L872.099 282.4H867.299ZM925.595 286.96L925.835 280.72L896.555 311.44L896.315 317.68L925.595 286.96ZM900.395 282.4H896.315V317.68L900.395 312.4V282.4ZM925.835 280.72L921.755 286V316H925.835V280.72ZM945.678 299.44C947.534 299.44 949.214 299.216 950.718 298.768C952.254 298.32 953.566 297.712 954.654 296.944C955.742 296.144 956.574 295.232 957.15 294.208C957.758 293.152 958.062 292.032 958.062 290.848C958.062 289.248 957.63 287.776 956.766 286.432C955.902 285.088 954.67 284 953.07 283.168C951.47 282.336 949.55 281.92 947.31 281.92C945.166 281.92 943.262 282.304 941.598 283.072C939.966 283.808 938.686 284.832 937.758 286.144C936.862 287.456 936.414 288.992 936.414 290.752H940.302C940.302 289.76 940.606 288.88 941.214 288.112C941.822 287.344 942.654 286.736 943.71 286.288C944.798 285.84 946.014 285.616 947.358 285.616C948.798 285.616 949.998 285.84 950.958 286.288C951.95 286.736 952.686 287.376 953.166 288.208C953.646 289.008 953.886 289.936 953.886 290.992C953.886 292.048 953.566 293.024 952.926 293.92C952.286 294.784 951.358 295.488 950.142 296.032C948.926 296.544 947.438 296.8 945.678 296.8V299.44ZM947.118 316.48C949.614 316.48 951.742 316.096 953.502 315.328C955.294 314.56 956.654 313.472 957.582 312.064C958.542 310.656 959.022 309.008 959.022 307.12C959.022 304.88 958.43 303.088 957.246 301.744C956.062 300.368 954.462 299.36 952.446 298.72C950.43 298.08 948.174 297.76 945.678 297.76V300.4C947.438 300.4 949.006 300.64 950.382 301.12C951.758 301.568 952.846 302.256 953.646 303.184C954.446 304.112 954.846 305.264 954.846 306.64C954.846 308.464 954.222 309.92 952.974 311.008C951.726 312.096 949.774 312.64 947.118 312.64C945.358 312.64 943.902 312.4 942.75 311.92C941.63 311.44 940.766 310.784 940.158 309.952C939.582 309.12 939.23 308.176 939.102 307.12H934.974C934.974 308.432 935.23 309.664 935.742 310.816C936.286 311.936 937.07 312.928 938.094 313.792C939.118 314.624 940.382 315.28 941.886 315.76C943.39 316.24 945.134 316.48 947.118 316.48ZM981.86 289.984L991.22 314.56H995.54L981.86 280.72L968.18 314.56H972.5L981.86 289.984ZM995.3 316V321.28H998.9V312.16H964.82V321.28H968.42V316H995.3ZM1009.55 316H1026.5V312.16H1009.55V316ZM1009.55 286.24H1026.5V282.4H1009.55V286.24ZM1009.55 299.68H1025.54V295.84H1009.55V299.68ZM1007.3 282.4V316H1011.38V282.4H1007.3ZM1036.09 282.4V316H1040.17V282.4H1036.09ZM1038.34 286.24H1045.21C1047.38 286.24 1049.14 286.768 1050.49 287.824C1051.86 288.848 1052.55 290.4 1052.55 292.48C1052.55 294.528 1051.86 296.08 1050.49 297.136C1049.14 298.192 1047.38 298.72 1045.21 298.72H1038.34V302.56H1045.21C1047.38 302.56 1049.32 302.16 1051.01 301.36C1052.74 300.528 1054.1 299.36 1055.09 297.856C1056.12 296.32 1056.63 294.528 1056.63 292.48C1056.63 290.4 1056.12 288.608 1055.09 287.104C1054.1 285.6 1052.74 284.448 1051.01 283.648C1049.32 282.816 1047.38 282.4 1045.21 282.4H1038.34V286.24ZM1065.49 282.4H1060.45L1074.99 298.144L1059.73 316H1064.77L1079.94 298.24L1065.49 282.4ZM1079.17 282.4V316H1083.25V282.4H1079.17ZM1096.45 282.4L1082.48 298.24L1097.17 316H1102.21L1086.95 298.144L1101.49 282.4H1096.45ZM1110.92 316H1127.87V312.16H1110.92V316ZM1110.92 286.24H1127.87V282.4H1110.92V286.24ZM1110.92 299.68H1126.91V295.84H1110.92V299.68ZM1108.67 282.4V316H1112.75V282.4H1108.67ZM1137.46 282.4V316H1141.54V282.4H1137.46ZM1154.74 282.4L1140.29 298.24L1155.46 316H1160.5L1145.23 298.144L1159.78 282.4H1154.74ZM1213.07 286.96L1213.31 280.72L1184.03 311.44L1183.79 317.68L1213.07 286.96ZM1187.87 282.4H1183.79V317.68L1187.87 312.4V282.4ZM1213.31 280.72L1209.23 286V316H1213.31V280.72ZM1262.76 286.24V316H1266.84V282.4H1240.2V316H1244.28V286.24H1262.76ZM1279.31 299.2C1279.31 296.672 1279.86 294.416 1280.94 292.432C1282.06 290.448 1283.58 288.88 1285.5 287.728C1287.42 286.576 1289.6 286 1292.03 286C1294.5 286 1296.67 286.576 1298.56 287.728C1300.48 288.88 1301.98 290.448 1303.07 292.432C1304.19 294.416 1304.75 296.672 1304.75 299.2C1304.75 301.728 1304.19 303.984 1303.07 305.968C1301.98 307.952 1300.48 309.52 1298.56 310.672C1296.67 311.824 1294.5 312.4 1292.03 312.4C1289.6 312.4 1287.42 311.824 1285.5 310.672C1283.58 309.52 1282.06 307.952 1280.94 305.968C1279.86 303.984 1279.31 301.728 1279.31 299.2ZM1274.99 299.2C1274.99 301.632 1275.41 303.904 1276.24 306.016C1277.1 308.128 1278.3 309.968 1279.84 311.536C1281.38 313.072 1283.18 314.288 1285.26 315.184C1287.34 316.048 1289.6 316.48 1292.03 316.48C1294.5 316.48 1296.75 316.048 1298.8 315.184C1300.88 314.288 1302.69 313.072 1304.22 311.536C1305.76 309.968 1306.94 308.128 1307.78 306.016C1308.64 303.904 1309.07 301.632 1309.07 299.2C1309.07 296.736 1308.64 294.464 1307.78 292.384C1306.94 290.272 1305.76 288.448 1304.22 286.912C1302.69 285.344 1300.88 284.128 1298.8 283.264C1296.75 282.368 1294.5 281.92 1292.03 281.92C1289.6 281.92 1287.34 282.368 1285.26 283.264C1283.18 284.128 1281.38 285.344 1279.84 286.912C1278.3 288.448 1277.1 290.272 1276.24 292.384C1275.41 294.464 1274.99 296.736 1274.99 299.2ZM1320.45 298.24H1325.87C1327.89 298.24 1329.63 297.952 1331.11 297.376C1332.61 296.8 1333.78 295.952 1334.61 294.832C1335.44 293.712 1335.86 292.368 1335.86 290.8C1335.86 288.88 1335.44 287.312 1334.61 286.096C1333.78 284.848 1332.61 283.92 1331.11 283.312C1329.63 282.704 1327.89 282.4 1325.87 282.4H1317.23V316H1326.35C1328.53 316 1330.47 315.648 1332.16 314.944C1333.89 314.208 1335.25 313.12 1336.24 311.68C1337.27 310.208 1337.78 308.368 1337.78 306.16C1337.78 304.624 1337.49 303.296 1336.91 302.176C1336.34 301.056 1335.52 300.144 1334.47 299.44C1333.44 298.704 1332.24 298.16 1330.87 297.808C1329.49 297.456 1327.99 297.28 1326.35 297.28H1320.45V299.536H1326.35C1327.44 299.536 1328.43 299.68 1329.33 299.968C1330.23 300.224 1330.99 300.624 1331.63 301.168C1332.31 301.712 1332.82 302.384 1333.17 303.184C1333.52 303.984 1333.7 304.896 1333.7 305.92C1333.7 307.296 1333.38 308.464 1332.74 309.424C1332.13 310.384 1331.27 311.12 1330.15 311.632C1329.06 312.144 1327.79 312.4 1326.35 312.4H1321.31V286H1325.87C1327.57 286 1328.98 286.448 1330.1 287.344C1331.22 288.208 1331.78 289.44 1331.78 291.04C1331.78 292.096 1331.52 292.992 1331.01 293.728C1330.5 294.464 1329.79 295.024 1328.9 295.408C1328 295.792 1326.99 295.984 1325.87 295.984H1320.45V298.24ZM1371.36 282.4V316H1375.44V282.4H1371.36ZM1346.4 282.4V316H1350.48V282.4H1346.4ZM1348.66 299.68H1355.52C1356.96 299.68 1358.22 299.92 1359.31 300.4C1360.43 300.848 1361.3 301.536 1361.9 302.464C1362.54 303.392 1362.86 304.544 1362.86 305.92C1362.86 307.296 1362.54 308.448 1361.9 309.376C1361.3 310.304 1360.43 311.008 1359.31 311.488C1358.22 311.936 1356.96 312.16 1355.52 312.16H1348.66V316H1355.52C1357.7 316 1359.63 315.6 1361.33 314.8C1363.06 313.968 1364.42 312.8 1365.41 311.296C1366.43 309.76 1366.94 307.968 1366.94 305.92C1366.94 303.84 1366.43 302.048 1365.41 300.544C1364.42 299.04 1363.06 297.888 1361.33 297.088C1359.63 296.256 1357.7 295.84 1355.52 295.84H1348.66V299.68ZM1421.02 312.16H1407.34V282.4H1403.26V312.16H1389.58V282.4H1385.5V316H1425.1V282.4H1421.02V312.16ZM1437.46 316H1454.4V312.16H1437.46V316ZM1437.46 286.24H1454.4V282.4H1437.46V286.24ZM1437.46 299.68H1453.44V295.84H1437.46V299.68ZM1435.2 282.4V316H1439.28V282.4H1435.2ZM1466.25 299.68H1489.29V295.84H1466.25V299.68ZM1486.55 282.4V316H1490.63V282.4H1486.55ZM1463.99 282.4V316H1468.07V282.4H1463.99ZM1529.98 286.96L1530.22 280.72L1500.94 311.44L1500.7 317.68L1529.98 286.96ZM1504.78 282.4H1500.7V317.68L1504.78 312.4V282.4ZM1530.22 280.72L1526.14 286V316H1530.22V280.72ZM1542.58 316H1559.52V312.16H1542.58V316ZM1542.58 286.24H1559.52V282.4H1542.58V286.24ZM1542.58 299.68H1558.56V295.84H1542.58V299.68ZM1540.32 282.4V316H1544.4V282.4H1540.32ZM89.336 349.12H109.64V345.28H89.336V349.12ZM109.64 347.2C109.64 349.792 109.064 352.08 107.912 354.064C106.76 356.048 105.224 357.6 103.304 358.72C101.416 359.84 99.368 360.4 97.16 360.4C95.592 360.4 94.136 360.192 92.792 359.776C91.448 359.36 90.232 358.784 89.144 358.048C88.088 357.28 87.16 356.4 86.36 355.408V360.784C87.768 362.032 89.304 362.96 90.968 363.568C92.664 364.176 94.728 364.48 97.16 364.48C99.496 364.48 101.672 364.064 103.688 363.232C105.736 362.368 107.528 361.168 109.064 359.632C110.6 358.064 111.8 356.224 112.664 354.112C113.528 352 113.96 349.696 113.96 347.2C113.96 344.704 113.528 342.4 112.664 340.288C111.8 338.176 110.6 336.352 109.064 334.816C107.528 333.248 105.736 332.048 103.688 331.216C101.672 330.352 99.496 329.92 97.16 329.92C94.728 329.92 92.664 330.224 90.968 330.832C89.304 331.44 87.768 332.368 86.36 333.616V338.992C87.16 338 88.088 337.136 89.144 336.4C90.232 335.632 91.448 335.04 92.792 334.624C94.136 334.208 95.592 334 97.16 334C99.368 334 101.416 334.56 103.304 335.68C105.224 336.8 106.76 338.352 107.912 340.336C109.064 342.288 109.64 344.576 109.64 347.2ZM135.011 330.4V364H139.091V330.4H135.011ZM149.843 347.2C149.843 349.152 149.363 350.8 148.403 352.144C147.443 353.456 146.115 354.448 144.419 355.12C142.723 355.76 140.771 356.08 138.563 356.08H135.539C133.331 356.08 131.379 355.76 129.683 355.12C127.987 354.448 126.659 353.456 125.699 352.144C124.739 350.8 124.259 349.152 124.259 347.2C124.259 345.216 124.739 343.568 125.699 342.256C126.659 340.944 127.987 339.968 129.683 339.328C131.379 338.656 133.331 338.32 135.539 338.32H138.563C140.771 338.32 142.723 338.656 144.419 339.328C146.115 339.968 147.443 340.944 148.403 342.256C149.363 343.568 149.843 345.216 149.843 347.2ZM153.923 347.2C153.923 344.48 153.251 342.16 151.907 340.24C150.595 338.32 148.771 336.848 146.435 335.824C144.131 334.768 141.507 334.24 138.563 334.24H135.539C132.595 334.24 129.955 334.768 127.619 335.824C125.315 336.848 123.491 338.32 122.147 340.24C120.835 342.16 120.179 344.48 120.179 347.2C120.179 349.888 120.835 352.208 122.147 354.16C123.491 356.08 125.315 357.568 127.619 358.624C129.955 359.648 132.595 360.16 135.539 360.16H138.563C141.507 360.16 144.131 359.648 146.435 358.624C148.771 357.568 150.595 356.08 151.907 354.16C153.251 352.208 153.923 349.888 153.923 347.2ZM175.005 330.4V364H179.085V330.4H175.005ZM189.837 347.2C189.837 349.152 189.357 350.8 188.397 352.144C187.437 353.456 186.109 354.448 184.413 355.12C182.717 355.76 180.765 356.08 178.557 356.08H175.533C173.325 356.08 171.373 355.76 169.677 355.12C167.981 354.448 166.653 353.456 165.693 352.144C164.733 350.8 164.253 349.152 164.253 347.2C164.253 345.216 164.733 343.568 165.693 342.256C166.653 340.944 167.981 339.968 169.677 339.328C171.373 338.656 173.325 338.32 175.533 338.32H178.557C180.765 338.32 182.717 338.656 184.413 339.328C186.109 339.968 187.437 340.944 188.397 342.256C189.357 343.568 189.837 345.216 189.837 347.2ZM193.917 347.2C193.917 344.48 193.245 342.16 191.901 340.24C190.589 338.32 188.765 336.848 186.429 335.824C184.125 334.768 181.501 334.24 178.557 334.24H175.533C172.589 334.24 169.949 334.768 167.613 335.824C165.309 336.848 163.485 338.32 162.141 340.24C160.829 342.16 160.173 344.48 160.173 347.2C160.173 349.888 160.829 352.208 162.141 354.16C163.485 356.08 165.309 357.568 167.613 358.624C169.949 359.648 172.589 360.16 175.533 360.16H178.557C181.501 360.16 184.125 359.648 186.429 358.624C188.765 357.568 190.589 356.08 191.901 354.16C193.245 352.208 193.917 349.888 193.917 347.2ZM204.343 364H221.287V360.16H204.343V364ZM204.343 334.24H221.287V330.4H204.343V334.24ZM204.343 347.68H220.327V343.84H204.343V347.68ZM202.087 330.4V364H206.167V330.4H202.087ZM230.878 330.4V364H234.958V330.4H230.878ZM248.158 330.4L233.71 346.24L248.878 364H253.918L238.654 346.144L253.198 330.4H248.158ZM258.511 334.24H267.151V364H271.231V334.24H279.871V330.4H258.511V334.24ZM315.864 334.96L316.104 328.72L286.824 359.44L286.584 365.68L315.864 334.96ZM290.664 330.4H286.584V365.68L290.664 360.4V330.4ZM316.104 328.72L312.024 334V364H316.104V328.72ZM329.419 346.24H334.843C336.859 346.24 338.603 345.952 340.075 345.376C341.579 344.8 342.747 343.952 343.579 342.832C344.411 341.712 344.827 340.368 344.827 338.8C344.827 336.88 344.411 335.312 343.579 334.096C342.747 332.848 341.579 331.92 340.075 331.312C338.603 330.704 336.859 330.4 334.843 330.4H326.203V364H335.323C337.499 364 339.435 363.648 341.131 362.944C342.859 362.208 344.219 361.12 345.211 359.68C346.235 358.208 346.747 356.368 346.747 354.16C346.747 352.624 346.459 351.296 345.883 350.176C345.307 349.056 344.491 348.144 343.435 347.44C342.411 346.704 341.211 346.16 339.835 345.808C338.459 345.456 336.955 345.28 335.323 345.28H329.419V347.536H335.323C336.411 347.536 337.403 347.68 338.299 347.968C339.195 348.224 339.963 348.624 340.603 349.168C341.275 349.712 341.787 350.384 342.139 351.184C342.491 351.984 342.667 352.896 342.667 353.92C342.667 355.296 342.347 356.464 341.707 357.424C341.099 358.384 340.235 359.12 339.115 359.632C338.027 360.144 336.763 360.4 335.323 360.4H330.283V334H334.843C336.539 334 337.947 334.448 339.067 335.344C340.187 336.208 340.747 337.44 340.747 339.04C340.747 340.096 340.491 340.992 339.979 341.728C339.467 342.464 338.763 343.024 337.867 343.408C336.971 343.792 335.963 343.984 334.843 343.984H329.419V346.24ZM357.624 347.68H380.664V343.84H357.624V347.68ZM377.928 330.4V364H382.008V330.4H377.928ZM355.368 330.4V364H359.448V330.4H355.368ZM394.481 347.2C394.481 344.672 395.025 342.416 396.113 340.432C397.233 338.448 398.753 336.88 400.673 335.728C402.593 334.576 404.769 334 407.201 334C409.665 334 411.841 334.576 413.729 335.728C415.649 336.88 417.153 338.448 418.241 340.432C419.361 342.416 419.921 344.672 419.921 347.2C419.921 349.728 419.361 351.984 418.241 353.968C417.153 355.952 415.649 357.52 413.729 358.672C411.841 359.824 409.665 360.4 407.201 360.4C404.769 360.4 402.593 359.824 400.673 358.672C398.753 357.52 397.233 355.952 396.113 353.968C395.025 351.984 394.481 349.728 394.481 347.2ZM390.161 347.2C390.161 349.632 390.577 351.904 391.409 354.016C392.273 356.128 393.473 357.968 395.009 359.536C396.545 361.072 398.353 362.288 400.433 363.184C402.513 364.048 404.769 364.48 407.201 364.48C409.665 364.48 411.921 364.048 413.969 363.184C416.049 362.288 417.857 361.072 419.393 359.536C420.929 357.968 422.113 356.128 422.945 354.016C423.809 351.904 424.241 349.632 424.241 347.2C424.241 344.736 423.809 342.464 422.945 340.384C422.113 338.272 420.929 336.448 419.393 334.912C417.857 333.344 416.049 332.128 413.969 331.264C411.921 330.368 409.665 329.92 407.201 329.92C404.769 329.92 402.513 330.368 400.433 331.264C398.353 332.128 396.545 333.344 395.009 334.912C393.473 336.448 392.273 338.272 391.409 340.384C390.577 342.464 390.161 344.736 390.161 347.2ZM434.803 347.2C434.803 344.576 435.379 342.288 436.531 340.336C437.715 338.352 439.251 336.8 441.139 335.68C443.027 334.56 445.075 334 447.283 334C448.883 334 450.339 334.208 451.651 334.624C452.995 335.04 454.211 335.632 455.299 336.4C456.387 337.136 457.315 338 458.083 338.992V333.616C456.675 332.368 455.139 331.44 453.475 330.832C451.811 330.224 449.747 329.92 447.283 329.92C444.947 329.92 442.755 330.352 440.707 331.216C438.691 332.048 436.915 333.248 435.379 334.816C433.843 336.352 432.643 338.176 431.779 340.288C430.915 342.4 430.483 344.704 430.483 347.2C430.483 349.696 430.915 352 431.779 354.112C432.643 356.224 433.843 358.064 435.379 359.632C436.915 361.168 438.691 362.368 440.707 363.232C442.755 364.064 444.947 364.48 447.283 364.48C449.747 364.48 451.811 364.176 453.475 363.568C455.139 362.96 456.675 362.032 458.083 360.784V355.408C457.315 356.4 456.387 357.28 455.299 358.048C454.211 358.784 452.995 359.36 451.651 359.776C450.339 360.192 448.883 360.4 447.283 360.4C445.075 360.4 443.027 359.84 441.139 358.72C439.251 357.6 437.715 356.048 436.531 354.064C435.379 352.08 434.803 349.792 434.803 347.2ZM462.849 334.24H471.489V364H475.569V334.24H484.209V330.4H462.849V334.24ZM520.201 334.96L520.441 328.72L491.161 359.44L490.921 365.68L520.201 334.96ZM495.001 330.4H490.921V365.68L495.001 360.4V330.4ZM520.441 328.72L516.361 334V364H520.441V328.72ZM569.891 334.24V364H573.971V330.4H547.331V364H551.411V334.24H569.891ZM584.043 330.4V364H588.123V330.4H584.043ZM586.299 334.24H593.163C595.339 334.24 597.099 334.768 598.443 335.824C599.819 336.848 600.507 338.4 600.507 340.48C600.507 342.528 599.819 344.08 598.443 345.136C597.099 346.192 595.339 346.72 593.163 346.72H586.299V350.56H593.163C595.339 350.56 597.275 350.16 598.971 349.36C600.699 348.528 602.059 347.36 603.051 345.856C604.075 344.32 604.587 342.528 604.587 340.48C604.587 338.4 604.075 336.608 603.051 335.104C602.059 333.6 600.699 332.448 598.971 331.648C597.275 330.816 595.339 330.4 593.163 330.4H586.299V334.24ZM615.14 347.2C615.14 344.672 615.684 342.416 616.772 340.432C617.892 338.448 619.412 336.88 621.332 335.728C623.252 334.576 625.428 334 627.86 334C630.324 334 632.5 334.576 634.388 335.728C636.308 336.88 637.812 338.448 638.9 340.432C640.02 342.416 640.58 344.672 640.58 347.2C640.58 349.728 640.02 351.984 638.9 353.968C637.812 355.952 636.308 357.52 634.388 358.672C632.5 359.824 630.324 360.4 627.86 360.4C625.428 360.4 623.252 359.824 621.332 358.672C619.412 357.52 617.892 355.952 616.772 353.968C615.684 351.984 615.14 349.728 615.14 347.2ZM610.82 347.2C610.82 349.632 611.236 351.904 612.068 354.016C612.932 356.128 614.132 357.968 615.668 359.536C617.204 361.072 619.012 362.288 621.092 363.184C623.172 364.048 625.428 364.48 627.86 364.48C630.324 364.48 632.58 364.048 634.628 363.184C636.708 362.288 638.516 361.072 640.052 359.536C641.588 357.968 642.772 356.128 643.604 354.016C644.468 351.904 644.9 349.632 644.9 347.2C644.9 344.736 644.468 342.464 643.604 340.384C642.772 338.272 641.588 336.448 640.052 334.912C638.516 333.344 636.708 332.128 634.628 331.264C632.58 330.368 630.324 329.92 627.86 329.92C625.428 329.92 623.172 330.368 621.092 331.264C619.012 332.128 617.204 333.344 615.668 334.912C614.132 336.448 612.932 338.272 612.068 340.384C611.236 342.464 610.82 344.736 610.82 347.2ZM657.142 360.16V330.4H653.062V364H680.182V369.28H683.782V360.16H679.702V330.4H675.622V360.16H657.142ZM694.187 364H711.131V360.16H694.187V364ZM694.187 334.24H711.131V330.4H694.187V334.24ZM694.187 347.68H710.171V343.84H694.187V347.68ZM691.931 330.4V364H696.011V330.4H691.931ZM723.121 347.2C723.121 344.576 723.697 342.288 724.849 340.336C726.033 338.352 727.569 336.8 729.457 335.68C731.345 334.56 733.393 334 735.601 334C737.201 334 738.657 334.208 739.969 334.624C741.313 335.04 742.529 335.632 743.617 336.4C744.705 337.136 745.633 338 746.401 338.992V333.616C744.993 332.368 743.457 331.44 741.793 330.832C740.129 330.224 738.065 329.92 735.601 329.92C733.265 329.92 731.073 330.352 729.025 331.216C727.009 332.048 725.233 333.248 723.697 334.816C722.161 336.352 720.961 338.176 720.097 340.288C719.233 342.4 718.801 344.704 718.801 347.2C718.801 349.696 719.233 352 720.097 354.112C720.961 356.224 722.161 358.064 723.697 359.632C725.233 361.168 727.009 362.368 729.025 363.232C731.073 364.064 733.265 364.48 735.601 364.48C738.065 364.48 740.129 364.176 741.793 363.568C743.457 362.96 744.993 362.032 746.401 360.784V355.408C745.633 356.4 744.705 357.28 743.617 358.048C742.529 358.784 741.313 359.36 739.969 359.776C738.657 360.192 737.201 360.4 735.601 360.4C733.393 360.4 731.345 359.84 729.457 358.72C727.569 357.6 726.033 356.048 724.849 354.064C723.697 352.08 723.121 349.792 723.121 347.2ZM758.381 347.2C758.381 344.576 758.957 342.288 760.109 340.336C761.293 338.352 762.829 336.8 764.717 335.68C766.605 334.56 768.653 334 770.861 334C772.461 334 773.917 334.208 775.229 334.624C776.573 335.04 777.789 335.632 778.877 336.4C779.965 337.136 780.893 338 781.661 338.992V333.616C780.253 332.368 778.717 331.44 777.053 330.832C775.389 330.224 773.325 329.92 770.861 329.92C768.525 329.92 766.333 330.352 764.285 331.216C762.269 332.048 760.493 333.248 758.957 334.816C757.421 336.352 756.221 338.176 755.357 340.288C754.493 342.4 754.061 344.704 754.061 347.2C754.061 349.696 754.493 352 755.357 354.112C756.221 356.224 757.421 358.064 758.957 359.632C760.493 361.168 762.269 362.368 764.285 363.232C766.333 364.064 768.525 364.48 770.861 364.48C773.325 364.48 775.389 364.176 777.053 363.568C778.717 362.96 780.253 362.032 781.661 360.784V355.408C780.893 356.4 779.965 357.28 778.877 358.048C777.789 358.784 776.573 359.36 775.229 359.776C773.917 360.192 772.461 360.4 770.861 360.4C768.653 360.4 766.605 359.84 764.717 358.72C762.829 357.6 761.293 356.048 760.109 354.064C758.957 352.08 758.381 349.792 758.381 347.2ZM793.64 347.2C793.64 344.672 794.184 342.416 795.272 340.432C796.392 338.448 797.912 336.88 799.832 335.728C801.752 334.576 803.928 334 806.36 334C808.824 334 811 334.576 812.888 335.728C814.808 336.88 816.312 338.448 817.4 340.432C818.52 342.416 819.08 344.672 819.08 347.2C819.08 349.728 818.52 351.984 817.4 353.968C816.312 355.952 814.808 357.52 812.888 358.672C811 359.824 808.824 360.4 806.36 360.4C803.928 360.4 801.752 359.824 799.832 358.672C797.912 357.52 796.392 355.952 795.272 353.968C794.184 351.984 793.64 349.728 793.64 347.2ZM789.32 347.2C789.32 349.632 789.736 351.904 790.568 354.016C791.432 356.128 792.632 357.968 794.168 359.536C795.704 361.072 797.512 362.288 799.592 363.184C801.672 364.048 803.928 364.48 806.36 364.48C808.824 364.48 811.08 364.048 813.128 363.184C815.208 362.288 817.016 361.072 818.552 359.536C820.088 357.968 821.272 356.128 822.104 354.016C822.968 351.904 823.4 349.632 823.4 347.2C823.4 344.736 822.968 342.464 822.104 340.384C821.272 338.272 820.088 336.448 818.552 334.912C817.016 333.344 815.208 332.128 813.128 331.264C811.08 330.368 808.824 329.92 806.36 329.92C803.928 329.92 801.672 330.368 799.592 331.264C797.512 332.128 795.704 333.344 794.168 334.912C792.632 336.448 791.432 338.272 790.568 340.384C789.736 342.464 789.32 344.736 789.32 347.2ZM834.778 346.24H840.202C842.218 346.24 843.962 345.952 845.434 345.376C846.938 344.8 848.106 343.952 848.938 342.832C849.77 341.712 850.186 340.368 850.186 338.8C850.186 336.88 849.77 335.312 848.938 334.096C848.106 332.848 846.938 331.92 845.434 331.312C843.962 330.704 842.218 330.4 840.202 330.4H831.562V364H840.682C842.858 364 844.794 363.648 846.49 362.944C848.218 362.208 849.578 361.12 850.57 359.68C851.594 358.208 852.106 356.368 852.106 354.16C852.106 352.624 851.818 351.296 851.242 350.176C850.666 349.056 849.85 348.144 848.794 347.44C847.77 346.704 846.57 346.16 845.194 345.808C843.818 345.456 842.314 345.28 840.682 345.28H834.778V347.536H840.682C841.77 347.536 842.762 347.68 843.658 347.968C844.554 348.224 845.322 348.624 845.962 349.168C846.634 349.712 847.146 350.384 847.498 351.184C847.85 351.984 848.026 352.896 848.026 353.92C848.026 355.296 847.706 356.464 847.066 357.424C846.458 358.384 845.594 359.12 844.474 359.632C843.386 360.144 842.122 360.4 840.682 360.4H835.642V334H840.202C841.898 334 843.306 334.448 844.426 335.344C845.546 336.208 846.106 337.44 846.106 339.04C846.106 340.096 845.85 340.992 845.338 341.728C844.826 342.464 844.122 343.024 843.226 343.408C842.33 343.792 841.322 343.984 840.202 343.984H834.778V346.24ZM900.798 330.4H896.238L886.062 352.768L888.606 352.96L878.718 330.4H873.678L884.766 354.064L880.446 364H885.006L900.798 330.4ZM929.619 334.24V364H933.699V330.4H907.059V364H911.139V334.24H929.619ZM943.771 330.4V364H947.851V330.4H943.771ZM946.027 334.24H952.891C955.067 334.24 956.827 334.768 958.171 335.824C959.547 336.848 960.235 338.4 960.235 340.48C960.235 342.528 959.547 344.08 958.171 345.136C956.827 346.192 955.067 346.72 952.891 346.72H946.027V350.56H952.891C955.067 350.56 957.003 350.16 958.699 349.36C960.427 348.528 961.787 347.36 962.779 345.856C963.803 344.32 964.315 342.528 964.315 340.48C964.315 338.4 963.803 336.608 962.779 335.104C961.787 333.6 960.427 332.448 958.699 331.648C957.003 330.816 955.067 330.4 952.891 330.4H946.027V334.24ZM972.309 353.92H990.069L988.629 350.08H973.749L972.309 353.92ZM981.093 337.984L986.853 351.52L987.237 352.48L992.133 364H996.693L981.093 328.72L965.493 364H970.053L975.045 352.192L975.429 351.328L981.093 337.984ZM1006.4 346.24H1011.82C1013.84 346.24 1015.58 345.952 1017.05 345.376C1018.56 344.8 1019.72 343.952 1020.56 342.832C1021.39 341.712 1021.8 340.368 1021.8 338.8C1021.8 336.88 1021.39 335.312 1020.56 334.096C1019.72 332.848 1018.56 331.92 1017.05 331.312C1015.58 330.704 1013.84 330.4 1011.82 330.4H1003.18V364H1012.3C1014.48 364 1016.41 363.648 1018.11 362.944C1019.84 362.208 1021.2 361.12 1022.19 359.68C1023.21 358.208 1023.72 356.368 1023.72 354.16C1023.72 352.624 1023.44 351.296 1022.86 350.176C1022.28 349.056 1021.47 348.144 1020.41 347.44C1019.39 346.704 1018.19 346.16 1016.81 345.808C1015.44 345.456 1013.93 345.28 1012.3 345.28H1006.4V347.536H1012.3C1013.39 347.536 1014.38 347.68 1015.28 347.968C1016.17 348.224 1016.94 348.624 1017.58 349.168C1018.25 349.712 1018.76 350.384 1019.12 351.184C1019.47 351.984 1019.64 352.896 1019.64 353.92C1019.64 355.296 1019.32 356.464 1018.68 357.424C1018.08 358.384 1017.21 359.12 1016.09 359.632C1015 360.144 1013.74 360.4 1012.3 360.4H1007.26V334H1011.82C1013.52 334 1014.92 334.448 1016.04 335.344C1017.16 336.208 1017.72 337.44 1017.72 339.04C1017.72 340.096 1017.47 340.992 1016.96 341.728C1016.44 342.464 1015.74 343.024 1014.84 343.408C1013.95 343.792 1012.94 343.984 1011.82 343.984H1006.4V346.24ZM1056.25 330.4H1033.45V351.52C1033.45 352.8 1033.35 353.984 1033.16 355.072C1032.97 356.16 1032.68 357.12 1032.3 357.952C1031.91 358.752 1031.45 359.376 1030.91 359.824C1030.36 360.272 1029.72 360.496 1028.99 360.496V364C1030.81 364 1032.33 363.472 1033.55 362.416C1034.79 361.36 1035.72 359.952 1036.33 358.192C1036.97 356.432 1037.29 354.528 1037.29 352.48V334.24H1052.17V364H1056.25V330.4ZM1068.6 364H1085.54V360.16H1068.6V364ZM1068.6 334.24H1085.54V330.4H1068.6V334.24ZM1068.6 347.68H1084.58V343.84H1068.6V347.68ZM1066.34 330.4V364H1070.42V330.4H1066.34ZM1097.39 347.68H1120.43V343.84H1097.39V347.68ZM1117.69 330.4V364H1121.77V330.4H1117.69ZM1095.13 330.4V364H1099.21V330.4H1095.13ZM1161.12 334.96L1161.36 328.72L1132.08 359.44L1131.84 365.68L1161.12 334.96ZM1135.92 330.4H1131.84V365.68L1135.92 360.4V330.4ZM1161.36 328.72L1157.28 334V364H1161.36V328.72ZM1184.66 347.44H1180.1L1168.1 364H1173.14L1184.66 347.44ZM1190.66 330.4H1186.58V364H1190.66V330.4ZM1188.41 334V330.4H1181.54C1179.4 330.4 1177.46 330.816 1175.73 331.648C1174.01 332.448 1172.63 333.6 1171.61 335.104C1170.61 336.608 1170.12 338.4 1170.12 340.48C1170.12 342.528 1170.61 344.32 1171.61 345.856C1172.63 347.36 1174.01 348.528 1175.73 349.36C1177.46 350.16 1179.4 350.56 1181.54 350.56H1188.41V346.96H1181.54C1180.1 346.96 1178.82 346.704 1177.7 346.192C1176.61 345.68 1175.75 344.944 1175.11 343.984C1174.5 343.024 1174.2 341.856 1174.2 340.48C1174.2 339.104 1174.5 337.936 1175.11 336.976C1175.75 336.016 1176.61 335.28 1177.7 334.768C1178.82 334.256 1180.1 334 1181.54 334H1188.41ZM1240.07 334.24V364H1244.15V330.4H1217.51V364H1221.59V334.24H1240.07ZM1256.48 364H1273.42V360.16H1256.48V364ZM1256.48 334.24H1273.42V330.4H1256.48V334.24ZM1256.48 347.68H1272.46V343.84H1256.48V347.68ZM1254.22 330.4V364H1258.3V330.4H1254.22ZM1283.02 330.4V364H1287.1V330.4H1283.02ZM1285.27 334.24H1292.14C1294.31 334.24 1296.07 334.768 1297.42 335.824C1298.79 336.848 1299.48 338.4 1299.48 340.48C1299.48 342.528 1298.79 344.08 1297.42 345.136C1296.07 346.192 1294.31 346.72 1292.14 346.72H1285.27V350.56H1292.14C1294.31 350.56 1296.25 350.16 1297.94 349.36C1299.67 348.528 1301.03 347.36 1302.02 345.856C1303.05 344.32 1303.56 342.528 1303.56 340.48C1303.56 338.4 1303.05 336.608 1302.02 335.104C1301.03 333.6 1299.67 332.448 1297.94 331.648C1296.25 330.816 1294.31 330.4 1292.14 330.4H1285.27V334.24ZM1314.11 347.2C1314.11 344.576 1314.69 342.288 1315.84 340.336C1317.02 338.352 1318.56 336.8 1320.45 335.68C1322.34 334.56 1324.38 334 1326.59 334C1328.19 334 1329.65 334.208 1330.96 334.624C1332.3 335.04 1333.52 335.632 1334.61 336.4C1335.7 337.136 1336.62 338 1337.39 338.992V333.616C1335.98 332.368 1334.45 331.44 1332.78 330.832C1331.12 330.224 1329.06 329.92 1326.59 329.92C1324.26 329.92 1322.06 330.352 1320.02 331.216C1318 332.048 1316.22 333.248 1314.69 334.816C1313.15 336.352 1311.95 338.176 1311.09 340.288C1310.22 342.4 1309.79 344.704 1309.79 347.2C1309.79 349.696 1310.22 352 1311.09 354.112C1311.95 356.224 1313.15 358.064 1314.69 359.632C1316.22 361.168 1318 362.368 1320.02 363.232C1322.06 364.064 1324.26 364.48 1326.59 364.48C1329.06 364.48 1331.12 364.176 1332.78 363.568C1334.45 362.96 1335.98 362.032 1337.39 360.784V355.408C1336.62 356.4 1335.7 357.28 1334.61 358.048C1333.52 358.784 1332.3 359.36 1330.96 359.776C1329.65 360.192 1328.19 360.4 1326.59 360.4C1324.38 360.4 1322.34 359.84 1320.45 358.72C1318.56 357.6 1317.02 356.048 1315.84 354.064C1314.69 352.08 1314.11 349.792 1314.11 347.2ZM1349.37 347.2C1349.37 344.672 1349.92 342.416 1351 340.432C1352.12 338.448 1353.64 336.88 1355.56 335.728C1357.48 334.576 1359.66 334 1362.09 334C1364.56 334 1366.73 334.576 1368.62 335.728C1370.54 336.88 1372.04 338.448 1373.13 340.432C1374.25 342.416 1374.81 344.672 1374.81 347.2C1374.81 349.728 1374.25 351.984 1373.13 353.968C1372.04 355.952 1370.54 357.52 1368.62 358.672C1366.73 359.824 1364.56 360.4 1362.09 360.4C1359.66 360.4 1357.48 359.824 1355.56 358.672C1353.64 357.52 1352.12 355.952 1351 353.968C1349.92 351.984 1349.37 349.728 1349.37 347.2ZM1345.05 347.2C1345.05 349.632 1345.47 351.904 1346.3 354.016C1347.16 356.128 1348.36 357.968 1349.9 359.536C1351.44 361.072 1353.24 362.288 1355.32 363.184C1357.4 364.048 1359.66 364.48 1362.09 364.48C1364.56 364.48 1366.81 364.048 1368.86 363.184C1370.94 362.288 1372.75 361.072 1374.28 359.536C1375.82 357.968 1377 356.128 1377.84 354.016C1378.7 351.904 1379.13 349.632 1379.13 347.2C1379.13 344.736 1378.7 342.464 1377.84 340.384C1377 338.272 1375.82 336.448 1374.28 334.912C1372.75 333.344 1370.94 332.128 1368.86 331.264C1366.81 330.368 1364.56 329.92 1362.09 329.92C1359.66 329.92 1357.4 330.368 1355.32 331.264C1353.24 332.128 1351.44 333.344 1349.9 334.912C1348.36 336.448 1347.16 338.272 1346.3 340.384C1345.47 342.464 1345.05 344.736 1345.05 347.2ZM1389.55 347.68H1412.59V343.84H1389.55V347.68ZM1409.85 330.4V364H1413.93V330.4H1409.85ZM1387.29 330.4V364H1391.37V330.4H1387.29ZM1427.22 353.92H1444.98L1443.54 350.08H1428.66L1427.22 353.92ZM1436.01 337.984L1441.77 351.52L1442.15 352.48L1447.05 364H1451.61L1436.01 328.72L1420.41 364H1424.97L1429.96 352.192L1430.34 351.328L1436.01 337.984ZM1482 330.4H1459.2V351.52C1459.2 352.8 1459.1 353.984 1458.91 355.072C1458.72 356.16 1458.43 357.12 1458.05 357.952C1457.66 358.752 1457.2 359.376 1456.65 359.824C1456.11 360.272 1455.47 360.496 1454.73 360.496V364C1456.56 364 1458.08 363.472 1459.29 362.416C1460.54 361.36 1461.47 359.952 1462.08 358.192C1462.72 356.432 1463.04 354.528 1463.04 352.48V334.24H1477.92V364H1482V330.4ZM1494.49 347.2C1494.49 344.672 1495.03 342.416 1496.12 340.432C1497.24 338.448 1498.76 336.88 1500.68 335.728C1502.6 334.576 1504.77 334 1507.21 334C1509.67 334 1511.85 334.576 1513.73 335.728C1515.65 336.88 1517.16 338.448 1518.25 340.432C1519.37 342.416 1519.93 344.672 1519.93 347.2C1519.93 349.728 1519.37 351.984 1518.25 353.968C1517.16 355.952 1515.65 357.52 1513.73 358.672C1511.85 359.824 1509.67 360.4 1507.21 360.4C1504.77 360.4 1502.6 359.824 1500.68 358.672C1498.76 357.52 1497.24 355.952 1496.12 353.968C1495.03 351.984 1494.49 349.728 1494.49 347.2ZM1490.17 347.2C1490.17 349.632 1490.58 351.904 1491.41 354.016C1492.28 356.128 1493.48 357.968 1495.01 359.536C1496.55 361.072 1498.36 362.288 1500.44 363.184C1502.52 364.048 1504.77 364.48 1507.21 364.48C1509.67 364.48 1511.93 364.048 1513.97 363.184C1516.05 362.288 1517.86 361.072 1519.4 359.536C1520.93 357.968 1522.12 356.128 1522.95 354.016C1523.81 351.904 1524.25 349.632 1524.25 347.2C1524.25 344.736 1523.81 342.464 1522.95 340.384C1522.12 338.272 1520.93 336.448 1519.4 334.912C1517.86 333.344 1516.05 332.128 1513.97 331.264C1511.93 330.368 1509.67 329.92 1507.21 329.92C1504.77 329.92 1502.52 330.368 1500.44 331.264C1498.36 332.128 1496.55 333.344 1495.01 334.912C1493.48 336.448 1492.28 338.272 1491.41 340.384C1490.58 342.464 1490.17 344.736 1490.17 347.2ZM1537.06 341.296L1548.01 360.88L1558.95 341.296L1561.45 364H1565.53L1561.45 328.72L1548.01 353.056L1534.57 328.72L1530.49 364H1534.57L1537.06 341.296ZM116.12 382.96L116.36 376.72L87.08 407.44L86.84 413.68L116.12 382.96ZM90.92 378.4H86.84V413.68L90.92 408.4V378.4ZM116.36 376.72L112.28 382V412H116.36V376.72ZM143.249 378.4V412H147.329V378.4H143.249ZM145.505 382.24H152.369C154.545 382.24 156.305 382.768 157.649 383.824C159.025 384.848 159.713 386.4 159.713 388.48C159.713 390.528 159.025 392.08 157.649 393.136C156.305 394.192 154.545 394.72 152.369 394.72H145.505V398.56H152.369C154.545 398.56 156.481 398.16 158.177 397.36C159.905 396.528 161.265 395.36 162.257 393.856C163.281 392.32 163.793 390.528 163.793 388.48C163.793 386.4 163.281 384.608 162.257 383.104C161.265 381.6 159.905 380.448 158.177 379.648C156.481 378.816 154.545 378.4 152.369 378.4H145.505V382.24ZM171.787 401.92H189.547L188.107 398.08H173.227L171.787 401.92ZM180.571 385.984L186.331 399.52L186.715 400.48L191.611 412H196.171L180.571 376.72L164.971 412H169.531L174.523 400.192L174.907 399.328L180.571 385.984ZM203.606 395.2C203.606 392.576 204.182 390.288 205.334 388.336C206.518 386.352 208.054 384.8 209.942 383.68C211.83 382.56 213.878 382 216.086 382C217.686 382 219.142 382.208 220.454 382.624C221.798 383.04 223.014 383.632 224.102 384.4C225.19 385.136 226.118 386 226.886 386.992V381.616C225.478 380.368 223.942 379.44 222.278 378.832C220.614 378.224 218.55 377.92 216.086 377.92C213.75 377.92 211.558 378.352 209.51 379.216C207.494 380.048 205.718 381.248 204.182 382.816C202.646 384.352 201.446 386.176 200.582 388.288C199.718 390.4 199.286 392.704 199.286 395.2C199.286 397.696 199.718 400 200.582 402.112C201.446 404.224 202.646 406.064 204.182 407.632C205.718 409.168 207.494 410.368 209.51 411.232C211.558 412.064 213.75 412.48 216.086 412.48C218.55 412.48 220.614 412.176 222.278 411.568C223.942 410.96 225.478 410.032 226.886 408.784V403.408C226.118 404.4 225.19 405.28 224.102 406.048C223.014 406.784 221.798 407.36 220.454 407.776C219.142 408.192 217.686 408.4 216.086 408.4C213.878 408.4 211.83 407.84 209.942 406.72C208.054 405.6 206.518 404.048 205.334 402.064C204.182 400.08 203.606 397.792 203.606 395.2ZM246.545 398.56H256.961V394.96H246.545V398.56ZM254.225 378.4V412H258.305V378.4H254.225ZM240.305 378.4H236.465V387.136C236.465 389.28 236.833 391.216 237.569 392.944C238.337 394.672 239.473 396.048 240.977 397.072C242.481 398.064 244.337 398.56 246.545 398.56V394.96C245.169 394.96 244.017 394.608 243.089 393.904C242.161 393.2 241.457 392.256 240.977 391.072C240.529 389.888 240.305 388.576 240.305 387.136V378.4ZM270.652 412H287.596V408.16H270.652V412ZM270.652 382.24H287.596V378.4H270.652V382.24ZM270.652 395.68H286.636V391.84H270.652V395.68ZM268.396 378.4V412H272.476V378.4H268.396ZM293.827 382.24H302.467V412H306.547V382.24H315.187V378.4H293.827V382.24ZM320.334 401.92H338.094L336.654 398.08H321.774L320.334 401.92ZM329.118 385.984L334.878 399.52L335.262 400.48L340.158 412H344.718L329.118 376.72L313.518 412H318.078L323.07 400.192L323.454 399.328L329.118 385.984ZM377.74 395.44C379.596 395.44 381.276 395.216 382.78 394.768C384.316 394.32 385.628 393.712 386.716 392.944C387.804 392.144 388.636 391.232 389.212 390.208C389.82 389.152 390.124 388.032 390.124 386.848C390.124 385.248 389.692 383.776 388.828 382.432C387.964 381.088 386.732 380 385.132 379.168C383.532 378.336 381.612 377.92 379.372 377.92C377.228 377.92 375.324 378.304 373.66 379.072C372.028 379.808 370.748 380.832 369.82 382.144C368.924 383.456 368.476 384.992 368.476 386.752H372.364C372.364 385.76 372.668 384.88 373.276 384.112C373.884 383.344 374.716 382.736 375.772 382.288C376.86 381.84 378.076 381.616 379.42 381.616C380.86 381.616 382.06 381.84 383.02 382.288C384.012 382.736 384.748 383.376 385.228 384.208C385.708 385.008 385.948 385.936 385.948 386.992C385.948 388.048 385.628 389.024 384.988 389.92C384.348 390.784 383.42 391.488 382.204 392.032C380.988 392.544 379.5 392.8 377.74 392.8V395.44ZM379.18 412.48C381.676 412.48 383.804 412.096 385.564 411.328C387.356 410.56 388.716 409.472 389.644 408.064C390.604 406.656 391.084 405.008 391.084 403.12C391.084 400.88 390.492 399.088 389.308 397.744C388.124 396.368 386.524 395.36 384.508 394.72C382.492 394.08 380.236 393.76 377.74 393.76V396.4C379.5 396.4 381.068 396.64 382.444 397.12C383.82 397.568 384.908 398.256 385.708 399.184C386.508 400.112 386.908 401.264 386.908 402.64C386.908 404.464 386.284 405.92 385.036 407.008C383.788 408.096 381.836 408.64 379.18 408.64C377.42 408.64 375.964 408.4 374.812 407.92C373.692 407.44 372.828 406.784 372.22 405.952C371.644 405.12 371.292 404.176 371.164 403.12H367.036C367.036 404.432 367.292 405.664 367.804 406.816C368.348 407.936 369.132 408.928 370.156 409.792C371.18 410.624 372.444 411.28 373.948 411.76C375.452 412.24 377.196 412.48 379.18 412.48ZM402.018 401.92H419.778L418.338 398.08H403.458L402.018 401.92ZM410.802 385.984L416.562 399.52L416.946 400.48L421.842 412H426.402L410.802 376.72L395.202 412H399.762L404.754 400.192L405.138 399.328L410.802 385.984ZM432.89 378.4V412H436.97V378.4H432.89ZM435.146 382.24H442.01C444.186 382.24 445.946 382.768 447.29 383.824C448.666 384.848 449.354 386.4 449.354 388.48C449.354 390.528 448.666 392.08 447.29 393.136C445.946 394.192 444.186 394.72 442.01 394.72H435.146V398.56H442.01C444.186 398.56 446.122 398.16 447.818 397.36C449.546 396.528 450.906 395.36 451.898 393.856C452.922 392.32 453.434 390.528 453.434 388.48C453.434 386.4 452.922 384.608 451.898 383.104C450.906 381.6 449.546 380.448 447.818 379.648C446.122 378.816 444.186 378.4 442.01 378.4H435.146V382.24ZM461.428 401.92H479.188L477.748 398.08H462.868L461.428 401.92ZM470.212 385.984L475.972 399.52L476.356 400.48L481.252 412H485.812L470.212 376.72L454.612 412H459.172L464.164 400.192L464.548 399.328L470.212 385.984ZM494.555 395.68H501.419C502.859 395.68 504.123 395.92 505.211 396.4C506.331 396.848 507.195 397.536 507.803 398.464C508.443 399.392 508.763 400.544 508.763 401.92C508.763 403.296 508.443 404.448 507.803 405.376C507.195 406.304 506.331 407.008 505.211 407.488C504.123 407.936 502.859 408.16 501.419 408.16H494.555V412H501.419C503.595 412 505.531 411.6 507.227 410.8C508.955 409.968 510.315 408.8 511.307 407.296C512.331 405.76 512.843 403.968 512.843 401.92C512.843 399.84 512.331 398.048 511.307 396.544C510.315 395.04 508.955 393.888 507.227 393.088C505.531 392.256 503.595 391.84 501.419 391.84H494.555V395.68ZM492.299 378.4V412H496.379V382.24H510.299V378.4H492.299ZM523.396 395.2C523.396 392.672 523.94 390.416 525.028 388.432C526.148 386.448 527.668 384.88 529.588 383.728C531.508 382.576 533.684 382 536.116 382C538.58 382 540.756 382.576 542.644 383.728C544.564 384.88 546.068 386.448 547.156 388.432C548.276 390.416 548.836 392.672 548.836 395.2C548.836 397.728 548.276 399.984 547.156 401.968C546.068 403.952 544.564 405.52 542.644 406.672C540.756 407.824 538.58 408.4 536.116 408.4C533.684 408.4 531.508 407.824 529.588 406.672C527.668 405.52 526.148 403.952 525.028 401.968C523.94 399.984 523.396 397.728 523.396 395.2ZM519.076 395.2C519.076 397.632 519.492 399.904 520.324 402.016C521.188 404.128 522.388 405.968 523.924 407.536C525.46 409.072 527.268 410.288 529.348 411.184C531.428 412.048 533.684 412.48 536.116 412.48C538.58 412.48 540.836 412.048 542.884 411.184C544.964 410.288 546.772 409.072 548.308 407.536C549.844 405.968 551.028 404.128 551.86 402.016C552.724 399.904 553.156 397.632 553.156 395.2C553.156 392.736 552.724 390.464 551.86 388.384C551.028 386.272 549.844 384.448 548.308 382.912C546.772 381.344 544.964 380.128 542.884 379.264C540.836 378.368 538.58 377.92 536.116 377.92C533.684 377.92 531.428 378.368 529.348 379.264C527.268 380.128 525.46 381.344 523.924 382.912C522.388 384.448 521.188 386.272 520.324 388.384C519.492 390.464 519.076 392.736 519.076 395.2ZM556.505 382.24H565.145V412H569.225V382.24H577.865V378.4H556.505V382.24ZM586.833 395.68H609.873V391.84H586.833V395.68ZM607.137 378.4V412H611.217V378.4H607.137ZM584.577 378.4V412H588.657V378.4H584.577ZM623.69 395.2C623.69 392.672 624.234 390.416 625.322 388.432C626.442 386.448 627.962 384.88 629.882 383.728C631.802 382.576 633.978 382 636.41 382C638.874 382 641.05 382.576 642.938 383.728C644.858 384.88 646.362 386.448 647.45 388.432C648.57 390.416 649.13 392.672 649.13 395.2C649.13 397.728 648.57 399.984 647.45 401.968C646.362 403.952 644.858 405.52 642.938 406.672C641.05 407.824 638.874 408.4 636.41 408.4C633.978 408.4 631.802 407.824 629.882 406.672C627.962 405.52 626.442 403.952 625.322 401.968C624.234 399.984 623.69 397.728 623.69 395.2ZM619.37 395.2C619.37 397.632 619.786 399.904 620.618 402.016C621.482 404.128 622.682 405.968 624.218 407.536C625.754 409.072 627.562 410.288 629.642 411.184C631.722 412.048 633.978 412.48 636.41 412.48C638.874 412.48 641.13 412.048 643.178 411.184C645.258 410.288 647.066 409.072 648.602 407.536C650.138 405.968 651.322 404.128 652.154 402.016C653.018 399.904 653.45 397.632 653.45 395.2C653.45 392.736 653.018 390.464 652.154 388.384C651.322 386.272 650.138 384.448 648.602 382.912C647.066 381.344 645.258 380.128 643.178 379.264C641.13 378.368 638.874 377.92 636.41 377.92C633.978 377.92 631.722 378.368 629.642 379.264C627.562 380.128 625.754 381.344 624.218 382.912C622.682 384.448 621.482 386.272 620.618 388.384C619.786 390.464 619.37 392.736 619.37 395.2ZM690.892 382.96L691.132 376.72L661.852 407.44L661.612 413.68L690.892 382.96ZM665.692 378.4H661.612V413.68L665.692 408.4V378.4ZM691.132 376.72L687.052 382V412H691.132V376.72ZM670.108 368.56C670.108 369.648 670.38 370.72 670.924 371.776C671.5 372.8 672.348 373.648 673.468 374.32C674.62 374.96 676.028 375.28 677.692 375.28C679.388 375.28 680.796 374.96 681.916 374.32C683.036 373.648 683.868 372.8 684.412 371.776C684.988 370.72 685.276 369.648 685.276 368.56H681.868C681.868 368.976 681.756 369.472 681.532 370.048C681.308 370.592 680.892 371.088 680.284 371.536C679.676 371.952 678.812 372.16 677.692 372.16C676.572 372.16 675.708 371.952 675.1 371.536C674.492 371.088 674.076 370.592 673.852 370.048C673.628 369.472 673.516 368.976 673.516 368.56H670.108ZM740.581 382.24V412H744.661V378.4H718.021V412H722.101V382.24H740.581ZM778.638 378.4H755.838V399.52C755.838 400.8 755.742 401.984 755.55 403.072C755.358 404.16 755.07 405.12 754.686 405.952C754.302 406.752 753.838 407.376 753.294 407.824C752.75 408.272 752.11 408.496 751.374 408.496V412C753.198 412 754.718 411.472 755.934 410.416C757.182 409.36 758.11 407.952 758.718 406.192C759.358 404.432 759.678 402.528 759.678 400.48V382.24H774.558V412H778.638V378.4ZM791.944 401.92H809.704L808.264 398.08H793.384L791.944 401.92ZM800.728 385.984L806.488 399.52L806.872 400.48L811.768 412H816.328L800.728 376.72L785.128 412H789.688L794.68 400.192L795.064 399.328L800.728 385.984ZM816.08 382.24H824.72V412H828.8V382.24H837.44V378.4H816.08V382.24ZM869.113 378.4V412H873.193V378.4H869.113ZM844.153 378.4V412H848.233V378.4H844.153ZM846.409 395.68H853.273C854.713 395.68 855.977 395.92 857.065 396.4C858.185 396.848 859.049 397.536 859.657 398.464C860.297 399.392 860.617 400.544 860.617 401.92C860.617 403.296 860.297 404.448 859.657 405.376C859.049 406.304 858.185 407.008 857.065 407.488C855.977 407.936 854.713 408.16 853.273 408.16H846.409V412H853.273C855.449 412 857.385 411.6 859.081 410.8C860.809 409.968 862.169 408.8 863.161 407.296C864.185 405.76 864.697 403.968 864.697 401.92C864.697 399.84 864.185 398.048 863.161 396.544C862.169 395.04 860.809 393.888 859.081 393.088C857.385 392.256 855.449 391.84 853.273 391.84H846.409V395.68Z" fill="#C0DDE1"/>
<rect x="0.5" y="0.5" width="1919" height="1079" stroke="black"/>
</svg>
