<svg width="595" height="560" viewBox="0 0 595 560" fill="none" xmlns="http://www.w3.org/2000/svg">
<path d="M416.123 355C370.563 316.53 272.955 232.777 247 205.524C247 193.705 351.235 92.2 485.843 63C495.507 66.4762 546.829 118.619 555.112 129.048C563.396 139.476 513.454 272.267 416.123 355Z" fill="url(#paint0_linear_4_263)"/>
<path d="M416.123 355C370.563 316.53 272.955 232.777 247 205.524C247 193.705 351.235 92.2 485.843 63C495.507 66.4762 546.829 118.619 555.112 129.048C563.396 139.476 513.454 272.267 416.123 355Z" fill="url(#paint1_linear_4_263)"/>
<path d="M416.123 355C370.563 316.53 272.955 232.777 247 205.524C247 193.705 351.235 92.2 485.843 63C495.507 66.4762 546.829 118.619 555.112 129.048C563.396 139.476 513.454 272.267 416.123 355Z" stroke="black"/>
<path d="M543.567 444C544.958 423.185 542.871 357.965 506 321.193C523.16 302.228 560.959 244.039 574.873 163C594.352 195.61 619.397 336.457 543.567 444Z" fill="url(#paint2_linear_4_263)"/>
<path d="M543.567 444C544.958 423.185 542.871 357.965 506 321.193C523.16 302.228 560.959 244.039 574.873 163C594.352 195.61 619.397 336.457 543.567 444Z" fill="url(#paint3_linear_4_263)"/>
<path d="M543.567 444C544.958 423.185 542.871 357.965 506 321.193C523.16 302.228 560.959 244.039 574.873 163C594.352 195.61 619.397 336.457 543.567 444Z" stroke="black"/>
<path d="M199 545.275C200.817 545.867 202.644 546.439 204.48 546.99C236.861 545.664 394.842 456.524 482.34 358.033C488.59 356.652 526.091 398.107 519.146 472.037C477.432 533.949 322.593 582.462 204.48 546.99C201.651 547.106 199.781 546.552 199 545.275Z" fill="url(#paint4_linear_4_263)"/>
<path d="M199 545.275C200.817 545.867 202.644 546.439 204.48 546.99C236.861 545.664 394.842 456.524 482.34 358.033C488.59 356.652 526.091 398.107 519.146 472.037C477.432 533.949 322.593 582.462 204.48 546.99C201.651 547.106 199.781 546.552 199 545.275Z" fill="url(#paint5_linear_4_263)"/>
<path d="M199 545.275C317.753 583.967 476.784 534.911 519.146 472.037C526.091 398.107 488.59 356.652 482.34 358.033C387.199 465.127 208.722 561.167 199 545.275Z" stroke="black"/>
<path d="M384.908 388.773C388.794 380.99 268.572 283.617 207.975 235.902C191.288 222.7 108.06 356.809 81 477.716C98.2076 496.06 145.528 522.882 167.038 534C206.356 519.408 304.976 469.933 384.908 388.773Z" fill="url(#paint6_linear_4_263)"/>
<path d="M384.908 388.773C388.794 380.99 268.572 283.617 207.975 235.902C191.288 222.7 108.06 356.809 81 477.716C98.2076 496.06 145.528 522.882 167.038 534C206.356 519.408 304.976 469.933 384.908 388.773Z" fill="url(#paint7_linear_4_263)"/>
<path d="M384.908 388.773C388.794 380.99 268.572 283.617 207.975 235.902C191.288 222.7 108.06 356.809 81 477.716C98.2076 496.06 145.528 522.882 167.038 534C206.356 519.408 304.976 469.933 384.908 388.773Z" stroke="black"/>
<path d="M45.4267 129C-13.6703 199.833 -22.7087 354 64.1987 454C71.1513 406.083 65.5892 369.278 108 303.306C85.0565 261.639 45.4267 253.306 45.4267 129Z" fill="url(#paint8_linear_4_263)"/>
<path d="M45.4267 129C-13.6703 199.833 -22.7087 354 64.1987 454C71.1513 406.083 65.5892 369.278 108 303.306C85.0565 261.639 45.4267 253.306 45.4267 129Z" fill="url(#paint9_linear_4_263)"/>
<path d="M45.4267 129C-13.6703 199.833 -22.7087 354 64.1987 454C71.1513 406.083 65.5892 369.278 108 303.306C85.0565 261.639 45.4267 253.306 45.4267 129Z" stroke="black"/>
<path d="M80.6209 181.525C69.3174 151.85 65.5238 119.552 65.5001 98.7993C107.132 53.9086 173.696 18.6692 246.34 5.79082C318.671 -7.03191 396.979 2.32177 462.671 46.3306C376.213 60.3982 302.205 100.973 246.56 142.994C190.956 184.983 153.654 228.442 140.562 248.401C110.674 238.119 91.9173 211.181 80.6209 181.525Z" fill="url(#paint10_linear_4_263)"/>
<path d="M80.6209 181.525C69.3174 151.85 65.5238 119.552 65.5001 98.7993C107.132 53.9086 173.696 18.6692 246.34 5.79082C318.671 -7.03191 396.979 2.32177 462.671 46.3306C376.213 60.3982 302.205 100.973 246.56 142.994C190.956 184.983 153.654 228.442 140.562 248.401C110.674 238.119 91.9173 211.181 80.6209 181.525Z" fill="url(#paint11_linear_4_263)"/>
<path d="M80.6209 181.525C69.3174 151.85 65.5238 119.552 65.5001 98.7993C107.132 53.9086 173.696 18.6692 246.34 5.79082C318.671 -7.03191 396.979 2.32177 462.671 46.3306C376.213 60.3982 302.205 100.973 246.56 142.994C190.956 184.983 153.654 228.442 140.562 248.401C110.674 238.119 91.9173 211.181 80.6209 181.525Z" stroke="black"/>
<defs>
<linearGradient id="paint0_linear_4_263" x1="401.5" y1="63" x2="401.5" y2="355" gradientUnits="userSpaceOnUse">
<stop stop-color="#F9A932" stop-opacity="0"/>
<stop offset="0.117896" stop-color="#F9A932" stop-opacity="0.01"/>
<stop offset="0.213837" stop-color="#F9A932" stop-opacity="0.0324148"/>
<stop offset="0.2912" stop-color="#F9A932" stop-opacity="0.0704"/>
<stop offset="0.353363" stop-color="#F9A932" stop-opacity="0.120652"/>
<stop offset="0.403704" stop-color="#F9A932" stop-opacity="0.181481"/>
<stop offset="0.4456" stop-color="#F9A932" stop-opacity="0.2512"/>
<stop offset="0.48243" stop-color="#F9A932" stop-opacity="0.328119"/>
<stop offset="0.51757" stop-color="#F9A932" stop-opacity="0.410548"/>
<stop offset="0.5544" stop-color="#F9A932" stop-opacity="0.4968"/>
<stop offset="0.596296" stop-color="#F9A932" stop-opacity="0.585185"/>
<stop offset="0.646637" stop-color="#F9A932" stop-opacity="0.674015"/>
<stop offset="0.7088" stop-color="#F9A932" stop-opacity="0.7616"/>
<stop offset="0.786163" stop-color="#F9A932" stop-opacity="0.846252"/>
<stop offset="0.882104" stop-color="#F9A932" stop-opacity="0.926281"/>
<stop offset="1" stop-color="#F9A932"/>
</linearGradient>
<linearGradient id="paint1_linear_4_263" x1="401.5" y1="63" x2="401.5" y2="355" gradientUnits="userSpaceOnUse">
<stop stop-color="#F6E42E"/>
<stop offset="0.117896" stop-color="#F6E42E" stop-opacity="0.991615"/>
<stop offset="0.213837" stop-color="#F6E42E" stop-opacity="0.967585"/>
<stop offset="0.2912" stop-color="#F6E42E" stop-opacity="0.9296"/>
<stop offset="0.353363" stop-color="#F6E42E" stop-opacity="0.879348"/>
<stop offset="0.403704" stop-color="#F6E42E" stop-opacity="0.818519"/>
<stop offset="0.4456" stop-color="#F6E42E" stop-opacity="0.7488"/>
<stop offset="0.48243" stop-color="#F6E42E" stop-opacity="0.671881"/>
<stop offset="0.51757" stop-color="#F6E42E" stop-opacity="0.589452"/>
<stop offset="0.5544" stop-color="#F6E42E" stop-opacity="0.5032"/>
<stop offset="0.596296" stop-color="#F6E42E" stop-opacity="0.414815"/>
<stop offset="0.646637" stop-color="#F6E42E" stop-opacity="0.325985"/>
<stop offset="0.7088" stop-color="#F6E42E" stop-opacity="0.2384"/>
<stop offset="0.786163" stop-color="#F6E42E" stop-opacity="0.153748"/>
<stop offset="0.882104" stop-color="#F6E42E" stop-opacity="0.0737185"/>
<stop offset="1" stop-color="#F6E42E" stop-opacity="0"/>
</linearGradient>
<linearGradient id="paint2_linear_4_263" x1="550.5" y1="163" x2="622.558" y2="317.871" gradientUnits="userSpaceOnUse">
<stop stop-color="#C03632" stop-opacity="0"/>
<stop offset="0.117896" stop-color="#C03632" stop-opacity="0.01"/>
<stop offset="0.213837" stop-color="#C23531" stop-opacity="0.0324148"/>
<stop offset="0.2912" stop-color="#C3342F" stop-opacity="0.0704"/>
<stop offset="0.353363" stop-color="#C6332E" stop-opacity="0.120652"/>
<stop offset="0.403704" stop-color="#C9312B" stop-opacity="0.181481"/>
<stop offset="0.4456" stop-color="#CC2F29" stop-opacity="0.2512"/>
<stop offset="0.48243" stop-color="#D02D26" stop-opacity="0.328119"/>
<stop offset="0.51757" stop-color="#D42B23" stop-opacity="0.410548"/>
<stop offset="0.5544" stop-color="#D82920" stop-opacity="0.4968"/>
<stop offset="0.596296" stop-color="#DD271D" stop-opacity="0.585185"/>
<stop offset="0.646637" stop-color="#E1241A" stop-opacity="0.674015"/>
<stop offset="0.7088" stop-color="#E52217" stop-opacity="0.7616"/>
<stop offset="0.786163" stop-color="#EA2014" stop-opacity="0.846252"/>
<stop offset="0.882104" stop-color="#EE1E11" stop-opacity="0.926281"/>
<stop offset="1" stop-color="#F11C0E"/>
</linearGradient>
<linearGradient id="paint3_linear_4_263" x1="550.5" y1="163" x2="550.5" y2="444" gradientUnits="userSpaceOnUse">
<stop stop-color="#CD635E"/>
<stop offset="0.117896" stop-color="#CD635E" stop-opacity="0.991615"/>
<stop offset="0.213837" stop-color="#CD635E" stop-opacity="0.967585"/>
<stop offset="0.2912" stop-color="#CD635E" stop-opacity="0.9296"/>
<stop offset="0.353363" stop-color="#CD635E" stop-opacity="0.879348"/>
<stop offset="0.403704" stop-color="#CD635E" stop-opacity="0.818519"/>
<stop offset="0.4456" stop-color="#CD635E" stop-opacity="0.7488"/>
<stop offset="0.48243" stop-color="#CD635E" stop-opacity="0.671881"/>
<stop offset="0.51757" stop-color="#CD635E" stop-opacity="0.589452"/>
<stop offset="0.5544" stop-color="#CD635E" stop-opacity="0.5032"/>
<stop offset="0.596296" stop-color="#CD635E" stop-opacity="0.414815"/>
<stop offset="0.646637" stop-color="#CD635E" stop-opacity="0.325985"/>
<stop offset="0.7088" stop-color="#CD635E" stop-opacity="0.2384"/>
<stop offset="0.786163" stop-color="#CD635E" stop-opacity="0.153748"/>
<stop offset="0.882104" stop-color="#CD635E" stop-opacity="0.0737185"/>
<stop offset="1" stop-color="#CD635E" stop-opacity="0"/>
</linearGradient>
<linearGradient id="paint4_linear_4_263" x1="359.5" y1="358" x2="359.5" y2="559" gradientUnits="userSpaceOnUse">
<stop stop-color="#F83D00"/>
<stop offset="1" stop-color="#D7643E" stop-opacity="0"/>
</linearGradient>
<linearGradient id="paint5_linear_4_263" x1="359.5" y1="358" x2="359.5" y2="559" gradientUnits="userSpaceOnUse">
<stop stop-color="#E66023" stop-opacity="0"/>
<stop offset="1" stop-color="#E55F30"/>
</linearGradient>
<linearGradient id="paint6_linear_4_263" x1="233" y1="235" x2="233" y2="534" gradientUnits="userSpaceOnUse">
<stop stop-color="#0D9248" stop-opacity="0"/>
<stop offset="1" stop-color="#0D9248"/>
</linearGradient>
<linearGradient id="paint7_linear_4_263" x1="233" y1="235" x2="233" y2="534" gradientUnits="userSpaceOnUse">
<stop stop-color="#48C731"/>
<stop offset="0.770833" stop-color="#67D155" stop-opacity="0"/>
</linearGradient>
<linearGradient id="paint8_linear_4_263" x1="54" y1="129" x2="54" y2="454" gradientUnits="userSpaceOnUse">
<stop stop-color="#232168" stop-opacity="0"/>
<stop offset="1" stop-color="#232168"/>
</linearGradient>
<linearGradient id="paint9_linear_4_263" x1="54" y1="129" x2="54" y2="454" gradientUnits="userSpaceOnUse">
<stop stop-color="#3C236D"/>
<stop offset="1" stop-color="#3C236D" stop-opacity="0"/>
</linearGradient>
<linearGradient id="paint10_linear_4_263" x1="264.5" y1="0" x2="264.5" y2="249" gradientUnits="userSpaceOnUse">
<stop offset="0.328125" stop-color="#8AA9D3"/>
<stop offset="0.407337" stop-color="#8AA8D3" stop-opacity="0.991615"/>
<stop offset="0.471797" stop-color="#87A7D2" stop-opacity="0.967585"/>
<stop offset="0.523775" stop-color="#84A4D1" stop-opacity="0.9296"/>
<stop offset="0.565541" stop-color="#7FA1CF" stop-opacity="0.879348"/>
<stop offset="0.599363" stop-color="#7A9CCC" stop-opacity="0.818519"/>
<stop offset="0.627513" stop-color="#7397CA" stop-opacity="0.7488"/>
<stop offset="0.652257" stop-color="#6C92C6" stop-opacity="0.671881"/>
<stop offset="0.675868" stop-color="#648CC3" stop-opacity="0.589452"/>
<stop offset="0.700612" stop-color="#5C86C0" stop-opacity="0.5032"/>
<stop offset="0.728762" stop-color="#5480BC" stop-opacity="0.414815"/>
<stop offset="0.762584" stop-color="#4C7AB9" stop-opacity="0.325985"/>
<stop offset="0.80435" stop-color="#4474B5" stop-opacity="0.2384"/>
<stop offset="0.856328" stop-color="#3C6EB2" stop-opacity="0.153748"/>
<stop offset="0.920788" stop-color="#3568AF" stop-opacity="0.0737185"/>
<stop offset="1" stop-color="#2E63AC" stop-opacity="0"/>
</linearGradient>
<linearGradient id="paint11_linear_4_263" x1="264.5" y1="0" x2="264.5" y2="249" gradientUnits="userSpaceOnUse">
<stop offset="0.203125" stop-color="#0A4181"/>
<stop offset="0.297074" stop-color="#0A4181" stop-opacity="0.991615"/>
<stop offset="0.373526" stop-color="#0B4282" stop-opacity="0.967585"/>
<stop offset="0.435175" stop-color="#0C4384" stop-opacity="0.9296"/>
<stop offset="0.484711" stop-color="#0E4586" stop-opacity="0.879348"/>
<stop offset="0.524826" stop-color="#104889" stop-opacity="0.818519"/>
<stop offset="0.558213" stop-color="#124B8C" stop-opacity="0.7488"/>
<stop offset="0.587561" stop-color="#144E8F" stop-opacity="0.671881"/>
<stop offset="0.615564" stop-color="#165193" stop-opacity="0.589452"/>
<stop offset="0.644912" stop-color="#195597" stop-opacity="0.5032"/>
<stop offset="0.678299" stop-color="#1C589B" stop-opacity="0.414815"/>
<stop offset="0.718414" stop-color="#1E5C9F" stop-opacity="0.325985"/>
<stop offset="0.76795" stop-color="#215FA2" stop-opacity="0.2384"/>
<stop offset="0.829599" stop-color="#2363A6" stop-opacity="0.153748"/>
<stop offset="0.906051" stop-color="#2666AA" stop-opacity="0.0737185"/>
<stop offset="1" stop-color="#2869AD" stop-opacity="0"/>
</linearGradient>
</defs>
</svg>
