<?xml version="1.0" encoding="UTF-8"?>
<!DOCTYPE svg PUBLIC "-//W3C//DTD SVG 1.1//EN" "http://www.w3.org/Graphics/SVG/1.1/DTD/svg11.dtd">
<!-- Creator: CorelDRAW 2019 (64-Bit) -->
<svg xmlns="http://www.w3.org/2000/svg" xml:space="preserve" width="76.4939mm" height="11.2653mm" version="1.1" style="shape-rendering:geometricPrecision; text-rendering:geometricPrecision; image-rendering:optimizeQuality; fill-rule:evenodd; clip-rule:evenodd"
viewBox="0 0 8746520 1288105"
 xmlns:xlink="http://www.w3.org/1999/xlink">
 <defs>
  <style type="text/css">
   <![CDATA[
    .str0 {stroke:black;stroke-width:121009;stroke-miterlimit:22.9256}
    .fil1 {fill:none}
    .fil0 {fill:black;fill-rule:nonzero}
   ]]>
  </style>
 </defs>
 <g id="Слой_x0020_1">
  <metadata id="CorelCorpID_0Corel-Layer"/>
  <path class="fil0" d="M383448 419146l286543 0 0 71487 -200877 0 0 351524 -85666 0 0 -423011zm281809 265950c0,-26973 6598,-53066 19884,-78279 13298,-25304 32107,-44502 56428,-57789 24321,-13298 51397,-19987 81423,-19987 46389,0 84293,15059 113931,45188 29638,30232 44411,68240 44411,114320 0,46469 -14967,84980 -44799,115498 -29935,30530 -67554,45794 -112936,45794 -28071,0 -54850,-6403 -80360,-19107 -25407,-12703 -44799,-31307 -58098,-55925 -13287,-24527 -19884,-54450 -19884,-89713zm83299 4334c0,30427 7192,53775 21565,69909 14476,16260 32199,24332 53375,24332 21062,0 38796,-8073 53066,-24332 14281,-16134 21474,-39665 21474,-70492 0,-30038 -7192,-53169 -21474,-69326 -14270,-16248 -32005,-24321 -53066,-24321 -21176,0 -38899,8073 -53375,24321 -14373,16157 -21565,39494 -21565,69909zm245185 -153894l277087 0 0 65576 -98072 0 0 241046 -80943 0 0 -241046 -98072 0 0 -65576zm299246 149560c0,-26973 6598,-53066 19884,-78279 13298,-25304 32107,-44502 56428,-57789 24321,-13298 51397,-19987 81423,-19987 46389,0 84293,15059 113931,45188 29638,30232 44411,68240 44411,114320 0,46469 -14967,84980 -44799,115498 -29935,30530 -67554,45794 -112936,45794 -28071,0 -54850,-6403 -80360,-19107 -25407,-12703 -44799,-31307 -58098,-55925 -13287,-24527 -19884,-54450 -19884,-89713zm83299 4334c0,30427 7192,53775 21565,69909 14476,16260 32199,24332 53375,24332 21062,0 38796,-8073 53066,-24332 14281,-16134 21462,-39665 21462,-70492 0,-30038 -7181,-53169 -21462,-69326 -14270,-16248 -32005,-24321 -53066,-24321 -21176,0 -38899,8073 -53375,24321 -14373,16157 -21565,39494 -21565,69909zm297085 -153894l177631 0c36430,0 63609,6598 81732,19896 18112,13287 27179,33365 27179,60156 0,17129 -4928,32096 -14876,44799 -9845,12703 -22354,21176 -37321,25407 21073,5214 36830,14865 47269,29146 10337,14281 15551,29832 15551,46766 0,23840 -8759,43233 -26287,58098 -17529,14876 -43416,22354 -77696,22354l-193182 0 0 -306621zm80932 127606l52586 0c25407,0 43713,-3144 55045,-9548 11320,-6403 17026,-16442 17026,-30129 0,-13001 -5306,-22160 -15848,-27671 -10542,-5511 -29249,-8278 -56222,-8278l-52586 0 0 75626zm0 127023l64398 0c23246,0 40180,-2756 50814,-8370 10634,-5614 15951,-15562 15951,-30038 0,-15059 -6106,-25396 -18318,-31010 -12109,-5717 -35835,-8564 -71087,-8564l-41758 0 0 77982zm282209 -254630l80943 0 0 127606 81526 0c32005,0 56417,2264 73259,6792 16843,4539 31113,14384 42730,29546 11720,15162 17529,33079 17529,53570 0,29638 -10234,51889 -30621,66753 -20376,14876 -50997,22354 -91771,22354l-173595 0 0 -306621zm80943 254630l75615 0c19598,0 33971,-3053 42833,-9159 8862,-6106 13298,-16054 13298,-29832 0,-14670 -5717,-24812 -17231,-30232 -11514,-5408 -32107,-8164 -61837,-8164l-52678 0 0 77387zm261124 -254630l80943 0 0 306621 -80943 0 0 -306621zm339118 209739l80943 13584c-10337,29638 -26779,52186 -49133,67737 -22445,15459 -50517,23246 -84099,23246 -53261,0 -92743,-17426 -118253,-52289 -20181,-27957 -30324,-63220 -30324,-105847 0,-50814 13298,-90685 39780,-119442 26482,-28849 60064,-43222 100633,-43222 45497,0 81435,15059 107825,45188 26287,30129 38888,76312 37710,138549l-202638 0c583,24023 7078,42730 19587,56119 12406,13390 27968,20090 46469,20090 12715,0 23349,-3442 31913,-10337 8667,-6895 15162,-18020 19587,-33377zm4734 -82132c-595,-23532 -6598,-41449 -18123,-53661 -11514,-12315 -25498,-18409 -42044,-18409 -17632,0 -32199,6495 -43713,19393 -11526,12909 -17140,30530 -16946,52678l120826 0zm307216 -127606l80932 0 0 125251c13492,-1578 23051,-5717 28666,-12418 5511,-6689 12303,-21359 20181,-44011 10439,-30221 21759,-49430 34166,-57903 12315,-8461 28448,-12692 48538,-12692 6209,0 16843,492 32107,1475l297 53467c-21462,0 -35160,1967 -41060,6003 -6014,4242 -12509,16843 -19404,37813 -9456,28163 -23143,45600 -40855,52083 25590,7101 47258,29455 64981,66971 892,1967 1967,3933 3144,6094l45303 84488 -87141 0 -40374 -88913c-8267,-17918 -15459,-29443 -21565,-34566 -6003,-5123 -15070,-7684 -26985,-7684l0 131163 -80932 0 0 -306621zm260244 0l86260 0 73557 217514 71784 -217514 83893 0 -108122 295107 -19495 53272c-7192,17815 -13984,31399 -20479,40855 -6403,9353 -13881,17037 -22251,22846 -8370,5912 -18706,10439 -31021,13687 -12212,3247 -26093,4928 -41552,4928 -15551,0 -30918,-1681 -45977,-4928l-7089 -63220c12692,2470 24218,3750 34451,3750 18912,0 32896,-5511 41952,-16648 9067,-11126 16042,-25304 20868,-42433l-116778 -307216zm357435 0l75626 0 0 44994c9845,-15368 23040,-27774 39780,-37321 16728,-9445 35355,-14167 55731,-14167 35549,0 65770,13973 90594,41941 24812,27865 37219,66856 37219,116687 0,51294 -12509,91074 -37516,119534 -25018,28448 -55342,42638 -90982,42638 -16934,0 -32302,-3350 -46080,-10142 -13698,-6700 -28266,-18215 -43427,-34566l0 153414 -80943 0 0 -423011zm79754 148588c0,34554 6792,60053 20490,76598 13584,16454 30221,24721 49728,24721 18809,0 34451,-7581 46961,-22743 12509,-15173 18706,-39986 18706,-74540 0,-32302 -6403,-56234 -19290,-71887 -12806,-15654 -28757,-23429 -47761,-23429 -19793,0 -36235,7672 -49236,23040 -13092,15356 -19598,38099 -19598,68240zm550537 -57606l-79754 14178c-2664,-15859 -8770,-27762 -18318,-35846 -9548,-7970 -21862,-12006 -37024,-12006 -20193,0 -36338,6986 -48344,20970 -12017,13984 -18020,37310 -18020,70104 0,36441 6094,62134 18318,77204 12200,15059 28551,22548 49030,22548 15368,0 27968,-4436 37722,-13195 9833,-8770 16728,-23829 20776,-45291l79754 13584c-8267,36624 -24126,64295 -47567,83001 -23429,18706 -54839,28071 -94333,28071 -44697,0 -80440,-14190 -107025,-42444 -26688,-28357 -39986,-67542 -39986,-117659 0,-50722 13401,-90102 40077,-118356 26688,-28266 62831,-42341 108420,-42341 37219,0 66856,8073 88913,24115 21954,16054 37710,40466 47361,73362zm42638 58578c0,-26973 6586,-53066 19884,-78279 13298,-25304 32107,-44502 56428,-57789 24321,-13298 51397,-19987 81423,-19987 46389,0 84293,15059 113931,45188 29638,30232 44411,68240 44411,114320 0,46469 -14967,84980 -44799,115498 -29935,30530 -67554,45794 -112948,45794 -28060,0 -54839,-6403 -80349,-19107 -25407,-12703 -44799,-31307 -58098,-55925 -13298,-24527 -19884,-54450 -19884,-89713zm83299 4334c0,30427 7181,53775 21565,69909 14476,16260 32199,24332 53375,24332 21062,0 38796,-8073 53066,-24332 14281,-16134 21462,-39665 21462,-70492 0,-30038 -7181,-53169 -21462,-69326 -14270,-16248 -32005,-24321 -53066,-24321 -21176,0 -38899,8073 -53375,24321 -14384,16157 -21565,39494 -21565,69909zm297085 -153894l177631 0c36430,0 63609,6598 81732,19896 18112,13287 27168,33365 27168,60156 0,17129 -4917,32096 -14865,44799 -9845,12703 -22354,21176 -37321,25407 21073,5214 36830,14865 47269,29146 10337,14281 15551,29832 15551,46766 0,23840 -8759,43233 -26287,58098 -17529,14876 -43427,22354 -77696,22354l-193182 0 0 -306621zm80932 127606l52586 0c25407,0 43713,-3144 55045,-9548 11320,-6403 17026,-16442 17026,-30129 0,-13001 -5317,-22160 -15848,-27671 -10542,-5511 -29249,-8278 -56222,-8278l-52586 0 0 75626zm0 127023l64398 0c23246,0 40180,-2756 50814,-8370 10634,-5614 15951,-15562 15951,-30038 0,-15059 -6106,-25396 -18318,-31010 -12109,-5717 -35846,-8564 -71087,-8564l-41758 0 0 77982zm282209 -254630l80932 0 0 127606 81538 0c31993,0 56417,2264 73259,6792 16843,4539 31113,14384 42730,29546 11720,15162 17529,33079 17529,53570 0,29638 -10234,51889 -30621,66753 -20376,14876 -51008,22354 -91771,22354l-173595 0 0 -306621zm80932 254630l75626 0c19598,0 33971,-3053 42833,-9159 8862,-6106 13298,-16054 13298,-29832 0,-14670 -5717,-24812 -17231,-30232 -11526,-5408 -32107,-8164 -61837,-8164l-52689 0 0 77387zm261136 -254630l80943 0 0 306621 -80943 0 0 -306621zm339118 209739l80943 13584c-10337,29638 -26779,52186 -49133,67737 -22445,15459 -50517,23246 -84099,23246 -53261,0 -92755,-17426 -118253,-52289 -20181,-27957 -30324,-63220 -30324,-105847 0,-50814 13298,-90685 39780,-119442 26482,-28849 60064,-43222 100633,-43222 45497,0 81435,15059 107825,45188 26287,30129 38888,76312 37710,138549l-202650 0c595,24023 7089,42730 19598,56119 12406,13390 27968,20090 46469,20090 12703,0 23349,-3442 31902,-10337 8679,-6895 15173,-18020 19598,-33377zm4734 -82132c-595,-23532 -6598,-41449 -18123,-53661 -11514,-12315 -25498,-18409 -42044,-18409 -17632,0 -32199,6495 -43725,19393 -11514,12909 -17129,30530 -16934,52678l120826 0zm308394 -127606l75626 0 0 44994c9845,-15368 23040,-27774 39780,-37321 16728,-9445 35343,-14167 55731,-14167 35549,0 65770,13973 90594,41941 24812,27865 37219,66856 37219,116687 0,51294 -12509,91074 -37516,119534 -25018,28448 -55342,42638 -90994,42638 -16923,0 -32290,-3350 -46080,-10142 -13687,-6700 -28266,-18215 -43427,-34566l0 153414 -80932 0 0 -423011zm79754 148588c0,34554 6792,60053 20490,76598 13584,16454 30221,24721 49716,24721 18809,0 34463,-7581 46972,-22743 12509,-15173 18706,-39986 18706,-74540 0,-32302 -6403,-56234 -19301,-71887 -12795,-15654 -28757,-23429 -47750,-23429 -19793,0 -36235,7672 -49236,23040 -13092,15356 -19598,38099 -19598,68240zm343760 -54061l-73271 -13001c8278,-29935 22560,-52083 42741,-66467 20193,-14373 50219,-21554 89999,-21554 36132,0 63117,4219 80840,12795 17620,8564 30129,19393 37321,32588 7181,13195 10828,37321 10828,72573l-1178 94527c0,26882 1281,46778 3830,59573 2561,12806 7387,26493 14476,41060l-80349 0c-2058,-5317 -4722,-13195 -7775,-23635 -1281,-4825 -2264,-7970 -2859,-9445 -13778,13584 -28551,23726 -44308,30518 -15756,6792 -32496,10245 -50311,10245 -31421,0 -56234,-8576 -74346,-25704 -18123,-17026 -27179,-38694 -27179,-64889 0,-17231 4139,-32691 12406,-46274 8278,-13492 19793,-23932 34760,-31124 14876,-7181 36338,-13481 64398,-18901 37813,-7089 64101,-13790 78679,-19896l0 -8164c0,-15756 -3842,-26985 -11526,-33777 -7775,-6700 -22354,-10039 -43713,-10039 -14476,0 -25704,2847 -33777,8667 -8176,5706 -14670,15848 -19690,30324zm108706 65576c-10337,3442 -26779,7581 -49339,12406 -22445,4825 -37219,9559 -44113,14087 -10531,7581 -15848,17037 -15848,28551 0,11423 4231,21165 12703,29443 8461,8278 19198,12406 32302,12406 14567,0 28551,-4825 41838,-14384 9753,-7375 16248,-16237 19301,-26871 2070,-6895 3156,-20090 3156,-39494l0 -16145zm390023 -286531l54942 0c-1772,24309 -8164,42730 -19198,55330 -11023,12509 -38408,18809 -81927,18809 -5123,0 -10337,-91 -15562,-297l-10439 0c-25784,0 -46766,2859 -62911,8576 -16157,5603 -29443,16637 -39688,32976 -10337,16442 -15654,42833 -16042,79171 11915,-22457 27374,-39197 46377,-50322 18901,-11114 41552,-16637 67645,-16637 40272,0 74346,15654 102314,47075 27854,31307 41838,67634 41838,108900 0,43027 -14670,79948 -44011,110878 -29443,30815 -67748,46274 -115109,46274 -32588,0 -61150,-7787 -85860,-23440 -24618,-15551 -42250,-36921 -52884,-63998 -10531,-27076 -15848,-71876 -15848,-134513 0,-73648 13584,-126532 40660,-158719 27088,-32210 74346,-48264 141796,-48264l41060 0c11423,0 19004,-3933 22846,-11800zm-163053 282198c0,28060 6975,50322 20868,66662 13881,16351 30815,24515 50905,24515 21668,0 39483,-8461 53375,-25396 13881,-16946 20776,-38705 20776,-65484 0,-27282 -6998,-49236 -21085,-65976 -14076,-16740 -31501,-25110 -52175,-25110 -20090,0 -37230,8278 -51408,24721 -14178,16442 -21256,38499 -21256,66067zm278653 -6209c0,-26973 6598,-53066 19896,-78279 13287,-25304 32096,-44502 56417,-57789 24321,-13298 51408,-19987 81435,-19987 46377,0 84282,15059 113920,45188 29638,30232 44411,68240 44411,114320 0,46469 -14956,84980 -44799,115498 -29935,30530 -67554,45794 -112936,45794 -28071,0 -54850,-6403 -80360,-19107 -25396,-12703 -44799,-31307 -58086,-55925 -13298,-24527 -19896,-54450 -19896,-89713zm83310 4334c0,30427 7181,53775 21565,69909 14476,16260 32187,24332 53364,24332 21073,0 38796,-8073 53066,-24332 14293,-16134 21474,-39665 21474,-70492 0,-30038 -7181,-53169 -21474,-69326 -14270,-16248 -31993,-24321 -53066,-24321 -21176,0 -38888,8073 -53364,24321 -14384,16157 -21565,39494 -21565,69909zm245174 -153894l277098 0 0 65576 -98083 0 0 241046 -80932 0 0 -241046 -98083 0 0 -65576zm326528 0l80932 0 0 127606 81538 0c31993,0 56417,2264 73259,6792 16843,4539 31113,14384 42730,29546 11720,15162 17529,33079 17529,53570 0,29638 -10234,51889 -30621,66753 -20376,14876 -51008,22354 -91771,22354l-173595 0 0 -306621zm80932 254630l75626 0c19598,0 33971,-3053 42833,-9159 8862,-6106 13298,-16054 13298,-29832 0,-14670 -5717,-24812 -17231,-30232 -11526,-5408 -32107,-8164 -61848,-8164l-52678 0 0 77387zm261136 -254630l80943 0 0 306621 -80943 0 0 -306621zm177243 80932l0 -80932 80943 0 0 80932 -80943 0zm0 225690l0 -80932 80943 0 0 80932 -80943 0z"/>
  <path class="fil1 str0" d="M311755 60510l8123009 0c138195,0 251245,113051 251245,251245l0 664594c0,138195 -113051,251245 -251245,251245l-8123009 0c-138195,0 -251245,-113051 -251245,-251245l0 -664594c0,-138195 113051,-251245 251245,-251245z"/>
 </g>
</svg>
