<?xml version="1.0" encoding="UTF-8"?>
<!DOCTYPE svg PUBLIC "-//W3C//DTD SVG 1.1//EN" "http://www.w3.org/Graphics/SVG/1.1/DTD/svg11.dtd">
<!-- Creator: CorelDRAW 2019 (64-Bit) -->
<svg xmlns="http://www.w3.org/2000/svg" xml:space="preserve" width="24.2048mm" height="5.5974mm" version="1.1" style="shape-rendering:geometricPrecision; text-rendering:geometricPrecision; image-rendering:optimizeQuality; fill-rule:evenodd; clip-rule:evenodd"
viewBox="0 0 417459 96538"
 xmlns:xlink="http://www.w3.org/1999/xlink">
 <defs>
  <style type="text/css">
   <![CDATA[
    .fil0 {fill:white}
    .fil1 {fill:black;fill-rule:nonzero}
   ]]>
  </style>
 </defs>
 <g id="Слой_x0020_1">
  <metadata id="CorelCorpID_0Corel-Layer"/>
  <path class="fil0" d="M12444 1725l392571 0c5898,0 10719,4824 10719,10721l0 71647c0,5897 -4821,10721 -10719,10721l-392571 0c-5898,0 -10719,-4824 -10719,-10721l0 -71647c0,-5897 4821,-10721 10719,-10721z"/>
  <path class="fil1" d="M15950 46441c0,-4517 681,-8313 2032,-11388 1002,-2261 2385,-4293 4127,-6088 1744,-1792 3651,-3123 5726,-4001 2765,-1166 5952,-1756 9563,-1756 6540,0 11759,2035 15690,6088 3920,4063 5881,9710 5881,16938 0,7171 -1949,12782 -5838,16826 -3889,4056 -9099,6076 -15608,6076 -6592,0 -11843,-2009 -15733,-6045 -3889,-4022 -5840,-9572 -5840,-16650zm9224 -300c0,5024 1166,8834 3487,11433 2320,2589 5272,3889 8843,3889 3577,0 6506,-1290 8808,-3858 2289,-2582 3436,-6440 3436,-11585 0,-5086 -1116,-8882 -3353,-11380 -2230,-2509 -5190,-3756 -8891,-3756 -3694,0 -6678,1269 -8936,3798 -2259,2537 -3394,6355 -3394,11459zm36881 -9934l29030 0 0 6875 -10274 0 0 25251 -8482 0 0 -25251 -10274 0 0 -6875zm33775 0l8480 0 0 13123c1414,-166 2416,-600 3003,-1300 578,-700 1290,-2239 2116,-4610 1093,-3167 2278,-5178 3579,-6064 1290,-890 2980,-1335 5086,-1335 652,0 1766,53 3363,155l31 5602c-2249,0 -3682,209 -4301,630 -631,445 -1309,1766 -2032,3963 -990,2949 -2427,4776 -4281,5455 2682,745 4950,3087 6807,7016 93,205 209,412 329,640l4745 8851 -9127 0 -4231 -9317c-866,-1876 -1619,-3084 -2259,-3620 -630,-536 -1578,-804 -2828,-804l0 13741 -8480 0 0 -32126zm31105 0l7923 0 0 4715c1030,-1609 2413,-2910 4165,-3908 1756,-993 3705,-1485 5842,-1485 3725,0 6892,1463 9491,4395 2599,2918 3898,7002 3898,12221 0,5376 -1307,9544 -3929,12526 -2622,2980 -5797,4465 -9532,4465 -1773,0 -3384,-350 -4829,-1061 -1433,-700 -2961,-1908 -4550,-3622l0 16076 -8479 0 0 -44323zm8354 15569c0,3620 714,6292 2146,8025 1425,1725 3168,2590 5212,2590 1970,0 3610,-795 4919,-2384 1312,-1587 1961,-4189 1961,-7809 0,-3384 -671,-5890 -2023,-7530 -1340,-1640 -3011,-2456 -5003,-2456 -2071,0 -3796,807 -5159,2413 -1369,1609 -2052,3994 -2052,7151zm29765 -15569l8479 0 0 13370 8542 0c3353,0 5912,240 7677,714 1763,474 3261,1504 4477,3092 1228,1592 1835,3468 1835,5614 0,3104 -1073,5438 -3206,6995 -2137,1556 -5345,2340 -9615,2340l-18189 0 0 -32126zm8479 26679l7923 0c2052,0 3560,-319 4488,-961 931,-640 1392,-1682 1392,-3123 0,-1538 -598,-2603 -1804,-3170 -1207,-564 -3363,-855 -6480,-855l-5519 0 0 8110zm27361 -26679l8480 0 0 32126 -8480 0 0 -32126zm13125 0l29027 0 0 6875 -10272 0 0 25251 -8482 0 0 -25251 -10272 0 0 -6875zm34330 0l8480 0 0 13370 8520 0c3344,0 5904,240 7699,723 1794,485 3279,1526 4467,3127 1185,1597 1783,3456 1783,5571 0,3104 -1061,5438 -3189,6995 -2125,1556 -5300,2340 -9553,2340l-18208 0 0 -32126zm8480 26679l7935 0c2475,0 4062,-402 4764,-1197 692,-804 1042,-1752 1042,-2856 0,-1538 -598,-2603 -1804,-3189 -1199,-576 -3332,-868 -6397,-868l-5540 0 0 8110zm45592 -26679l8604 0 0 7687c0,1756 155,3053 462,3919 319,855 980,1588 2004,2209 1011,607 2297,918 3846,918 1507,0 3196,-341 5076,-1033l0 -13699 8480 0 0 32126 -8480 0 0 -12844c-3311,888 -5829,1331 -7561,1331 -2603,0 -4943,-559 -7016,-1682 -2075,-1114 -3498,-2549 -4270,-4293 -764,-1744 -1145,-4063 -1145,-6963l0 -7677zm43236 9903l-7677 -1361c866,-3135 2365,-5455 4476,-6963 2116,-1504 5264,-2258 9432,-2258 3784,0 6614,443 8468,1338 1849,900 3158,2032 3912,3417 754,1383 1135,3910 1135,7602l-124 9905c0,2816 133,4900 404,6240 267,1340 773,2777 1516,4301l-8420 0c-216,-557 -493,-1383 -814,-2475 -136,-505 -238,-836 -300,-992 -1442,1423 -2991,2487 -4643,3201 -1651,711 -3403,1069 -5271,1069 -3291,0 -5893,-897 -7790,-2692 -1899,-1783 -2847,-4053 -2847,-6799 0,-1806 433,-3424 1302,-4848 866,-1414 2071,-2506 3641,-3260 1557,-754 3806,-1414 6747,-1982 3960,-742 6714,-1442 8244,-2085l0 -855c0,-1649 -404,-2823 -1209,-3534 -814,-705 -2342,-1056 -4579,-1056 -1516,0 -2696,302 -3539,909 -855,598 -1538,1659 -2063,3175zm11390 6873c-1085,360 -2808,793 -5171,1300 -2351,505 -3900,999 -4622,1473 -1104,797 -1659,1787 -1659,2992 0,1199 443,2218 1331,3087 886,866 2009,1299 3384,1299 1526,0 2991,-505 4382,-1507 1024,-773 1702,-1702 2023,-2816 217,-723 331,-2106 331,-4138l0 -1690zm12885 -16776l29028 0 0 6875 -10272 0 0 25251 -8484 0 0 -25251 -10272 0 0 -6875z"/>
 </g>
</svg>
