<?xml version="1.0" encoding="UTF-8"?>
<!DOCTYPE svg PUBLIC "-//W3C//DTD SVG 1.1//EN" "http://www.w3.org/Graphics/SVG/1.1/DTD/svg11.dtd">
<!-- Creator: CorelDRAW 2019 (64-Bit) -->
<svg xmlns="http://www.w3.org/2000/svg" xml:space="preserve" width="90.1607mm" height="12.3786mm" version="1.1" style="shape-rendering:geometricPrecision; text-rendering:geometricPrecision; image-rendering:optimizeQuality; fill-rule:evenodd; clip-rule:evenodd"
viewBox="0 0 645228 88586"
 xmlns:xlink="http://www.w3.org/1999/xlink">
 <defs>
  <style type="text/css">
   <![CDATA[
    .fil2 {fill:none}
    .fil0 {fill:#D3F0F2}
    .fil1 {fill:black;fill-rule:nonzero}
   ]]>
  </style>
 </defs>
 <g id="Слой_x0020_1">
  <metadata id="CorelCorpID_0Corel-Layer"/>
  <path class="fil0" d="M45249 14764l141948 0c8646,0 15720,6816 15720,15148l0 30461c0,8331 -7073,15148 -15720,15148l-141948 0c-8646,0 -15720,-6817 -15720,-15148l0 -30461c0,-8332 7074,-15148 15720,-15148z"/>
  <path class="fil0" d="M515539 14764l102530 0c8331,0 15147,6816 15147,15148l0 30461c0,8331 -6816,15148 -15147,15148l-102530 0c-8331,0 -15147,-6817 -15147,-15148l0 -30461c0,-8332 6816,-15148 15147,-15148z"/>
  <path class="fil0" d="M272513 14764l151974 0c8331,0 15147,6816 15147,15148l0 30461c0,8331 -6816,15148 -15147,15148l-151974 0c-8331,0 -15147,-6817 -15147,-15148l0 -30461c0,-8332 6816,-15148 15147,-15148z"/>
  <path class="fil1" d="M44718 36515l3730 0 0 4394c0,1423 52,2366 158,2829 103,467 416,870 935,1213 515,343 1277,515 2281,515 793,0 1500,-86 2122,-258 617,-171 1153,-424 1603,-759l0 -7934 3730 0 0 18416 -3730 0 0 -7420c-754,334 -1496,588 -2225,759 -729,171 -1444,257 -2148,257 -1834,0 -3369,-433 -4604,-1299 -1234,-866 -1852,-2367 -1852,-4501l0 -6211zm16761 5067l12063 0 0 2855 -4270 0 0 10494 -3523 0 0 -10494 -4270 0 0 -2855zm13028 6512c0,-1174 288,-2311 866,-3408 579,-1102 1398,-1938 2456,-2516 1059,-579 2238,-870 3545,-870 2019,0 3670,656 4959,1967 1290,1316 1934,2971 1934,4977 0,2024 -652,3700 -1951,5029 -1303,1329 -2941,1993 -4916,1993 -1222,0 -2388,-278 -3498,-832 -1106,-553 -1950,-1363 -2529,-2435 -578,-1067 -866,-2370 -866,-3905zm3626 188c0,1325 313,2341 940,3044 630,708 1401,1059 2323,1059 917,0 1689,-351 2311,-1059 621,-703 934,-1728 934,-3069 0,-1307 -313,-2314 -934,-3018 -622,-707 -1393,-1058 -2311,-1058 -922,0 -1693,351 -2323,1058 -626,703 -940,1719 -940,3044zm31499 -6700l0 13349 -3523 0 0 -5530 -326 0c-763,0 -1325,98 -1680,296 -360,198 -754,613 -1192,1247l-215 262 -2327 3725 -4111 0 2529 -3862c720,-1106 1371,-1740 1954,-1908 -985,-60 -1788,-433 -2405,-1127 -613,-690 -921,-1574 -921,-2649 0,-866 205,-1603 613,-2216 407,-613 948,-1028 1625,-1252 673,-223 1680,-334 3014,-334l6965 0zm-3523 2264l-2534 0c-934,0 -1586,132 -1967,399 -377,266 -566,703 -566,1316 0,617 215,1058 643,1329 429,270 1131,403 2105,403l2319 0 0 -3447zm12534 -2264l3755 0 3202 9469 3125 -9469 3652 0 -4707 12847 -849 2319c-313,776 -608,1368 -891,1780 -279,407 -605,741 -969,994 -364,258 -815,454 -1350,596 -532,142 -1136,214 -1809,214 -677,0 -1346,-72 -2002,-214l-309 -2752c553,107 1055,163 1501,163 823,0 1432,-240 1826,-725 394,-484 698,-1101 909,-1847l-5084 -13375zm15766 0l4398 0 3280 9302 3335 -9302 4368 0 0 13349 -3009 0 0 -8788 -3233 8788 -3031 0 -3099 -8788 0 8788 -3009 0 0 -13349zm26637 9131l3524 591c-450,1290 -1166,2272 -2139,2949 -978,673 -2199,1012 -3661,1012 -2319,0 -4038,-759 -5148,-2276 -879,-1217 -1321,-2752 -1321,-4608 0,-2212 579,-3948 1732,-5200 1154,-1256 2616,-1881 4381,-1881 1981,0 3545,656 4694,1967 1145,1312 1693,3322 1642,6031l-8822 0c26,1046 308,1861 853,2443 540,583 1217,875 2024,875 552,0 1015,-150 1388,-450 377,-300 661,-784 853,-1453zm206 -3575c-26,-1024 -288,-1805 -789,-2337 -502,-535 -1111,-802 -1831,-802 -768,0 -1402,283 -1904,844 -502,562 -746,1329 -737,2294l5260 0zm6331 -5556l3524 0 0 5401 2829 0c185,-1706 832,-3082 1942,-4124 1110,-1042 2597,-1560 4458,-1560 1874,0 3412,608 4613,1826 1196,1213 1796,2966 1796,5256 0,1346 -223,2520 -673,3524 -446,1007 -1132,1818 -2054,2435 -921,618 -2126,926 -3609,926 -2135,0 -3729,-583 -4775,-1749 -1046,-1166 -1612,-2409 -1698,-3729l-2829 0 0 5144 -3524 0 0 -13349zm12706 2469c-985,0 -1702,317 -2152,948 -450,630 -677,1633 -677,3014 0,1766 240,2958 724,3575 484,617 1222,925 2208,925 909,0 1590,-347 2045,-1041 454,-695 682,-1732 682,-3121 0,-1698 -245,-2838 -738,-3425 -493,-583 -1192,-875 -2092,-875z"/>
  <path class="fil1" d="M272572 35832l3729 0 0 7844c828,-85 1389,-296 1681,-643 291,-343 746,-1299 1354,-2868 768,-1994 1544,-3237 2319,-3721 771,-484 2011,-729 3725,-729 86,0 266,-4 540,-13l0 2752 -527 -13c-763,0 -1320,94 -1672,283 -351,189 -634,476 -853,862 -218,386 -540,1179 -965,2380 -227,638 -472,1170 -737,1599 -261,429 -729,832 -1397,1209 827,231 1509,707 2049,1419 540,711 1131,1714 1775,3014l2508 5041 -4373 0 -2208 -4741c-34,-69 -107,-198 -214,-390 -43,-64 -198,-356 -463,-866 -472,-909 -857,-1475 -1158,-1702 -304,-228 -763,-343 -1385,-351l0 8050 -3729 0 0 -18416zm18557 9182l-3190 -565c361,-1303 982,-2268 1861,-2894 879,-625 2186,-938 3918,-938 1573,0 2747,184 3520,557 767,373 1312,844 1625,1419 313,575 472,1625 472,3160l-52 4115c0,1170 56,2036 167,2593 112,557 322,1153 630,1788l-3498 0c-89,-232 -205,-575 -338,-1029 -56,-210 -99,-347 -124,-411 -600,592 -1244,1033 -1929,1329 -686,296 -1415,446 -2191,446 -1368,0 -2448,-373 -3237,-1119 -789,-742 -1183,-1685 -1183,-2825 0,-750 180,-1423 540,-2015 360,-588 862,-1042 1513,-1355 648,-313 1582,-588 2804,-823 1646,-308 2790,-600 3425,-866l0 -356c0,-686 -167,-1174 -502,-1471 -338,-291 -973,-437 -1904,-437 -630,0 -1119,125 -1470,377 -356,249 -639,691 -857,1320zm4733 2855c-450,150 -1166,330 -2148,540 -978,210 -1620,415 -1921,613 -458,330 -690,741 -690,1243 0,497 185,922 553,1282 369,360 836,540 1406,540 635,0 1244,-210 1822,-626 424,-321 708,-707 840,-1170 90,-300 137,-875 137,-1719l0 -703zm6794 -6970l3524 0 0 5452c588,-69 1003,-248 1247,-540 240,-292 536,-930 879,-1916 454,-1316 947,-2152 1488,-2520 535,-369 1238,-553 2113,-553 271,0 734,21 1398,64l13 2327c-935,0 -1530,87 -1788,262 -261,185 -545,733 -844,1646 -411,1226 -1007,1985 -1778,2268 1114,308 2057,1282 2829,2915 39,86 86,172 137,266l1972 3678 -3794 0 -1758 -3871c-360,-780 -673,-1282 -939,-1505 -261,-223 -656,-334 -1174,-334l0 5710 -3524 0 0 -13349zm23749 7896l0 -2289c613,0 1058,-39 1338,-120 274,-82 535,-274 784,-583 248,-309 373,-661 373,-1059 0,-420 -155,-814 -459,-1170 -304,-361 -763,-540 -1372,-540 -467,0 -887,99 -1256,300 -369,198 -703,673 -1003,1423l-2984 -643c301,-1166 948,-2041 1934,-2624 986,-583 2113,-874 3374,-874 1607,0 2850,369 3734,1110 882,737 1324,1663 1324,2782 0,699 -188,1274 -570,1732 -381,459 -982,884 -1805,1277 986,271 1723,678 2208,1222 489,544 733,1222 733,2036 0,1037 -484,1933 -1453,2684 -968,750 -2366,1123 -4188,1123 -3176,0 -5118,-1243 -5830,-3729l3215 -592c519,1303 1376,1955 2572,1955 665,0 1192,-176 1591,-523 399,-347 595,-754 595,-1226 0,-519 -205,-926 -621,-1227 -416,-296 -960,-446 -1630,-446l-604 0zm11492 -3781l-3189 -565c360,-1303 981,-2268 1860,-2894 879,-625 2186,-938 3918,-938 1574,0 2748,184 3520,557 767,373 1312,844 1625,1419 313,575 472,1625 472,3160l-52 4115c0,1170 56,2036 167,2593 112,557 321,1153 630,1788l-3498 0c-89,-232 -205,-575 -338,-1029 -56,-210 -98,-347 -124,-411 -600,592 -1243,1033 -1929,1329 -686,296 -1415,446 -2191,446 -1368,0 -2447,-373 -3236,-1119 -789,-742 -1183,-1685 -1183,-2825 0,-750 180,-1423 540,-2015 360,-588 862,-1042 1513,-1355 648,-313 1582,-588 2804,-823 1646,-308 2791,-600 3425,-866l0 -356c0,-686 -167,-1174 -502,-1471 -338,-291 -973,-437 -1903,-437 -630,0 -1119,125 -1471,377 -356,249 -638,691 -857,1320zm4733 2855c-450,150 -1166,330 -2148,540 -977,210 -1620,415 -1920,613 -459,330 -691,741 -691,1243 0,497 185,922 553,1282 369,360 836,540 1406,540 634,0 1243,-210 1822,-626 424,-321 707,-707 839,-1170 90,-300 137,-875 137,-1719l0 -703zm6794 -6970l3524 0 0 5452c588,-69 1003,-248 1247,-540 240,-292 536,-930 879,-1916 454,-1316 948,-2152 1488,-2520 535,-369 1239,-553 2113,-553 271,0 734,21 1398,64l14 2327c-935,0 -1531,87 -1788,262 -262,185 -545,733 -845,1646 -411,1226 -1007,1985 -1778,2268 1114,308 2057,1282 2829,2915 39,86 86,172 137,266l1972 3678 -3794 0 -1758 -3871c-360,-780 -673,-1282 -939,-1505 -261,-223 -656,-334 -1174,-334l0 5710 -3524 0 0 -13349zm15651 4115l-3190 -565c361,-1303 982,-2268 1861,-2894 879,-625 2186,-938 3918,-938 1573,0 2747,184 3519,557 768,373 1312,844 1625,1419 313,575 472,1625 472,3160l-52 4115c0,1170 56,2036 167,2593 112,557 322,1153 630,1788l-3498 0c-89,-232 -205,-575 -338,-1029 -56,-210 -99,-347 -125,-411 -600,592 -1243,1033 -1929,1329 -686,296 -1415,446 -2191,446 -1368,0 -2448,-373 -3237,-1119 -789,-742 -1183,-1685 -1183,-2825 0,-750 180,-1423 540,-2015 360,-588 862,-1042 1513,-1355 648,-313 1582,-588 2804,-823 1646,-308 2790,-600 3425,-866l0 -356c0,-686 -167,-1174 -502,-1471 -338,-291 -973,-437 -1904,-437 -630,0 -1119,125 -1470,377 -356,249 -639,691 -857,1320zm4733 2855c-450,150 -1166,330 -2148,540 -978,210 -1620,415 -1921,613 -458,330 -690,741 -690,1243 0,497 185,922 552,1282 369,360 837,540 1406,540 635,0 1244,-210 1822,-626 424,-321 707,-707 840,-1170 90,-300 137,-875 137,-1719l0 -703zm10837 925l0 -2289c613,0 1058,-39 1338,-120 274,-82 535,-274 784,-583 249,-309 374,-661 374,-1059 0,-420 -155,-814 -459,-1170 -305,-361 -763,-540 -1372,-540 -467,0 -887,99 -1256,300 -369,198 -703,673 -1003,1423l-2984 -643c301,-1166 948,-2041 1934,-2624 985,-583 2113,-874 3374,-874 1607,0 2850,369 3734,1110 883,737 1325,1663 1325,2782 0,699 -188,1274 -570,1732 -382,459 -982,884 -1805,1277 985,271 1723,678 2207,1222 489,544 734,1222 734,2036 0,1037 -484,1933 -1453,2684 -968,750 -2366,1123 -4188,1123 -3177,0 -5118,-1243 -5830,-3729l3215 -592c519,1303 1376,1955 2572,1955 664,0 1192,-176 1590,-523 399,-347 596,-754 596,-1226 0,-519 -206,-926 -622,-1227 -416,-296 -960,-446 -1629,-446l-604 0zm11492 -3781l-3190 -565c361,-1303 982,-2268 1861,-2894 879,-625 2186,-938 3918,-938 1573,0 2747,184 3519,557 768,373 1312,844 1625,1419 313,575 472,1625 472,3160l-52 4115c0,1170 56,2036 167,2593 112,557 322,1153 630,1788l-3498 0c-89,-232 -205,-575 -338,-1029 -56,-210 -99,-347 -125,-411 -600,592 -1243,1033 -1929,1329 -686,296 -1415,446 -2191,446 -1368,0 -2448,-373 -3237,-1119 -789,-742 -1183,-1685 -1183,-2825 0,-750 180,-1423 540,-2015 360,-588 862,-1042 1513,-1355 648,-313 1582,-588 2804,-823 1646,-308 2790,-600 3425,-866l0 -356c0,-686 -167,-1174 -502,-1471 -338,-291 -973,-437 -1904,-437 -630,0 -1119,125 -1470,377 -356,249 -639,691 -857,1320zm4733 2855c-450,150 -1166,330 -2148,540 -978,210 -1620,415 -1921,613 -458,330 -690,741 -690,1243 0,497 185,922 552,1282 369,360 837,540 1406,540 635,0 1243,-210 1822,-626 424,-321 707,-707 840,-1170 90,-300 137,-875 137,-1719l0 -703zm5354 -6970l12063 0 0 2855 -4270 0 0 10494 -3524 0 0 -10494 -4270 0 0 -2855zm14266 0l3524 0 0 5556 3541 0c1388,0 2452,99 3197,300 746,202 1363,635 1856,1299 493,665 741,1436 741,2315 0,1290 -442,2259 -1325,2906 -883,648 -2203,973 -3970,973l-7566 0 0 -13349zm3524 11085l3296 0c1029,0 1689,-167 1980,-497 288,-334 433,-729 433,-1187 0,-638 -248,-1080 -750,-1325 -497,-240 -1384,-360 -2658,-360l-2302 0 0 3369z"/>
  <path class="fil1" d="M515659 45635c0,-1877 283,-3455 844,-4733 416,-938 990,-1783 1715,-2529 724,-746 1517,-1299 2379,-1663 1149,-484 2474,-729 3974,-729 2718,0 4887,844 6520,2529 1629,1689 2443,4033 2443,7039 0,2979 -810,5311 -2426,6991 -1616,1685 -3781,2525 -6486,2525 -2739,0 -4921,-836 -6537,-2512 -1616,-1672 -2426,-3978 -2426,-6919zm3832 -124c0,2088 484,3669 1448,4750 965,1076 2191,1616 3674,1616 1488,0 2705,-536 3661,-1604 951,-1071 1427,-2674 1427,-4813 0,-2113 -463,-3691 -1393,-4728 -926,-1042 -2156,-1561 -3695,-1561 -1535,0 -2773,527 -3712,1578 -939,1054 -1411,2641 -1411,4763zm15325 -4129l12063 0 0 2855 -4270 0 0 10494 -3524 0 0 -10494 -4270 0 0 -2855zm17764 7896l0 -2289c613,0 1058,-39 1338,-120 274,-82 535,-275 784,-583 248,-309 373,-661 373,-1059 0,-420 -154,-814 -459,-1170 -304,-360 -763,-540 -1371,-540 -468,0 -887,99 -1257,301 -369,197 -703,673 -1003,1423l-2984 -643c301,-1166 948,-2040 1934,-2624 986,-583 2113,-875 3374,-875 1607,0 2850,369 3734,1110 882,738 1324,1663 1324,2782 0,698 -188,1273 -570,1732 -381,459 -982,883 -1805,1277 986,270 1723,677 2208,1222 489,545 733,1222 733,2036 0,1038 -484,1934 -1453,2684 -968,750 -2366,1123 -4188,1123 -3176,0 -5118,-1243 -5830,-3729l3215 -592c519,1303 1376,1955 2572,1955 665,0 1192,-176 1591,-523 399,-347 595,-754 595,-1226 0,-519 -205,-926 -621,-1226 -416,-296 -960,-446 -1630,-446l-604 0zm9233 -7896l3524 0 0 5556 3550 0c1393,0 2456,99 3190,296 733,197 1355,625 1860,1286 510,660 764,1440 764,2332 0,1290 -446,2259 -1333,2907 -887,647 -2221,973 -3995,973l-7558 0 0 -13349zm3524 11085l3292 0c853,0 1479,-132 1865,-399 386,-266 579,-698 579,-1299 0,-638 -249,-1080 -750,-1315 -502,-236 -1398,-356 -2692,-356l-2294 0 0 3369zm11369 -11085l3523 0 0 13349 -3523 0 0 -13349zm7073 0l7733 0c1586,0 2770,288 3558,866 789,579 1183,1453 1183,2619 0,746 -214,1398 -647,1951 -429,552 -973,922 -1625,1106 917,227 1603,647 2057,1269 449,622 677,1299 677,2036 0,1038 -381,1882 -1144,2530 -763,647 -1891,973 -3382,973l-8411 0 0 -13349zm3524 5556l2289 0c1106,0 1904,-137 2397,-416 493,-278 741,-716 741,-1312 0,-566 -231,-965 -690,-1204 -459,-240 -1273,-360 -2448,-360l-2289 0 0 3292zm0 5530l2804 0c1011,0 1748,-120 2211,-364 463,-244 695,-677 695,-1307 0,-656 -266,-1106 -797,-1350 -527,-249 -1561,-374 -3095,-374l-1818 0 0 3395zm12285 -11085l3524 0 0 5556 3550 0c1393,0 2456,99 3190,296 733,197 1355,625 1860,1286 510,660 764,1440 764,2332 0,1290 -446,2259 -1333,2907 -887,647 -2221,973 -3995,973l-7558 0 0 -13349zm3524 11085l3292 0c853,0 1479,-132 1865,-399 386,-266 579,-698 579,-1299 0,-638 -249,-1080 -750,-1315 -502,-236 -1398,-356 -2692,-356l-2294 0 0 3369zm11369 -11085l3523 0 0 13349 -3523 0 0 -13349z"/>
  <polygon class="fil2" points="0,0 645228,0 645228,88586 0,88586 "/>
 </g>
</svg>
